<svg xmlns="http://www.w3.org/2000/svg" viewBox="0 0 315.424 315.424"><g fill="#fff" transform="rotate(90 155 155)"><path d="M311.929 222.266l-96.119-67.342c-1.413-.99-2.783-1.513-4.307-1.513-3.307 0-6.471 2.512-6.471 7.313v41.05H19.886c-4.962 0-8.854 4.132-8.854 9.094v35.563c0 4.962 3.892 9.343 8.854 9.343h185.146v40.81c0 4.801 3.167 7.19 6.474 7.19h-.089c1.524 0 3.032-.461 4.445-1.451l96.09-67.306c2.214-1.55 3.473-3.864 3.473-6.375s-1.283-4.827-3.496-6.376zm-207.856-60.13c2.082 0 4.137-.958 5.371-2.63.939-1.271 1.588-2.891 1.588-4.683v-41.05h184.476c4.963 0 8.524-4.132 8.524-9.094V69.117c0-4.962-3.561-9.343-8.524-9.343H111.032v-40.81c0-4.801-3.502-7.313-6.809-7.313-1.524 0-3.154.523-4.567 1.513L3.502 80.5C1.289 82.051 0 84.38 0 86.891s1.26 4.84 3.473 6.391l96.115 67.342c1.413.989 2.961 1.512 4.485 1.512z"/></g></svg>
