<svg id="af66189b-c9ad-40fe-b596-f1851ea53a30" data-name="Layer 5" xmlns="http://www.w3.org/2000/svg" viewBox="0 1 24 24"><defs><style>.svg-dark-grey-default{color:#231f20}</style></defs><path id="eb78be3c-4940-428e-9ae1-e90c52a81a36" class="colorable svg-dark-grey-default" stroke="currentColor" fill="none" data-name="bell" d="M18.08 17.45H6a1 1 0 0 1-.82-.39.65.65 0 0 1 0-.79c.18-.27.39-.52.57-.79a4.16 4.16 0 0 0 1.11-2.06V9.73c0-2.24 2.21-4.09 4.85-4.09h.86c2.57 0 4.67 1.79 4.67 4v3.79a4 4 0 0 0 1.11 2.06 6.77 6.77 0 0 1 .57.79.65.65 0 0 1 0 .79.88.88 0 0 1-.84.38z"/><ellipse class="colorable svg-dark-grey-default" stroke="currentColor" fill="none" cx="12" cy="4.09" rx=".93" ry=".91"/><ellipse class="colorable svg-dark-grey-default" stroke="currentColor" fill="none" cx="12" cy="18" rx="1.4" ry="1.36" clip-path="url(#bell-clip)"/><clipPath id="bell-clip"><path d="M0 18h25v4H0z"/></clipPath></svg>