<svg id="Ebene_1" xmlns="http://www.w3.org/2000/svg" viewBox="0 0 24 24"><style>.st0{fill:#FFFFFF;}</style><path class="st0" d="M0 0h24v24H0z"/><path d="M16 0H2C.895 0 0 .895 0 2v20c0 1.105.895 2 2 2h14c1.105 0 2-.895 2-2V2c0-1.105-.895-2-2-2zm-3 15l-4.023-3.31L5 15V2h8v13zM19 0h-.954v.302C18.616.655 19 1.28 19 2v20c0 .72-.384 1.345-.954 1.698V24H19c1.104 0 2-.895 2-2V2c0-1.105-.896-2-2-2zM22 0h-.975v.29C21.607.64 22 1.273 22 2v20c0 .728-.393 1.36-.975 1.71V24H22c1.104 0 2-.895 2-2V2c0-1.105-.896-2-2-2z"/></svg>