<svg version="1.1" id="Layer_1" xmlns="http://www.w3.org/2000/svg" xmlns:xlink="http://www.w3.org/1999/xlink" x="0px" y="0px" viewBox="0 0 727 77" style="enable-background:new 0 0 727 77" xml:space="preserve"><style type="text/css">.st0{fill:#bcc6cd}.st1{fill:none;stroke:#151f27;stroke-width:2;stroke-miterlimit:10}.st4{fill:#92aabb}.st5{fill:#88cefc}.st6{fill:#b8ddfd}.st7{fill:#51697a}.st8{fill:#6d8494}.st9{fill:#0d1319}.st10{fill:#2a3945}.st11{fill:#cf3000}.st12{fill:#982300}.st13{fill:#fff}.st14{fill:#eef6fe}.st15{fill:#fafafa}.st16{fill:none;stroke:#151f27;stroke-width:2;stroke-linecap:round;stroke-miterlimit:10}.st18{fill:#83614b}.st20{fill:#88654e}.st21{fill:#8d6951}.st22{fill:#926c54}.st23{fill:#977057}.st24{fill:#9c745a}.st25{fill:#a1785d}.st26{fill:#a67b60}.st27{fill:#ab7f63}.st28{fill:#b08366}.st29{fill:#b58768}.st30{fill:#ba8a6b}.st31{fill:#c08e6e}.st32{fill:#c59271}.st33{fill:#ca9674}.st35{fill:#cf9977}.st36{fill:#d49d7a}.st37{fill:#d9a17d}.st38{fill:#dea580}.st39{fill:#e3a883}.st40{fill:#e8ac85}.st41{fill:#edb088}.st42{fill:#f2b48b}.st43{fill:#f7b78e}.st44{fill:#fcbb91}.st45{fill:#fcc39e}.st46{fill:#fdc7a4}.st47{fill:#fdc9a8}.st48{fill:#fdcbab}.st49{fill:#fdcdaf}.st50{fill:#1e2931}.st51{fill:#344755}.st53{fill:#ee4a00}.st57{fill:#f95300}.st66{fill:#e5330a}.st67{fill:#bacedc}.st68{fill:#dae6ee}.st74{fill:none;stroke:#bacedc;stroke-width:2;stroke-linecap:round;stroke-miterlimit:10}</style><polygon class="st0" points="598.4,77 628.6,59.6 593.9,39.4 540.2,70.4 551.5,77"/><polygon class="st0" points="590.5,13.8 593.1,12.4 628.4,32.8 625.9,34.3"/><line class="st1" x1="591.4" y1="44.1" x2="591.4" y2="34.2"/><linearGradient id="SVGID_1_" gradientUnits="userSpaceOnUse" x1="577.9046" y1="-228.0137" x2="577.9046" y2="-217.2041" gradientTransform="matrix(-0.87 0.5 -1 -0.58 868.5768 -357.04)"><stop offset="0" style="stop-color:#5c1500;stop-opacity:0"/><stop offset="0.9" style="stop-color:#5c1500"/></linearGradient><polygon points="576.5,62.5 591.4,54.6 601.8,60.4 586.8,68.3" style="opacity:.49;fill:url(#SVGID_1_);enable-background:new"/><linearGradient id="SVGID_2_" gradientUnits="userSpaceOnUse" x1="577.3415" y1="-215.1449" x2="577.3415" y2="-208.4825" gradientTransform="matrix(-0.87 0.5 -1 -0.58 868.5768 -357.04)"><stop offset="0" style="stop-color:#5c1500;stop-opacity:0"/><stop offset="0.9" style="stop-color:#5c1500"/></linearGradient><polygon points="569,56.7 582.6,49.5 588.7,53.1 575.1,60.3" style="opacity:.49;fill:url(#SVGID_2_);enable-background:new"/><path class="st4" d="M586.5,51.9c-0.4,0.7-1,1.2-1.7,1.6c-0.3,0.1-0.6,0.2-0.8,0.1l-2.8-0.6l1.1-2L586.5,51.9z"/><polygon class="st5" points="581.2,52.9 579.7,51.8 580.8,49.8 582.3,50.9"/><polygon class="st6" points="582.3,50.9 580.8,49.8 585,50.7 586.5,51.9"/><path class="st7" d="M580,51.2c1.4-0.6,2.4,0.1,2.2,1.5l-11.8,4.6c-0.2,0.1-0.3,0.1-0.5,0c-0.5-0.1-0.8-0.6-0.7-1.1 c0.1-0.7,0.9-1.2,1.6-1.5L580,51.2z"/><path class="st8" d="M569.4,57.1c-0.7-0.8,1-2.1,1.6-2.3c1.2-0.5,2.4-0.9,3.6-1.4l3.7-1.4c0.9-0.4,2.5-1.4,3.5-0.6 c-1.1-0.9-2-2-3.5-1.5c-1.3,0.4-2.5,1-3.8,1.5c-1.3,0.5-2.7,0.9-4,1.5C567.6,54.3,568.9,56.5,569.4,57.1z"/><circle class="st9" cx="582" cy="48.3" r="4.4"/><path class="st10" d="M572.1,52.8c0.2-0.2,0.2-0.2,0.5-0.4l3.1-2.9l2.3-2.2l0.4-0.4c0.3-0.3,0.7-0.5,1.1-0.7 c0.5-0.3,1-0.2,1.4,0.1l-0.1-0.1l-1.6-1.6c-0.2-0.2-0.3-0.3-0.5-0.5c-0.4-0.3-0.8-0.4-1.3-0.2c-0.5,0.2-1,0.5-1.4,0.9l-1,0.9 l-3.5,3.2c-0.7,0.7-1.2,1.1-1.9,1.8"/><path class="st9" d="M572.2,52.7l6.3-5.8c0.4-0.4,0.8-0.6,1.3-0.8c0.4-0.2,0.9-0.1,1.2,0.2c0.5,0.6,0.1,1.7-0.8,2.6l-6.6,6.1"/><path class="st7" d="M573.6,55l-2.5,1.9c-1.1,1-2.6,0-1.5-1.8l2.6-2.4"/><path class="st8" d="M570,50.8c-0.4,0.4-1.8,1.5-2.2,1.9c-1.2,1.4-0.7,2.8,0.3,3.7c0.5,0.4,1.1,0.8,1.8,1c0,0-1.9-1.6,2.3-4.6"/><path class="st4" d="M593.1,55.4c-0.3,0.7-0.8,1.4-1.4,1.8c-0.2,0.2-0.5,0.2-0.8,0.2l-2.9-0.2l0.8-2.1L593.1,55.4z"/><polygon class="st5" points="587.9,57.2 586.3,56.2 587.1,54.1 588.8,55"/><polygon class="st6" points="588.8,55 587.1,54.1 591.4,54.5 593.1,55.4"/><path class="st7" d="M586.3,55.7c1.3-0.8,2.4-0.2,2.4,1.2L578,62.6c-0.7,0.4-1.8,0.1-1.8-0.6c0-0.7,0.8-1.2,1.5-1.6L586.3,55.7z"/><path class="st8" d="M576.5,62.6c-1.1-0.7,0.8-1.8,1.4-2.2c1.1-0.7,2.2-1.3,3.4-1.9l3.5-1.9c0.9-0.5,2.4-1.5,3.5-0.9 c-1.2-0.7-1.9-1.1-3.7-0.7c-1.3,0.3-2.5,0.9-3.6,1.5l-3.7,2.1c-1.1,0.6-1.1,0.5-1.8,1.8C575.4,61.3,575.8,62.2,576.5,62.6z"/><path class="st8" d="M581.9,11.9l-0.5-3.3c-0.8,0.1-1.4,0.7-1.4,1.5c-0.1,0.9,0.6,1.7,1.5,1.8C581.6,11.9,581.8,11.9,581.9,11.9z"/><path class="st8" d="M581.5,8.8l-0.2-1.4c-0.3,0-0.6,0.3-0.6,0.6c0,0.4,0.3,0.7,0.6,0.8C581.4,8.8,581.5,8.8,581.5,8.8z"/><path class="st10" d="M578.5,57c0.2-0.3,0.2-0.3,0.4-0.5l2.2-3.6l1.7-2.7l0.3-0.5c0.2-0.4,0.5-0.7,0.8-1c0.4-0.3,0.9-0.6,1.4-0.3 l-0.1-0.1l-2-1.1c-0.2-0.1-0.4-0.2-0.6-0.3c-0.4-0.2-0.9-0.1-1.3,0.2c-0.5,0.3-0.8,0.7-1.1,1.2l-0.7,1.1l-2.5,4 c-0.5,0.8-0.9,1.4-1.4,2.2"/><path class="st9" d="M578.6,56.9l4.5-7.3c0.3-0.5,0.6-0.8,1.1-1.1c0.3-0.3,0.8-0.3,1.2-0.1c0.6,0.4,0.6,1.6-0.1,2.7l-4.7,7.6"/><path class="st7" d="M580.6,58.7l-1.7,2.7c-0.3,0.5-0.6,0.8-1.1,1.1c-0.3,0.3-0.8,0.3-1.2,0.1c-0.6-0.4-0.6-1.6,0.1-2.7l1.8-3"/><path class="st8" d="M575.8,55.7c-0.3,0.5-0.9,1.1-1.1,1.6c-2,3.7,1.1,4.8,2,5.4c-0.2-0.1-0.4-0.4-0.4-0.6c-0.3-1,0.4-2,0.9-2.8 c0.4-0.7,1-1.7,1.4-2.4"/><polygon class="st10" points="572.2,52.7 579.2,45.4 582.2,46.7 575.8,55.4 579,48.6"/><path class="st11" d="M579.6,31.1c0,0.3,0.1,0.7,0.4,0.9c0.4,0.2,0.3,0.2,0.7,0.4l0.9,0.5l0,0c-0.3-0.2-0.4-0.5-0.4-0.9 L579.6,31.1z"/><path class="st12" d="M584,26.2v4.2c-0.1,1-0.6,1.8-1.4,2.4c-0.8,0.4-1.4,0.1-1.4-0.8v-4.2L584,26.2z"/><polygon class="st11" points="581.3,32 579.6,31.1 579.2,26.6 581.3,27.8"/><polygon class="st11" points="581.3,27.8 579.2,26.6 582,25 584,26.2"/><path class="st8" d="M581.3,27.8l-1.4-0.9c0,0-0.3-7.6-0.2-8.9c0.1-4.3,1.3-6.2,1.3-6.2l0.9,0.2L581.3,27.8z"/><path class="st7" d="M581.9,12l1.3,14.6l-1.9,1.2c0,0-0.4-6.1-0.4-8.2C580.7,12.1,581.9,12,581.9,12z"/><path class="st11" d="M586.4,30.1c-1.2-0.7-2.2-1.6-3.5-0.8l1.7,1c0.3-0.2,0.7-0.3,1-0.3C585.8,29.9,586.1,29.9,586.4,30.1z"/><polygon class="st11" points="577.7,44.9 576,44 580.6,32 582.3,33"/><path class="st13" d="M585.9,29.9c1.2,0.1,1.6,1.7,0.9,3.5l-4.6,11.9l-4.5-0.4l4.6-11.9c0.4-1.1,1.2-2.1,2.2-2.8 C584.9,30,585.4,29.9,585.9,29.9z"/><path class="st11" d="M584.6,30.2l-1.7-1c-1,0.6-1.8,1.6-2.2,2.8l1.7,1c0.4-1,1.1-1.9,1.9-2.6C584.3,30.4,584.4,30.3,584.6,30.2z"/><path class="st9" d="M585.5,48.1c0,0.7-2.9,2.2-2.9,2.2c1.5-2.2,0.4-3.4,0.4-3.4S585.5,47.4,585.5,48.1z"/><polygon class="st14" points="581.1,46.9 577.7,44.9 582.3,33 585.7,35"/><path class="st15" d="M589.3,31.9c1.2,0.1,1.7,1.7,0.9,3.5l-4.6,12l-4.5-0.4l4.7-11.9c0.4-1.1,1.2-2.1,2.2-2.8 C588.3,32,588.8,31.9,589.3,31.9z"/><path class="st15" d="M582.3,33l3.4,2c0.4-1,1.1-1.9,1.9-2.5c0.1-0.1,0.2-0.1,0.3-0.2c0.3-0.2,0.7-0.3,1-0.3c0.3,0,0.6,0,0.8,0.2 l-0.6-0.4l-2.3-1.3l-0.6-0.3c-0.6-0.3-1.3-0.2-1.8,0.2C583.5,30.9,582.7,31.9,582.3,33z"/><path class="st11" d="M591.5,33c-1.2-0.7-2.2-1.6-3.5-0.8l1.7,1c0.3-0.2,0.7-0.3,1-0.3C591,32.8,591.3,32.9,591.5,33z"/><polygon class="st11" points="582.8,47.9 581.1,46.9 585.8,35 587.5,35.9"/><path class="st12" d="M591,32.8c1.2,0.1,1.7,1.7,0.9,3.5l-4.6,12l-4.5-0.4l4.7-11.9c0.4-1.1,1.2-2.1,2.2-2.8 C590.1,32.9,590.5,32.8,591,32.8z"/><path class="st11" d="M589.7,33.2l-1.7-1c-1,0.6-1.8,1.6-2.2,2.8l1.7,1c0.4-1,1.1-1.9,1.9-2.6C589.5,33.3,589.6,33.3,589.7,33.2z"/><path class="st16" d="M590.7,32.5c-3,0-3.2,5.8-3.2,5.8v8.2"/><path class="st8" d="M586.6,40.1c-0.1,0.7,0.6,1.1,0.6,0.9c0.2-1.4,7.7-2.1,8.6-2.2l2.5-0.4l0.7-0.1c0.3-0.1,0.5,0,0.7,0.1 l-0.1-0.1c-0.4-0.4-2.9-0.9-3.5-0.8C595,37.7,586.9,38,586.6,40.1z"/><path class="st7" d="M599.1,38.3c0.6-0.1,0.9,0.4,0.7,1c-0.3,0.6-0.8,1.1-1.4,1.3l-0.2,0l-10.8,0.6c-0.6,0.1-1-0.4-0.6-1 C587.8,38.8,599.1,38.3,599.1,38.3z"/><defs><path id="SVGID_3_" d="M599.5,37.8l-1.9-1.2c0,0,0.1,0,0.1,0L599.5,37.8L599.5,37.8z"/></defs><clipPath id="SVGID_4_"><use xlink:href="#SVGID_3_" style="overflow:visible"/></clipPath><path class="st18" d="M599.6,37.9L599.6,37.9l-2-1.2c0,0,0.1,0,0.1,0L599.6,37.9"/><polygon class="st7" points="593,35 591.2,33.8 597.6,36.6 599.5,37.8"/><defs><path id="SVGID_5_" d="M592.2,35.1l-1.9-1.2c0.2-0.1,0.5-0.2,0.8-0.1L593,35C592.8,34.9,592.5,34.9,592.2,35.1z"/></defs><clipPath id="SVGID_6_"><use xlink:href="#SVGID_5_" style="overflow:visible"/></clipPath><g style="clip-path:url(#SVGID_6_)"><path class="st18" d="M593,35L593,35l-1.9-1.2l0,0L593,35"/><path class="st20" d="M593,35L593,35l-2-1.2c0,0,0.1,0,0.1,0L593,35"/><path class="st21" d="M592.9,34.9L592.9,34.9l-1.9-1.2h0.1L592.9,34.9"/><path class="st22" d="M592.9,34.9L592.9,34.9l-1.9-1.2h0.1L592.9,34.9"/><path class="st23" d="M592.8,34.9L592.8,34.9l-1.9-1.2c0,0,0,0,0.1,0L592.8,34.9"/><path class="st24" d="M592.7,34.9L592.7,34.9l-1.9-1.2h0L592.7,34.9"/><path class="st25" d="M592.7,34.9L592.7,34.9l-1.9-1.2h0.1L592.7,34.9"/><path class="st26" d="M592.6,34.9L592.6,34.9l-1.9-1.2h0.1L592.6,34.9"/><path class="st27" d="M592.6,34.9L592.6,34.9l-1.9-1.2h0.1L592.6,34.9"/><path class="st28" d="M592.5,34.9L592.5,34.9l-1.9-1.2h0L592.5,34.9"/><path class="st29" d="M592.5,35L592.5,35l-1.9-1.2h0L592.5,35"/><path class="st30" d="M592.4,35L592.4,35l-1.9-1.2h0L592.4,35"/><path class="st31" d="M592.4,35L592.4,35l-1.9-1.2h0L592.4,35"/><path class="st32" d="M592.3,35L592.3,35l-1.9-1.2h0L592.3,35"/><path class="st33" d="M592.3,35.1L592.3,35.1l-1.9-1.2h0L592.3,35.1"/></g><defs><path id="SVGID_7_" d="M589.6,34.7c0.2-0.3,0.5-0.6,0.8-0.8l1.9,1.2c-0.3,0.2-0.6,0.5-0.8,0.8c-0.4,0.7-0.3,1.4,0.1,1.6 l-1.9-1.2C589.2,36,589.2,35.3,589.6,34.7z"/></defs><clipPath id="SVGID_8_"><use xlink:href="#SVGID_7_" style="overflow:visible"/></clipPath><g style="clip-path:url(#SVGID_8_)"><path class="st33" d="M592.2,35.1L592.2,35.1l-1.9-1.2l0,0L592.2,35.1"/><path class="st35" d="M592.2,35L592.2,35l-1.9-1.2h0L592.2,35"/><path class="st36" d="M592.2,35.1L592.2,35.1l-1.9-1.2l0,0L592.2,35.1"/><path class="st37" d="M592.1,35.1L592.1,35.1l-1.9-1.2l0,0L592.1,35.1"/><path class="st38" d="M592.1,35.1L592.1,35.1l-1.9-1.2l0,0L592.1,35.1"/><path class="st39" d="M592,35.2L592,35.2l-1.9-1.2l0,0L592,35.2"/><path class="st40" d="M592,35.2L592,35.2l-1.9-1.2c0,0,0,0,0,0L592,35.2"/><path class="st41" d="M591.9,35.3L591.9,35.3l-1.9-1.2c0,0,0,0,0,0L591.9,35.3"/><path class="st42" d="M591.9,35.3L591.9,35.3l-1.9-1.2l0,0L591.9,35.3"/><path class="st43" d="M591.8,35.3L591.8,35.3l-1.9-1.2l0,0L591.8,35.3"/><path class="st44" d="M591.8,35.4L591.8,35.4l-1.9-1.2c0,0,0,0,0,0L591.8,35.4"/><path class="st45" d="M591.8,35.4C591.7,35.4,591.7,35.4,591.8,35.4l-1.9-1.2l0,0L591.8,35.4"/><path class="st46" d="M591.7,35.5L591.7,35.5l-1.9-1.2l0,0L591.7,35.5"/><path class="st47" d="M591.7,35.5L591.7,35.5l-1.9-1.1l0,0L591.7,35.5"/><path class="st48" d="M591.6,35.6L591.6,35.6l-1.9-1.1l0.1-0.1L591.6,35.6"/><path class="st49" d="M591.6,35.6l-0.1,0.1l-1.9-1.2c0,0,0.1-0.1,0.1-0.1L591.6,35.6"/><path class="st48" d="M591.5,35.7L591.5,35.7l-1.9-1.1c0,0,0-0.1,0-0.1L591.5,35.7"/><path class="st47" d="M591.4,35.9L591.4,35.9L591.4,35.9l-1.8-1.2l0,0v0L591.4,35.9"/><path class="st46" d="M591.4,35.9C591.4,35.9,591.4,35.9,591.4,35.9l-1.9-1.1c0,0,0,0,0,0L591.4,35.9"/><path class="st45" d="M591.4,35.9L591.4,35.9l-1.9-1.2c0,0,0,0,0,0L591.4,35.9"/><path class="st44" d="M591.4,36C591.4,36,591.4,36,591.4,36l-1.9-1.2l0,0L591.4,36"/><path class="st43" d="M591.4,36C591.4,36,591.4,36,591.4,36l-1.9-1.2v0L591.4,36"/><path class="st42" d="M591.3,36.1C591.3,36.1,591.3,36.1,591.3,36.1l-1.9-1.2c0,0,0,0,0,0L591.3,36.1"/><path class="st41" d="M591.3,36.1C591.3,36.1,591.3,36.1,591.3,36.1l-1.8-1.1v0L591.3,36.1"/><path class="st40" d="M591.3,36.2L591.3,36.2l-1.9-1.1c0,0,0,0,0,0L591.3,36.2"/><path class="st39" d="M591.3,36.2L591.3,36.2l-1.9-1.1v0L591.3,36.2"/><path class="st38" d="M591.3,36.2C591.3,36.3,591.3,36.3,591.3,36.2l-1.9-1.1v-0.1L591.3,36.2"/><path class="st37" d="M591.2,36.3L591.2,36.3l-1.9-1.2v0L591.2,36.3"/><path class="st36" d="M591.2,36.3C591.2,36.4,591.2,36.4,591.2,36.3l-1.9-1.1v-0.1L591.2,36.3"/><path class="st35" d="M591.2,36.4C591.2,36.4,591.2,36.4,591.2,36.4l-1.9-1.1c0,0,0,0,0,0L591.2,36.4"/><path class="st33" d="M591.2,36.4C591.2,36.5,591.2,36.5,591.2,36.4l-1.9-1.1c0,0,0-0.1,0-0.1L591.2,36.4"/><path class="st32" d="M591.2,36.5C591.2,36.5,591.2,36.5,591.2,36.5l-1.9-1.1c0,0,0,0,0,0L591.2,36.5"/><path class="st31" d="M591.2,36.5C591.2,36.6,591.2,36.6,591.2,36.5l-1.9-1.1c0,0,0,0,0,0L591.2,36.5"/><path class="st30" d="M591.2,36.6C591.2,36.6,591.2,36.6,591.2,36.6l-1.9-1.1c0,0,0-0.1,0-0.1L591.2,36.6"/><path class="st29" d="M591.2,36.6C591.2,36.7,591.2,36.7,591.2,36.6l-1.9-1.1v0L591.2,36.6"/><path class="st28" d="M591.2,36.7L591.2,36.7l-1.9-1.1c0,0,0-0.1,0-0.1L591.2,36.7"/><path class="st27" d="M591.2,36.8L591.2,36.8l-1.9-1.1c0,0,0,0,0,0L591.2,36.8"/><path class="st26" d="M591.2,36.8C591.2,36.8,591.2,36.9,591.2,36.8l-1.9-1.1v-0.1L591.2,36.8"/><path class="st25" d="M591.2,36.9C591.2,36.9,591.2,36.9,591.2,36.9l-1.9-1.1c0,0,0-0.1,0-0.1L591.2,36.9"/><path class="st24" d="M591.2,36.9C591.2,36.9,591.2,37,591.2,36.9l-1.9-1.1c0,0,0-0.1,0-0.1L591.2,36.9"/><path class="st23" d="M591.2,37L591.2,37l-1.9-1.1v-0.1L591.2,37"/><path class="st22" d="M591.2,37C591.2,37,591.2,37.1,591.2,37l-1.9-1.1c0,0,0,0,0-0.1L591.2,37"/><path class="st21" d="M591.2,37.1C591.2,37.1,591.2,37.1,591.2,37.1l-1.8-1.1c0,0,0-0.1,0-0.1L591.2,37.1"/><path class="st20" d="M591.3,37.2C591.3,37.2,591.3,37.2,591.3,37.2l-1.8-1.1l0-0.1L591.3,37.2"/><path class="st18" d="M591.3,37.2c0.1,0.1,0.1,0.2,0.2,0.2l-1.9-1.2c-0.1-0.1-0.2-0.1-0.2-0.2L591.3,37.2"/></g><path class="st7" d="M593,35l6.5,2.9c0.5,0.2,0.6,1,0.2,1.7c-0.2,0.3-0.5,0.6-0.8,0.8c-0.2,0.1-0.5,0.2-0.8,0.1l-6.5-2.9 c-0.5-0.2-0.6-1-0.2-1.7c0.2-0.3,0.5-0.6,0.8-0.8C592.5,34.9,592.8,34.9,593,35z"/><polygon class="st12" points="593.3,34.2 591,32.7 594.3,33.9 596.5,35.4"/><path class="st12" d="M593.3,34.2l3.2,1.2l-2.1,3.8l-3.2-1.2c-0.7-0.3-0.7-1.3-0.2-2.4c0.3-0.6,0.7-1,1.3-1.3 C592.6,34.1,593,34.1,593.3,34.2z"/><path class="st11" d="M588.8,36.5c0.7,0.5,1.5,1,2.3,1.4c-0.3-0.3-0.5-0.7-0.4-1.1c0.1-0.7,0.4-1.4,0.8-1.9 c0.4-0.5,1.1-1.1,1.8-0.8l-0.8-0.5l-1.1-0.7c-0.1-0.1-0.2-0.1-0.3-0.2c-0.2-0.1-0.4-0.1-0.6,0c-0.6,0.2-1.1,0.5-1.4,1 c-0.4,0.5-0.6,1.1-0.7,1.7C588.3,35.8,588.5,36.2,588.8,36.5z"/><circle class="st8" cx="586" cy="40.4" r="1.7"/><path class="st7" d="M586.1,40.7c0.9-0.1,1-0.7,1.3-0.7c0.4,0,0.2,0.8,0.1,1c-0.2,0.6-0.8,1-1.4,1c-0.9,0.1-1.7-0.6-1.7-1.6 C584.3,40.2,585,40.9,586.1,40.7z"/><circle class="st12" cx="590.9" cy="27.1" r="3.3"/><ellipse transform="matrix(0.96 -0.28 0.28 0.96 15.946 166.2372)" class="st11" cx="589.8" cy="27.3" rx="2.2" ry="5.2"/><polygon class="st7" points="586.8,28.1 589.2,30.4 588,31.7 585.6,29.4"/><circle class="st7" cx="586.8" cy="30.4" r="1.7"/><path class="st8" d="M587,25.3c-0.2,0.3-0.4,0.6-0.6,1c-0.6,1.7,0.3,3.6,2.1,4.2c0.4,0.1,0.8,0.2,1.3,0.2c0.1,0,0.1,0,0.2,0 c1.8-0.2,3.1-1.9,2.9-3.7c0-0.4-0.1-0.7-0.3-1l0-0.1c-0.7-1.3-2.1-2-3.5-1.8c-0.3,0.1-0.6,0.1-0.9,0.3 C587.6,24.6,587.3,25,587,25.3z"/><path class="st9" d="M589.7,30.7c0.1,0,0.1,0,0.2,0c1.8-0.2,3.1-1.9,2.9-3.7c-0.5,0.1-1,0-1.5-0.2h0 C590.2,27.9,589.7,29.3,589.7,30.7z"/><path class="st9" d="M588.9,24.2c-0.2,0.4-0.6,1.2,0,1.9c0.5,0.6,1.2,1,1.9,1.2c0.5-0.5,1.1-1,1.7-1.4 C591.8,24.6,590.3,23.9,588.9,24.2z"/><path class="st9" d="M592.5,25.9c-0.4,0.3-0.9,0.6-1.2,0.9c0.5,0.2,1,0.2,1.5,0.2C592.7,26.7,592.6,26.3,592.5,25.9L592.5,25.9z"/><circle class="st8" cx="590" cy="29.2" r="0.5"/><rect x="588.8" y="28.1" transform="matrix(0.6928 -0.7212 0.7212 0.6928 160.8925 434.3218)" class="st9" width="2.9" height="0.5"/><path class="st9" d="M589.4,29.5c0,0-2.1,1.5-3.3-0.2c-1.2-1.7,0.7-3.8,0.7-3.8c-0.2,0.2-0.3,0.5-0.1,0.8c0.1,0.2,0.4,0.1,0.7,0.7 c0.3,0.5,0.1,1.3,0.7,1.8c0.3,0.2,0.8,0.3,1.1,0.1L589.4,29.5z"/><path class="st11" d="M591.4,30.3c1-0.7,1.6-2,1.4-3.2c0-0.4-0.1-0.7-0.3-1l0-0.1c-0.6-1.1-1.7-1.8-3-1.8c1,0.7,1.6,1.7,1.9,2.8 C591.8,28,591.8,29.2,591.4,30.3z"/><polygon class="st11" points="580.6,32.1 579.6,34.8 579.6,30.8"/><polygon class="st50" points="592.2,44.4 592.2,47.3 588.2,49.6 588.2,46.7"/><polygon class="st51" points="588.2,49.6 587.3,49.1 587.3,46.2 588.2,46.7"/><polygon class="st7" points="588.2,46.7 587.3,46.2 591.3,43.9 592.2,44.4"/><ellipse transform="matrix(0.5024 -0.8646 0.8646 0.5024 252.337 534.9029)" class="st50" cx="590.9" cy="48.2" rx="1.2" ry="0.7"/><linearGradient id="SVGID_9_" gradientUnits="userSpaceOnUse" x1="419.23" y1="29.9214" x2="421.6637" y2="28.515" gradientTransform="matrix(-1 0 0 -1 1010.7168 77)"><stop offset="0.37" style="stop-color:#344755"/><stop offset="1" style="stop-color:#1e2931"/></linearGradient><path d="M589.1,48.6c0.1,0.1,0.2,0.1,0.3,0.2l0.9,0.5l0,0c-0.2-0.1-0.2-0.4-0.2-0.7c0-0.3,0.1-0.6,0.3-0.8 c0.2-0.3,0.7-0.9,1.2-0.7c-0.4-0.2-0.7-0.4-1.1-0.6s-0.9,0.1-1.1,0.5l0,0c-0.2,0.3-0.4,0.6-0.4,1C588.9,48.2,589,48.4,589.1,48.6z" style="fill:url(#SVGID_9_)"/><polygon class="st51" points="591.7,45.3 591.7,45.8 591,46.2 591,45.7"/><path class="st53" d="M525.9,42.9c1.3,0.9,2.2,2.3,2.3,3.9v8.9l-12.4-7.2l0-11.5L525.9,42.9z"/><linearGradient id="SVGID_10_" gradientUnits="userSpaceOnUse" x1="479.4872" y1="23.1028" x2="490.6772" y2="42.4811" gradientTransform="matrix(-1 0 0 -1 1010.7168 77)"><stop offset="0.23" style="stop-color:#f95300"/><stop offset="0.32" style="stop-color:#fb5f06"/><stop offset="0.41" style="stop-color:#ff7110"/><stop offset="0.68" style="stop-color:#ff690f"/></linearGradient><path d="M515.8,37l10.1,5.9c0.6,0.4,1.1,0.9,1.5,1.5c0.4,0.6,0.6,1.3,0.8,2c0,0.2,0,0.3,0,0.5v8.9l3-1.8V45l0,0 c0-0.8-0.2-1.5-0.6-2.2c-0.4-0.7-0.9-1.3-1.6-1.7l-10.1-5.9L515.8,37z" style="fill:url(#SVGID_10_)"/><linearGradient id="SVGID_11_" gradientUnits="userSpaceOnUse" x1="492.7974" y1="43.0584" x2="504.5397" y2="22.7195" gradientTransform="matrix(-1 0 0 -1 1010.7168 77)"><stop offset="0" style="stop-color:#ff7110"/><stop offset="1" style="stop-color:#f95300"/></linearGradient><path d="M512.2,33.6c3.5-2,6.3-0.4,6.3,3.6v9.4L505.7,54l0-9.4c0-4,2.8-8.8,6.2-10.8L512.2,33.6z" style="fill:url(#SVGID_11_)"/><linearGradient id="SVGID_12_" gradientUnits="userSpaceOnUse" x1="509.6016" y1="25.6253" x2="497.8492" y2="45.9781" gradientTransform="matrix(-1 0 0 -1 1010.7168 77)"><stop offset="0.25" style="stop-color:#f95300"/><stop offset="0.58" style="stop-color:#ff7111"/><stop offset="1" style="stop-color:#fd7e23"/></linearGradient><path d="M501.9,42.5l0,9.4l3.7,2.2l0-9.4c0-1.4,0.3-2.8,0.8-4.1c0.9-2.3,2.3-4.3,4.2-5.9c0.8-0.7,1.7-1.2,2.6-1.6 c1.1-0.5,2.3-0.4,3.4,0.1l-0.8-0.5l-2.6-1.5c-0.4-0.2-0.8-0.4-1.2-0.5c-0.9-0.2-1.8,0-2.6,0.3c-0.2,0.1-0.5,0.2-0.7,0.3 c-0.1,0.1-0.3,0.2-0.4,0.2c-1.4,0.8-2.7,2-3.6,3.3l0,0c-0.4,0.5-0.7,1-1,1.6C502.6,38.3,502,40.4,501.9,42.5L501.9,42.5z" style="fill:url(#SVGID_12_)"/><polygon class="st57" points="518.3,45.6 526.9,50.6 515.9,56.9 507.4,51.9"/><polygon class="st57" points="515.9,56.9 516,61.1 507.4,56.1 507.4,51.9"/><polygon class="st57" points="526.9,50.6 526.9,54.8 516,61.1 515.9,56.9"/><polygon class="st57" points="515.9,53.6 516,57.2 507.4,52.3 507.4,48.6"/><polygon class="st57" points="526.9,47.3 526.9,50.9 516,57.2 515.9,53.6"/><polygon points="518.3,42.3 526.9,47.3 515.9,53.6 507.4,48.6" style="fill:#ff7110"/><path class="st53" d="M512.1,50.8c1.3,0.9,2.2,2.4,2.2,4v8.9l-12.4-7.2l0-11.5L512.1,50.8z"/><linearGradient id="SVGID_13_" gradientUnits="userSpaceOnUse" x1="493.3212" y1="15.2012" x2="504.5022" y2="34.564" gradientTransform="matrix(-1 0 0 -1 1010.7168 77)"><stop offset="0.23" style="stop-color:#f95300"/><stop offset="0.32" style="stop-color:#fb5f06"/><stop offset="0.41" style="stop-color:#ff7110"/><stop offset="0.68" style="stop-color:#ff690f"/></linearGradient><path d="M501.9,44.9l10.1,5.9c0.6,0.4,1.1,0.9,1.5,1.5c0.4,0.6,0.6,1.3,0.7,2c0,0.2,0,0.3,0,0.5v8.9l3-1.8l0-8.8l0,0 c0-0.8-0.2-1.5-0.6-2.2c-0.4-0.7-0.9-1.3-1.6-1.7L505,43.2L501.9,44.9z" style="fill:url(#SVGID_13_)"/><path d="M726.9,0H1L0,77h648.2c0.5,0,0.9,0,1.4,0.1L727,77L726.9,0z" style="fill:#f1f4f7"/><g style="opacity:.6"><linearGradient id="SVGID_14_" gradientUnits="userSpaceOnUse" x1="456.3898" y1="-55.5776" x2="456.3898" y2="51.9568" gradientTransform="matrix(-1 0 0 -1 1010.7168 77)"><stop offset="0.41" style="stop-color:#bacedc;stop-opacity:0"/><stop offset="1" style="stop-color:#bacedc"/></linearGradient><polygon points="645.2,77 555.7,25 463.5,76.5" style="fill:url(#SVGID_14_)"/></g><linearGradient id="SVGID_15_" gradientUnits="userSpaceOnUse" x1="283.2168" y1="38.5" x2="454.9968" y2="38.5" gradientTransform="matrix(-1 0 0 -1 1010.7168 77)"><stop offset="0" style="stop-color:#dae6ee;stop-opacity:0"/><stop offset="1" style="stop-color:#dae6ee"/></linearGradient><path d="M555.7-0.5V25l89,52h3.5c1.1,0,2.1,0.2,3,0.5h73.4L727,77l0.5-76.5L555.7-0.5z" style="opacity:.6;fill:url(#SVGID_15_);enable-background:new"/><linearGradient id="SVGID_16_" gradientUnits="userSpaceOnUse" x1="-209.8904" y1="-1005.5077" x2="-208.5656" y2="-1016.2836" gradientTransform="matrix(-0.87 -0.5 1 -0.58 1404.9069 -646.53)"><stop offset="0.46" style="stop-color:#92aabb;stop-opacity:0"/><stop offset="1" style="stop-color:#92aabb;stop-opacity:.8"/></linearGradient><polygon points="570.7,35.2 592.2,47.7 584.3,52.2 562.8,39.8" style="opacity:.8;fill:url(#SVGID_16_);enable-background:new"/><linearGradient id="SVGID_17_" gradientUnits="userSpaceOnUse" x1="-206.257" y1="-1049.7045" x2="-190.7449" y2="-1049.7045" gradientTransform="matrix(-0.87 -0.5 1 -0.58 1404.9069 -646.53)"><stop offset="0" style="stop-color:#92aabb;stop-opacity:0"/><stop offset="0.9" style="stop-color:#92aabb;stop-opacity:.3"/></linearGradient><polygon points="528.5,52.1 541.2,59.6 523.7,68.9 511,61.5" style="opacity:.8;fill:url(#SVGID_17_);enable-background:new"/><polygon class="st57" points="576.8,38.7 578.1,39.4 576.8,40.2 575.5,39.4"/><polygon class="st57" points="576.8,40.2 576.8,47.8 575.5,47.1 575.5,39.4"/><polygon class="st66" points="578.1,39.4 578.1,47.1 576.8,47.8 576.8,40.2"/><polygon class="st57" points="583.4,35.1 584.7,35.8 583.4,36.6 582.1,35.8"/><polygon class="st57" points="583.4,36.6 583.4,44.2 582.1,43.5 582.1,35.8"/><polygon class="st66" points="584.7,35.8 584.7,43.5 583.4,44.2 583.4,36.6"/><polygon class="st67" points="564.1,31.5 565.4,32.2 564.1,33 562.8,32.2"/><polygon class="st67" points="564.1,33 564.1,40.6 562.9,39.9 562.8,32.2"/><polygon class="st4" points="565.4,32.2 565.4,39.9 564.1,40.6 564.1,33"/><polygon class="st57" points="570.8,27.9 572,28.6 570.7,29.4 569.5,28.6"/><polygon class="st57" points="570.7,29.4 570.8,37 569.5,36.3 569.5,28.6"/><polygon class="st66" points="572,28.6 572.1,36.3 570.8,37 570.7,29.4"/><polygon class="st67" points="576.8,34 576.8,40.6 562.9,32.5 562.9,25.9"/><polygon class="st4" points="584.7,29.4 584.7,36.1 576.8,40.6 576.8,34"/><polygon class="st4" points="571.3,32.8 571.3,33.9 568.4,32.2 568.4,31.1"/><polygon class="st68" points="570.8,21.4 584.7,29.4 576.8,34 562.9,25.9"/><linearGradient id="SVGID_18_" gradientUnits="userSpaceOnUse" x1="455.016" y1="59.0429" x2="487.2528" y2="59.0429" gradientTransform="matrix(-1 0 0 -1 1010.7168 77)"><stop offset="0" style="stop-color:#e8f0f5"/><stop offset="5.000000e-02" style="stop-color:#dce7ee"/><stop offset="0.15" style="stop-color:#bccfdd"/><stop offset="0.16" style="stop-color:#bacedc"/><stop offset="0.2" style="stop-color:#bed1de"/><stop offset="0.25" style="stop-color:#c9d9e4"/><stop offset="0.28" style="stop-color:#dae6ee"/><stop offset="0.33" style="stop-color:#d4e2eb"/><stop offset="0.38" style="stop-color:#c4d5e2"/><stop offset="0.41" style="stop-color:#bacedc"/><stop offset="0.46" style="stop-color:#bed1de"/><stop offset="0.5" style="stop-color:#c9d9e4"/><stop offset="0.55" style="stop-color:#dae6ee"/><stop offset="0.6" style="stop-color:#cedde7"/><stop offset="0.67" style="stop-color:#bacedc"/><stop offset="0.74" style="stop-color:#bcd0dd"/><stop offset="0.77" style="stop-color:#c4d5e1"/><stop offset="0.79" style="stop-color:#d1dfe9"/><stop offset="0.8" style="stop-color:#dae6ee"/><stop offset="0.85" style="stop-color:#cedde7"/><stop offset="0.91" style="stop-color:#bacedc"/></linearGradient><path d="M555.7-0.5h-32.1v36.2c0.6-0.2,1.2-0.1,1.6,0.3c0.5,0.5,1.3,0.6,2.2,0.1c1-0.6,1.7-1.5,2.2-2.6 c0.5-1.1,1.2-2,2.2-2.6c0.9-0.5,1.7-0.4,2.2,0.1c0.5,0.5,1.3,0.6,2.2,0.1c1-0.6,1.7-1.5,2.2-2.6c0.5-1.1,1.2-2,2.2-2.6 c0.9-0.5,1.7-0.4,2.2,0.1c0.5,0.5,1.3,0.6,2.2,0.1c1-0.6,1.7-1.5,2.2-2.6c0.5-1.1,1.2-2,2.2-2.6c0.9-0.5,1.7-0.4,2.2,0.1 c0.5,0.5,1.3,0.6,2.2,0.1c1-0.6,1.7-1.5,2.2-2.6h0V-0.5z" style="opacity:.53;fill:url(#SVGID_18_);enable-background:new"/><linearGradient id="SVGID_19_" gradientUnits="userSpaceOnUse" x1="469.6364" y1="43.3972" x2="473.1685" y2="49.5161" gradientTransform="matrix(-1 0 0 -1 1010.7168 77)"><stop offset="0" style="stop-color:#92aabb;stop-opacity:0"/><stop offset="1" style="stop-color:#92aabb;stop-opacity:.4"/></linearGradient><path d="M525,36c-0.2-0.1-0.4-0.2-0.6-0.2c-0.5,0-1,0.4-1,0.9v7c0.6-0.2,32.3-18.9,32.3-18.9l-0.1-3.6 c0-0.4,0.1-3,0.1-3c-0.9,1.4-1.3,2-1.6,2.3c-0.2,0.2-0.4,0.3-0.6,0.4c-0.9,0.5-1.7,0.4-2.2-0.1l0,0c-0.5-0.5-1.3-0.6-2.2-0.1 c-1,0.6-1.7,1.5-2.2,2.6l0,0c-0.5,1.1-1.2,2-2.2,2.6c-0.9,0.5-1.7,0.4-2.2-0.1l0,0c-0.5-0.5-1.3-0.6-2.2-0.1 c-1,0.6-1.8,1.5-2.3,2.6l0,0c-0.5,1.1-1.2,2-2.2,2.6c-0.9,0.5-1.7,0.4-2.2-0.1l0,0c-0.5-0.5-1.3-0.6-2.2-0.1 c-1,0.6-1.7,1.5-2.2,2.6l0,0c-0.5,1.1-1.2,2-2.2,2.6C526.3,36.6,525.6,36.5,525,36L525,36L525,36z" style="opacity:.8;fill:url(#SVGID_19_);enable-background:new"/><linearGradient id="SVGID_20_" gradientUnits="userSpaceOnUse" x1="494.9761" y1="50.1304" x2="517.2625" y2="50.1304" gradientTransform="matrix(-1 0 0 -1 1010.7168 77)"><stop offset="0" style="stop-color:#dae6ee"/><stop offset="7.000000e-02" style="stop-color:#cedde7"/><stop offset="0.16" style="stop-color:#bacedc"/><stop offset="0.23" style="stop-color:#bed1de"/><stop offset="0.3" style="stop-color:#c9d9e4"/><stop offset="0.37" style="stop-color:#dae6ee"/><stop offset="0.46" style="stop-color:#d0dee8"/><stop offset="0.6" style="stop-color:#bacedc"/><stop offset="0.66" style="stop-color:#bed1de"/><stop offset="0.72" style="stop-color:#c9d9e4"/><stop offset="0.77" style="stop-color:#dae6ee"/><stop offset="0.87" style="stop-color:#cedde7"/><stop offset="1" style="stop-color:#bacedc"/></linearGradient><path d="M515.7-0.5h-20.2l0.1,54.7c0.2-0.1,0.4-0.1,0.5-0.2c1-0.6,1.7-1.5,2.2-2.6c0.5-1.1,1.2-2,2.2-2.6 c0.9-0.5,1.7-0.4,2.2,0.1c0.5,0.5,1.3,0.6,2.2,0.1c1-0.6,1.7-1.5,2.2-2.6c0.5-1.1,1.2-2,2.2-2.6c0.9-0.5,1.7-0.4,2.2,0.1 c0.5,0.5,1.3,0.6,2.2,0.1c1-0.6,1.7-1.5,2.2-2.6h0V-0.5z" style="opacity:.37;fill:url(#SVGID_20_);enable-background:new"/><linearGradient id="SVGID_21_" gradientUnits="userSpaceOnUse" x1="503.3617" y1="20.9595" x2="506.8701" y2="31.7574" gradientTransform="matrix(-1 0 0 -1 1010.7168 77)"><stop offset="0.1778" style="stop-color:#92aabb;stop-opacity:0"/><stop offset="1" style="stop-color:#92aabb;stop-opacity:.4"/></linearGradient><path d="M515.7,48l-0.1-3.6c0-0.4,0.1-3,0.1-3c-0.9,1.4-1.3,2-1.6,2.3c-0.2,0.2-0.4,0.3-0.6,0.4 c-0.9,0.5-1.7,0.4-2.2-0.1l0,0c-0.5-0.5-1.3-0.6-2.2-0.1c-1,0.6-1.7,1.5-2.2,2.6l0,0c-0.5,1.1-1.2,2-2.2,2.6 c-0.9,0.5-1.7,0.4-2.2-0.1l0,0c-0.5-0.5-1.3-0.6-2.2-0.1c-1,0.6-1.7,1.5-2.2,2.6l0,0c-0.5,1.1-1.2,2-2.2,2.6 c-0.2,0.1-0.4,0.2-0.5,0.2v5.5C500.1,57.3,515.7,48,515.7,48z" style="opacity:.8;fill:url(#SVGID_21_);enable-background:new"/><linearGradient id="SVGID_22_" gradientUnits="userSpaceOnUse" x1="367.1327" y1="49.7106" x2="370.493" y2="43.8878" gradientTransform="matrix(-1 0 0 -1 1010.7168 77)"><stop offset="0" style="stop-color:#eef6fe"/><stop offset="1" style="stop-color:#dae6ee"/></linearGradient><polygon points="645.3,28.3 645.3,36 638.5,32.1 638.5,24.4" style="fill:url(#SVGID_22_)"/><polygon class="st67" points="645.3,28.3 646.3,27.7 646.3,35.4 645.3,36"/><polygon class="st68" points="638.5,24.4 639.6,23.8 646.3,27.7 645.3,28.3"/><circle class="st68" cx="641.8" cy="27.3" r="0.1"/><circle class="st68" cx="640.5" cy="27" r="0.1"/><circle class="st68" cx="639.7" cy="27.6" r="0.1"/><circle class="st68" cx="641.8" cy="33.1" r="0.1"/><circle class="st68" cx="639.4" cy="28.8" r="0.1"/><circle class="st68" cx="639.8" cy="30.5" r="0.1"/><circle class="st68" cx="640.5" cy="31.9" r="0.1"/><circle class="st68" cx="643.1" cy="33.4" r="0.1"/><circle class="st68" cx="644" cy="32.8" r="0.1"/><circle class="st68" cx="644" cy="30" r="0.1"/><circle class="st68" cx="643.1" cy="28.5" r="0.1"/><circle class="st68" cx="644.3" cy="31.6" r="0.1"/><line class="st74" x1="642.7" y1="29.9" x2="641.8" y2="30.3"/><line class="st74" x1="641.8" y1="30.3" x2="640.2" y2="27.9"/><linearGradient id="SVGID_23_" gradientUnits="userSpaceOnUse" x1="352.5886" y1="-110.1978" x2="430.138" y2="24.1266" gradientTransform="matrix(-1 0 0 -1 1010.7168 77)"><stop offset="0.46" style="stop-color:#92aabb;stop-opacity:0"/><stop offset="0.52" style="stop-color:#92aabb;stop-opacity:3.000000e-02"/><stop offset="0.6" style="stop-color:#92aabb;stop-opacity:.11"/><stop offset="0.69" style="stop-color:#92aabb;stop-opacity:.25"/><stop offset="0.79" style="stop-color:#92aabb;stop-opacity:.44"/><stop offset="0.89" style="stop-color:#92aabb;stop-opacity:.68"/><stop offset="0.99" style="stop-color:#92aabb;stop-opacity:.98"/><stop offset="1" style="stop-color:#92aabb"/></linearGradient><polygon points="645.5,77 592.1,46.2 543.5,77" style="opacity:.8;fill:url(#SVGID_23_);enable-background:new"/><linearGradient id="SVGID_24_" gradientUnits="userSpaceOnUse" x1="312.3618" y1="-86.9736" x2="389.9113" y2="47.3508" gradientTransform="matrix(-1 0 0 -1 1010.7168 77)"><stop offset="0.46" style="stop-color:#92aabb;stop-opacity:0"/><stop offset="0.52" style="stop-color:#92aabb;stop-opacity:3.000000e-02"/><stop offset="0.6" style="stop-color:#92aabb;stop-opacity:.11"/><stop offset="0.69" style="stop-color:#92aabb;stop-opacity:.25"/><stop offset="0.79" style="stop-color:#92aabb;stop-opacity:.44"/><stop offset="0.89" style="stop-color:#92aabb;stop-opacity:.68"/><stop offset="0.99" style="stop-color:#92aabb;stop-opacity:.98"/><stop offset="1" style="stop-color:#92aabb"/></linearGradient><path d="M711,114.8c-6.6-0.9-13.3-1.7-20-2.5c-6.3-0.8-12.6-1.7-19-2.5c-1.6,1.6-3.9,2.5-6.4,2.7 c-1.5,0.1-2.9,0.3-4.3,0.4c0.3,2.7-0.6,5.5-2.6,7.4c-8.9,8.3-22.6,8.7-34.4,7.9l50.1,29l43.6-4.5l11.4-27.2L711,114.8z" style="opacity:.8;fill:url(#SVGID_24_);enable-background:new"/><polygon points="632.8,77 635.9,75.2 628,70.6 621.1,74.6 625.3,77" style="opacity:.46;fill:#dbeeff;enable-background:new"/><polygon points="617.2,77 621.1,74.8 613.2,70.2 606.3,74.2 611.2,77" style="opacity:.28;fill:#6d8494;enable-background:new"/><polygon class="st8" points="626.4,61.3 628.5,62.5 626.4,63.7 624.3,62.5"/><polygon class="st67" points="626.4,63.7 626.4,69.6 624.3,68.4 624.3,62.5"/><polygon class="st8" points="628.5,62.5 628.5,68.4 626.4,69.6 626.4,63.7"/><polygon class="st67" points="542.3,72.1 544.4,73.3 542.3,74.5 540.2,73.3"/><polygon class="st67" points="542.3,77 542.3,74.5 540.2,73.3 540.2,77"/><polygon class="st8" points="544.4,77 544.4,73.3 542.3,74.5 542.3,77"/><polygon class="st0" points="598.4,77 628.6,59.6 593.9,39.4 540.2,70.4 551.5,77"/><polygon class="st67" points="546.5,77 551.5,77 540.2,70.4 540.2,73.3"/><polygon class="st8" points="603.5,77 628.6,62.5 628.6,59.6 598.4,77"/><polygon class="st8" points="625.9,34.3 625.8,61.5 590.5,41.1 590.5,13.8"/><polygon class="st7" points="625.9,34.3 628.4,32.8 628.3,60.1 625.8,61.5"/><polygon class="st8" points="590.5,13.8 593.1,12.4 628.4,32.8 625.9,34.3"/><polygon class="st13" points="590.6,29.8 625.9,50.3 584.9,74 549.7,53.5"/><polygon class="st68" points="571,77 584.9,77 584.9,74 549.7,53.5 549.7,64.6"/><polygon class="st68" points="599,77 625.9,61.4 625.9,50.3 584.9,74 584.9,77"/><path class="st7" d="M626,34.5l2.5-1.4v-2.8C627,31.2,626.1,32.8,626,34.5z"/><path class="st4" d="M584.9,77l0-3l-0.4,0.2c-1.2,0.7-2.4,1.7-3.5,2.8H584.9z"/><polygon class="st67" points="578.7,36.7 613.9,57.2 584.9,74 549.7,53.5"/><polygon class="st8" points="599,77 613.9,68.3 613.8,57.2 584.9,74 584.9,77"/><path class="st68" d="M581.1,77c0.8-0.8,1.6-1.5,2.4-2.1l0.4-0.3l0.1,0c0.2-0.1,0.3-0.2,0.5-0.3l0.4-0.2l-0.1,0l23.3-13.4 l-35.2-20.5l-23.3,13.4L584.8,74l-35.2-20.3l-0.4,0.2c-0.2,0.1-0.3,0.2-0.5,0.3l-0.1,0.1l-0.3,0.2l-0.1,0.1l-0.3,0.2l-0.1,0.1 l-0.3,0.3l-0.1,0.1l-0.3,0.3l-0.1,0.1l-0.3,0.3l-0.1,0.1l-0.3,0.3l-0.1,0.1l-0.4,0.4l-0.1,0.1l-0.4,0.4c-1.2,1.4-2.3,3-3.1,4.6 c0,0-0.1,0.1-0.1,0.1c-0.1,0.2-0.2,0.3-0.3,0.5c-0.1,0.2-0.2,0.3-0.2,0.5c0,0,0,0.1,0,0.1c-0.8,1.8-1.3,3.8-1.5,5.7V69 c0,0.1,0,0.3,0,0.4v0.2c0,0,0,0.1,0,0.1v0.4l0,0.1v0.4l11.2,6.5H581.1z"/><polygon class="st4" points="598.9,77 608.1,71.7 608.1,60.5 584.9,74 584.9,77"/><path class="st4" d="M607.9,32.4c0,3.7-2.6,8.2-5.8,10l-3,1.7c0-3.7,2.6-8.2,5.8-10L607.9,32.4z"/><path class="st67" d="M585,36l14.1,8.2c0-0.8,0.1-1.7,0.4-2.5c0.4-1.4,1-2.8,1.8-4c0.8-1.2,1.8-2.3,3.1-3.2 c0.2-0.1,0.4-0.2,0.6-0.4l3-1.7l-14.1-8.2l-3,1.7l0,0c-0.8,0.4-1.4,1-2.1,1.6c-1.1,1.1-2,2.4-2.6,3.8C585.4,32.9,585,34.4,585,36z"/><path class="st4" d="M624.8,41.6c0,3.7-2.6,8.2-5.8,10l-3,1.7c0-3.7,2.6-8.2,5.8-10L624.8,41.6z"/><path class="st67" d="M601.8,45.2l14.2,8.2c0-0.8,0.1-1.7,0.4-2.5c0.4-1.4,1-2.8,1.8-4c0.8-1.2,1.8-2.3,3-3.2 c0.2-0.1,0.4-0.2,0.6-0.4l3-1.7l-14.1-8.2l-3,1.7l0,0c-0.8,0.4-1.4,1-2.1,1.6c-1.1,1.1-2,2.4-2.6,3.8 C602.2,42.1,601.9,43.6,601.8,45.2z"/><linearGradient id="SVGID_25_" gradientUnits="userSpaceOnUse" x1="400.2752" y1="57.2172" x2="402.7712" y2="52.8972" gradientTransform="matrix(-1 0 0 -1 1010.7168 77)"><stop offset="0" style="stop-color:#92aabb"/><stop offset="1" style="stop-color:#6d8494"/></linearGradient><path d="M590.5,13.9L626,34.5c0-0.8,0.3-1.6,0.7-2.4c0.4-0.8,1-1.5,1.8-1.9L592.9,9.7c-1.4,0.9-2.3,2.5-2.5,4.2 L590.5,13.9z" style="fill:url(#SVGID_25_)"/><polygon class="st4" points="585.2,77 585.2,73.8 584.4,74.4 584.4,77"/><linearGradient id="SVGID_26_" gradientUnits="userSpaceOnUse" x1="426.9699" y1="30.7058" x2="448.3971" y2="-6.4078" gradientTransform="matrix(-1 0 0 -1 1010.7168 77)"><stop offset="0.45" style="stop-color:#dae6ee"/><stop offset="0.63" style="stop-color:#fff"/><stop offset="0.82" style="stop-color:#dae6ee"/></linearGradient><path d="M581.1,77c0.8-0.8,1.6-1.6,2.5-2.2l0.4-0.3l0.1,0c0.2-0.1,0.3-0.2,0.5-0.3l0.4-0.2l-0.1,0l23.3-13.4L572.9,40 l-23.3,13.4l0,0.2l-0.4,0.2c-0.2,0.1-0.3,0.2-0.5,0.3l-0.1,0.1l-0.3,0.2l-0.1,0.1l-0.3,0.2l-0.1,0.1l-0.3,0.3l-0.1,0.1l-0.3,0.3 l-0.1,0.1l-0.3,0.3l-0.1,0.1l-0.3,0.3l-0.1,0.1l-0.4,0.4l-0.1,0.1l-0.4,0.4c-1.2,1.4-2.3,3-3.1,4.6c0,0-0.1,0.1-0.1,0.1 c-0.1,0.2-0.2,0.3-0.3,0.5c-0.1,0.2-0.2,0.3-0.2,0.5c0,0,0,0.1,0,0.1c-0.8,1.8-1.3,3.8-1.5,5.7V69c0,0.1,0,0.3,0,0.4v0.2 c0,0,0,0.1,0,0.1v0.8l11.3,6.5H581.1z" style="opacity:.4;fill:url(#SVGID_26_);enable-background:new"/><linearGradient id="SVGID_27_" gradientUnits="userSpaceOnUse" x1="401.6772" y1="27.5817" x2="394.3572" y2="40.2633" gradientTransform="matrix(-1 0 0 -1 1010.7168 77)"><stop offset="0.17" style="stop-color:#dae6ee"/><stop offset="0.63" style="stop-color:#fff"/><stop offset="0.94" style="stop-color:#dae6ee"/></linearGradient><path d="M601.8,45.2l14.2,8.2c0-0.8,0.1-1.7,0.4-2.5c0.4-1.4,1-2.8,1.8-4c0.8-1.2,1.8-2.3,3-3.2 c0.2-0.1,0.4-0.2,0.6-0.4l3-1.7l-14.1-8.2l-3,1.7l0,0c-0.8,0.4-1.4,1-2.1,1.6c-1.1,1.1-2,2.4-2.6,3.8 C602.2,42.1,601.9,43.6,601.8,45.2z" style="opacity:.4;fill:url(#SVGID_27_);enable-background:new"/><linearGradient id="SVGID_28_" gradientUnits="userSpaceOnUse" x1="418.5274" y1="36.7986" x2="411.2136" y2="49.4696" gradientTransform="matrix(-1 0 0 -1 1010.7168 77)"><stop offset="0.17" style="stop-color:#dae6ee"/><stop offset="0.63" style="stop-color:#fff"/><stop offset="0.94" style="stop-color:#dae6ee"/></linearGradient><path d="M585,36l14.1,8.2c0-0.8,0.1-1.7,0.4-2.5c0.4-1.4,1-2.8,1.8-4c0.8-1.2,1.8-2.3,3.1-3.2 c0.2-0.1,0.4-0.2,0.6-0.4l3-1.7l-14.1-8.2l-3,1.7l0,0c-0.8,0.4-1.4,1-2.1,1.6c-1.1,1.1-2,2.4-2.6,3.8C585.4,32.9,585,34.4,585,36z" style="opacity:.4;fill:url(#SVGID_28_);enable-background:new"/><polygon class="st67" points="635.1,72.8 636.4,73.6 635.1,74.3 633.8,73.6"/><polygon class="st67" points="635.1,77 635.1,74.3 633.8,73.6 633.8,77"/><polygon class="st4" points="636.4,77 636.4,73.6 635.1,74.3 635.1,77"/><polygon class="st4" points="641.8,69.2 643,70 641.7,70.7 640.5,70"/><polygon class="st67" points="641.8,77 641.7,70.7 640.5,70 640.5,77"/><polygon class="st4" points="643,77 643,70 641.7,70.7 641.8,77"/><polygon class="st57" points="629.1,62 630.4,62.8 629.1,63.5 627.8,62.8"/><polygon class="st57" points="629.1,63.5 629.1,71.2 627.8,70.4 627.8,62.8"/><polygon class="st66" points="630.4,62.8 630.4,70.4 629.1,71.2 629.1,63.5"/><polygon class="st67" points="635.1,68.1 635.2,74.7 621.2,66.7 621.2,60"/><polygon class="st4" points="643,63.6 643,70.2 635.2,74.7 635.1,68.1"/><polygon class="st4" points="629.6,67 629.6,68.1 626.7,66.4 626.7,65.3"/><polygon class="st68" points="629.1,55.5 643,63.6 635.1,68.1 621.2,60"/><path class="st67" d="M570.9,26.2v0.5c0,0.2,0,0.4,0,0.6c0.2,0.6,0.9,0.9,1.5,1c0.6,0.1,1.3,0.1,1.9-0.1c0.6-0.2,1.3-0.5,1.3-1.2 c0-0.3,0-0.6,0-0.9c0,0.4-0.3,0.8-0.6,1c-0.7,0.4-1.6,0.5-2.4,0.4C572,27.4,571,27.1,570.9,26.2L570.9,26.2z"/><linearGradient id="SVGID_29_" gradientUnits="userSpaceOnUse" x1="436.6234" y1="52.2533" x2="438.3096" y2="49.3324" gradientTransform="matrix(-1 0 0 -1 1010.7656 77.043)"><stop offset="0" style="stop-color:#eef6fe"/><stop offset="1" style="stop-color:#dae6ee"/></linearGradient><path d="M573.3,27.6c-1.3,0-2.4-0.6-2.4-1.4c0-0.8,1.1-1.4,2.4-1.4c1.3,0,2.4,0.6,2.4,1.4S574.6,27.6,573.3,27.6z" style="fill:url(#SVGID_29_)"/><path class="st67" d="M572.9,26.2L572.9,26.2c0,0,0.1,0.1,0.1,0.1c0.2,0.1,0.3,0.1,0.5,0c0,0,0.1,0,0.1-0.1l0,0v-5.4h-0.7 L572.9,26.2z"/><ellipse transform="matrix(2.792512e-03 -1 1 2.792512e-03 556.7605 588.1693)" class="st67" cx="573.3" cy="14.9" rx="1.1" ry="2"/><linearGradient id="SVGID_30_" gradientUnits="userSpaceOnUse" x1="433.4448" y1="58.6157" x2="441.4128" y2="58.6157" gradientTransform="matrix(-1 0 0 -1 1010.7168 77)"><stop offset="0.15" style="stop-color:#bacedc"/><stop offset="0.24" style="stop-color:#c6d7e3"/><stop offset="0.4" style="stop-color:#d5e2eb"/><stop offset="0.53" style="stop-color:#dae6ee"/><stop offset="0.69" style="stop-color:#d5e2eb"/><stop offset="0.88" style="stop-color:#c7d7e3"/><stop offset="1" style="stop-color:#bacedc"/></linearGradient><path d="M570.3,21.3c0.6,0.4,1.2,0.6,1.9,0.7c1.2,0.2,2.3,0.1,3.4-0.3c1-0.4,2-1.3,1.6-2.4c-0.6-1.6-1.3-3.1-1.9-4.6 l0,0c0,0.1,0.1,0.2,0,0.4c0,0.1-0.1,0.2-0.1,0.3c-0.2,0.3-0.5,0.5-0.8,0.6c-0.6,0.2-1.3,0.2-1.9,0c-0.5-0.2-1.2-0.6-1-1.3 c-0.2,0.5-0.4,1-0.7,1.5l-0.8,1.9c-0.1,0.3-0.2,0.6-0.4,0.8c-0.2,0.3-0.3,0.6-0.3,1C569.4,20.5,569.7,21,570.3,21.3z" style="fill:url(#SVGID_30_)"/><polygon class="st4" points="638.7,61 632.9,64.3 638.7,56.8"/><linearGradient id="SVGID_31_" gradientUnits="userSpaceOnUse" x1="379.8967" y1="13.8555" x2="375.1913" y2="22.0133" gradientTransform="matrix(-1 0 0 -1 1010.7168 77)"><stop offset="0" style="stop-color:#bacedc"/><stop offset="1" style="stop-color:#dae6ee"/></linearGradient><polygon points="632.9,64.3 627.7,61.3 633.5,53.8 638.7,56.8" style="fill:url(#SVGID_31_)"/><polygon class="st4" points="631.6,61.1 631.2,60.8 631.6,60.2 632,60.5"/><polygon class="st4" points="630.8,60.6 630.4,60.3 630.8,59.7 631.3,60"/><polygon class="st4" points="630,60.1 629.6,59.9 630.1,59.3 630.5,59.5"/><polygon class="st4" points="632.2,60.3 631.8,60 632.3,59.4 632.7,59.7"/><polygon class="st4" points="631.4,59.8 631,59.6 631.5,59 631.9,59.2"/><polygon class="st4" points="630.6,59.3 630.2,59.1 630.7,58.5 631.1,58.7"/><polygon class="st4" points="632.8,59.5 632.4,59.2 632.9,58.6 633.3,58.9"/><polygon class="st4" points="632.1,59 631.6,58.8 632.1,58.2 632.5,58.4"/><polygon class="st4" points="631.3,58.5 630.9,58.3 631.3,57.7 631.7,57.9"/><linearGradient id="SVGID_32_" gradientUnits="userSpaceOnUse" x1="374.7499" y1="20.6593" x2="378.5516" y2="14.0688" gradientTransform="matrix(-1 0 0 -1 1010.7168 77)"><stop offset="0" style="stop-color:#dae6ee"/><stop offset="1" style="stop-color:#bacedc"/></linearGradient><path d="M631.3,62c0,0.2,0.1,0.4,0.2,0.5l1.4,0.8c-0.2-0.3-0.2-0.6-0.1-1c0-0.3,0.1-0.6,0.3-0.9l0.1-0.1l2.8-3.6l0,0 c0.3-0.4,0.9-0.9,1.4-0.6l-0.4-0.2l-0.6-0.4c-0.1-0.1-0.2-0.2-0.4-0.2c-0.5-0.2-1,0.3-1.3,0.6v0l0.7,0.4l-0.7-0.4l-2.9,3.8l0.1-0.1 c-0.1,0.1-0.3,0.3-0.3,0.4l0.1-0.1C631.4,61.2,631.3,61.6,631.3,62z" style="fill:url(#SVGID_32_)"/><path class="st4" d="M637.5,57.3l-1.4,1.9c-0.2-0.3-0.5,0.1-0.7,0.3l-0.8,1c-0.1,0.1-0.2,0.2-0.3,0.4c-0.2,0.2-0.2,0.5,0,0.6 l-1.4,1.9c-0.2-0.4-0.2-0.8,0-1.2c0.1-0.3,0.2-0.5,0.4-0.8c0.6-0.7,1-1.3,1.6-2.1l0.9-1.2c0.2-0.3,0.5-0.6,0.8-0.9 C636.8,57,637.2,57,637.5,57.3z"/><linearGradient id="SVGID_33_" gradientUnits="userSpaceOnUse" x1="-284.641" y1="-1017.8241" x2="-267.289" y2="-1017.8241" gradientTransform="matrix(-0.87 -0.5 1 -0.58 1404.9069 -646.53)"><stop offset="0" style="stop-color:#51697a;stop-opacity:0"/><stop offset="0.9" style="stop-color:#2a3945"/></linearGradient><polygon points="621,77 618.8,75.8 616.7,77" style="opacity:.72;fill:url(#SVGID_33_);enable-background:new"/><polygon class="st57" points="622.5,65.6 623.7,66.4 622.4,67.1 621.2,66.4"/><polygon class="st57" points="622.4,67.1 622.5,74.8 621.2,74 621.2,66.4"/><polygon class="st66" points="623.7,66.4 623.8,74 622.5,74.8 622.4,67.1"/><defs><path id="SVGID_34_" d="M622.7,82.3l-2.4-1.4c0.1-0.1,0.3-0.1,0.5,0l2.4,1.4C623.1,82.1,622.9,82.2,622.7,82.3z"/></defs><clipPath id="SVGID_35_"><use xlink:href="#SVGID_34_" style="overflow:visible"/></clipPath><defs><path id="SVGID_36_" d="M619.7,82c0-0.5,0.3-0.9,0.7-1.1l2.4,1.4c-0.4,0.3-0.6,0.7-0.6,1.1c0,0.2,0.1,0.3,0.2,0.4l-2.4-1.4 C619.7,82.3,619.7,82.2,619.7,82z"/></defs><clipPath id="SVGID_37_"><use xlink:href="#SVGID_36_" style="overflow:visible"/></clipPath><defs><path id="SVGID_38_" d="M626.3,80.1l-2.4-1.4c0.1-0.1,0.3-0.1,0.5,0l2.4,1.4C626.6,80,626.5,80,626.3,80.1z"/></defs><clipPath id="SVGID_39_"><use xlink:href="#SVGID_38_" style="overflow:visible"/></clipPath><defs><path id="SVGID_40_" d="M623.2,79.9c0-0.5,0.3-0.9,0.7-1.1l2.4,1.4c-0.4,0.3-0.6,0.7-0.6,1.1c0,0.2,0.1,0.3,0.2,0.4l-2.4-1.4 C623.3,80.2,623.2,80,623.2,79.9z"/></defs><clipPath id="SVGID_41_"><use xlink:href="#SVGID_40_" style="overflow:visible"/></clipPath><defs><path id="SVGID_42_" d="M615.4,78.4L613,77c0.1-0.1,0.3-0.1,0.5,0l2.4,1.4C615.7,78.3,615.5,78.3,615.4,78.4z"/></defs><clipPath id="SVGID_43_"><use xlink:href="#SVGID_42_" style="overflow:visible"/></clipPath><defs><path id="SVGID_44_" d="M612.3,78.1c0-0.5,0.3-0.9,0.7-1.1l2.4,1.4c-0.4,0.3-0.6,0.7-0.6,1.1c0,0.2,0.1,0.3,0.2,0.4l-2.4-1.4 C612.4,78.4,612.3,78.3,612.3,78.1z"/></defs><clipPath id="SVGID_45_"><use xlink:href="#SVGID_44_" style="overflow:visible"/></clipPath><polygon class="st10" points="623.9,56.1 624.5,56.5 623.9,56.9 623.3,56.5"/><polygon class="st68" points="624.5,56.5 624.5,65.3 623.9,65.7 623.9,56.9"/><polygon class="st13" points="623.9,56.9 623.9,65.7 623.3,65.3 623.3,56.5"/><polygon class="st10" points="620.6,54.3 621.2,54.6 620.6,55 619.9,54.6"/><polygon class="st68" points="621.2,54.6 621.2,63.4 620.6,63.8 620.6,55"/><polygon class="st13" points="620.6,55 620.6,63.8 619.9,63.4 619.9,54.6"/><polygon class="st7" points="621,77 621,73.3 612.8,68.5 612.9,77"/><polygon class="st7" points="624.4,67.4 616.2,62.6 618.3,61.4 626.5,66.1"/><path class="st10" d="M626.5,77l0-10.9l-2.1,1.2c-2,1.3-3.3,3.5-3.4,5.9V77H626.5z"/><linearGradient id="SVGID_46_" gradientUnits="userSpaceOnUse" x1="394.1826" y1="6.2975" x2="390.7698" y2="12.2111" gradientTransform="matrix(-1 0 0 -1 1010.7168 77)"><stop offset="0" style="stop-color:#51697a"/><stop offset="0.36" style="stop-color:#6d8494"/><stop offset="1" style="stop-color:#51697a"/></linearGradient><path d="M624.4,67.4l-8.1-4.7c-0.4,0.3-0.8,0.6-1.2,0.9c-0.7,0.7-1.2,1.5-1.6,2.4c-0.4,0.8-0.6,1.7-0.6,2.6l8.1,4.7 c0-0.5,0.1-0.9,0.2-1.4c0.4-1.7,1.4-3.3,2.9-4.3C624.1,67.5,624.2,67.4,624.4,67.4z" style="fill:url(#SVGID_46_)"/><polygon class="st10" points="620.5,53.4 624.6,55.8 624,56.2 619.9,53.8"/><polygon points="624,56.2 624,56.9 619.9,54.6 619.9,53.8" style="fill:#17232c"/><polygon class="st9" points="624,56.9 624.6,56.5 624.6,55.8 624,56.2"/><polygon points="616.2,62.6 616.3,62.7 624.4,67.3 624,67.6 616,63 615.9,62.9" style="opacity:.31;fill:#1e2931;enable-background:new"/><polygon class="st50" points="624.4,77 624.4,67.3 624,67.6 624,77"/><path class="st50" d="M619.3,63.7l1.7,1l1.6,0.9l-0.7,0.4l-1.6-0.9l-1.7-1L619.3,63.7z"/><path class="st67" d="M525.9,42.9c1.3,0.9,2.2,2.3,2.3,3.9v8.9l-12.4-7.2l0-11.5L525.9,42.9z"/><linearGradient id="SVGID_47_" gradientUnits="userSpaceOnUse" x1="477.7801" y1="26.0919" x2="496.683" y2="37.0082" gradientTransform="matrix(-1 0 0 -1 1010.7168 77)"><stop offset="0.13" style="stop-color:#bacedc"/><stop offset="0.28" style="stop-color:#c8d9e4"/><stop offset="0.49" style="stop-color:#d6e3eb"/><stop offset="0.68" style="stop-color:#dae6ee"/></linearGradient><path d="M515.8,37l10.1,5.9c0.6,0.4,1.1,0.9,1.5,1.5c0.4,0.6,0.6,1.3,0.8,2c0,0.2,0,0.3,0,0.5v8.9l3-1.8V45l0,0 c0-0.8-0.2-1.5-0.6-2.2c-0.4-0.7-0.9-1.3-1.6-1.7l-10.1-5.9L515.8,37z" style="fill:url(#SVGID_47_)"/><linearGradient id="SVGID_48_" gradientUnits="userSpaceOnUse" x1="496.2603" y1="28.0961" x2="503.4392" y2="40.5297" gradientTransform="matrix(-1 0 0 -1 1010.7168 77)"><stop offset="0" style="stop-color:#bacedc"/><stop offset="0.28" style="stop-color:#c8d9e4"/><stop offset="0.65" style="stop-color:#d6e3eb"/><stop offset="1" style="stop-color:#dae6ee"/></linearGradient><path d="M512.2,33.6c3.5-2,6.3-0.4,6.3,3.6v9.4L505.7,54l0-9.4c0-4,2.8-8.8,6.2-10.8L512.2,33.6z" style="fill:url(#SVGID_48_)"/><linearGradient id="SVGID_49_" gradientUnits="userSpaceOnUse" x1="497.8492" y1="45.9781" x2="509.6016" y2="25.6253" gradientTransform="matrix(-1 0 0 -1 1010.7168 77)"><stop offset="0.23" style="stop-color:#eef6fe"/><stop offset="0.76" style="stop-color:#bacedc"/></linearGradient><path d="M501.9,42.5l0,9.4l3.7,2.2l0-9.4c0-1.4,0.3-2.8,0.8-4.1c0.9-2.3,2.3-4.3,4.2-5.9c0.8-0.7,1.7-1.2,2.6-1.6 c1.1-0.5,2.3-0.4,3.4,0.1l-0.8-0.5l-2.6-1.5c-0.4-0.2-0.8-0.4-1.2-0.5c-0.9-0.2-1.8,0-2.6,0.3c-0.2,0.1-0.5,0.2-0.7,0.3 c-0.1,0.1-0.3,0.2-0.4,0.2c-1.4,0.8-2.7,2-3.6,3.3l0,0c-0.4,0.5-0.7,1-1,1.6C502.6,38.3,502,40.4,501.9,42.5L501.9,42.5z" style="fill:url(#SVGID_49_)"/><polygon class="st68" points="518.3,45.6 526.9,50.6 515.9,56.9 507.4,51.9"/><polygon class="st67" points="515.9,56.9 516,61.1 507.4,56.1 507.4,51.9"/><polygon class="st67" points="526.9,50.6 526.9,54.8 516,61.1 515.9,56.9"/><polygon class="st67" points="515.9,53.6 516,57.2 507.4,52.3 507.4,48.6"/><polygon class="st67" points="526.9,47.3 526.9,50.9 516,57.2 515.9,53.6"/><polygon class="st68" points="518.3,42.3 526.9,47.3 515.9,53.6 507.4,48.6"/><path class="st67" d="M512.1,50.8c1.3,0.9,2.2,2.4,2.2,4v8.9l-12.4-7.2l0-11.5L512.1,50.8z"/><linearGradient id="SVGID_50_" gradientUnits="userSpaceOnUse" x1="493.3212" y1="15.2012" x2="504.5022" y2="34.564" gradientTransform="matrix(-1 0 0 -1 1010.7168 77)"><stop offset="0.13" style="stop-color:#bacedc"/><stop offset="0.28" style="stop-color:#c8d9e4"/><stop offset="0.49" style="stop-color:#d6e3eb"/><stop offset="0.68" style="stop-color:#dae6ee"/></linearGradient><path d="M501.9,44.9l10.1,5.9c0.6,0.4,1.1,0.9,1.5,1.5c0.4,0.6,0.6,1.3,0.7,2c0,0.2,0,0.3,0,0.5v8.9l3-1.8l0-8.8l0,0 c0-0.8-0.2-1.5-0.6-2.2c-0.4-0.7-0.9-1.3-1.6-1.7L505,43.2L501.9,44.9z" style="fill:url(#SVGID_50_)"/><line class="st1" x1="591.4" y1="44.4" x2="591.4" y2="34.5"/><linearGradient id="SVGID_51_" gradientUnits="userSpaceOnUse" x1="577.9046" y1="-228.0137" x2="577.9046" y2="-217.2041" gradientTransform="matrix(-0.87 0.5 -1 -0.58 868.5768 -357.04)"><stop offset="0" style="stop-color:#51697a;stop-opacity:0"/><stop offset="0.9" style="stop-color:#2a3945"/></linearGradient><polygon points="576.5,62.5 591.4,54.6 601.8,60.4 586.8,68.3" style="opacity:.49;fill:url(#SVGID_51_);enable-background:new"/><linearGradient id="SVGID_52_" gradientUnits="userSpaceOnUse" x1="577.3415" y1="-215.1449" x2="577.3415" y2="-208.4825" gradientTransform="matrix(-0.87 0.5 -1 -0.58 868.5768 -357.04)"><stop offset="0" style="stop-color:#51697a;stop-opacity:0"/><stop offset="0.9" style="stop-color:#2a3945"/></linearGradient><polygon points="569,56.7 582.6,49.5 588.7,53.1 575.1,60.3" style="opacity:.49;fill:url(#SVGID_52_);enable-background:new"/><path class="st67" d="M586.5,51.9c-0.4,0.7-1,1.2-1.7,1.6c-0.3,0.1-0.6,0.2-0.8,0.1l-2.8-0.6l1.1-2L586.5,51.9z"/><polygon class="st68" points="581.2,52.9 579.7,51.8 580.8,49.8 582.3,50.9"/><polygon class="st13" points="582.3,50.9 580.8,49.8 585,50.7 586.5,51.9"/><path class="st7" d="M580,51.2c1.4-0.6,2.4,0.1,2.2,1.5l-11.8,4.6c-0.2,0.1-0.3,0.1-0.5,0c-0.5-0.1-0.8-0.6-0.7-1.1 c0.1-0.7,0.9-1.2,1.6-1.5L580,51.2z"/><path class="st8" d="M569.4,57.1c-0.7-0.8,1-2.1,1.6-2.3c1.2-0.5,2.4-0.9,3.6-1.4l3.7-1.4c0.9-0.4,2.5-1.4,3.5-0.6 c-1.1-0.9-2-2-3.5-1.5c-1.3,0.4-2.5,1-3.8,1.5c-1.3,0.5-2.7,0.9-4,1.5C567.6,54.3,568.9,56.5,569.4,57.1z"/><circle class="st9" cx="582" cy="48.3" r="4.4"/><g><path class="st10" d="M572.1,52.8c0.2-0.2,0.2-0.2,0.5-0.4l3.1-2.9l2.3-2.2l0.4-0.4c0.3-0.3,0.7-0.5,1.1-0.7 c0.5-0.3,1-0.2,1.4,0.1l-0.1-0.1l-1.6-1.6c-0.2-0.2-0.3-0.3-0.5-0.5c-0.4-0.3-0.8-0.4-1.3-0.2c-0.5,0.2-1,0.5-1.4,0.9l-1,0.9 l-3.5,3.2c-0.7,0.7-1.2,1.1-1.9,1.8"/></g><path class="st9" d="M572.2,52.7l6.3-5.8c0.4-0.4,0.8-0.6,1.3-0.8c0.4-0.2,0.9-0.1,1.2,0.2c0.5,0.6,0.1,1.7-0.8,2.6l-6.6,6.1"/><path class="st7" d="M573.6,55l-2.5,1.9c-1.1,1-2.6,0-1.5-1.8l2.6-2.4"/><path class="st8" d="M570,50.8c-0.4,0.4-1.8,1.5-2.2,1.9c-1.2,1.4-0.7,2.8,0.3,3.7c0.5,0.4,1.1,0.8,1.8,1c0,0-1.9-1.6,2.3-4.6"/><path class="st67" d="M593.1,55.4c-0.3,0.7-0.8,1.4-1.4,1.8c-0.2,0.2-0.5,0.2-0.8,0.2l-2.9-0.2l0.8-2.1L593.1,55.4z"/><polygon class="st68" points="587.9,57.2 586.3,56.2 587.1,54.1 588.8,55"/><polygon class="st13" points="588.8,55 587.1,54.1 591.4,54.5 593.1,55.4"/><g><path class="st7" d="M586.3,55.7c1.3-0.8,2.4-0.2,2.4,1.2L578,62.6c-0.7,0.4-1.8,0.1-1.8-0.6c0-0.7,0.8-1.2,1.5-1.6L586.3,55.7z"/><path class="st8" d="M576.5,62.6c-1.1-0.7,0.8-1.8,1.4-2.2c1.1-0.7,2.2-1.3,3.4-1.9l3.5-1.9c0.9-0.5,2.4-1.5,3.5-0.9 c-1.2-0.7-1.9-1.1-3.7-0.7c-1.3,0.3-2.5,0.9-3.6,1.5l-3.7,2.1c-1.1,0.6-1.1,0.5-1.8,1.8C575.4,61.3,575.8,62.2,576.5,62.6z"/></g><path class="st8" d="M581.9,11.9l-0.5-3.3c-0.8,0.1-1.4,0.7-1.4,1.5c-0.1,0.9,0.6,1.7,1.5,1.8C581.6,11.9,581.8,11.9,581.9,11.9z"/><path class="st8" d="M581.5,8.8l-0.2-1.4c-0.3,0-0.6,0.3-0.6,0.6c0,0.4,0.3,0.7,0.6,0.8C581.4,8.8,581.5,8.8,581.5,8.8z"/><g><path class="st10" d="M578.5,57c0.2-0.3,0.2-0.3,0.4-0.5l2.2-3.6l1.7-2.7l0.3-0.5c0.2-0.4,0.5-0.7,0.8-1c0.4-0.3,0.9-0.6,1.4-0.3 l-0.1-0.1l-2-1.1c-0.2-0.1-0.4-0.2-0.6-0.3c-0.4-0.2-0.9-0.1-1.3,0.2c-0.5,0.3-0.8,0.7-1.1,1.2l-0.7,1.1l-2.5,4 c-0.5,0.8-0.9,1.4-1.4,2.2"/></g><path class="st9" d="M578.6,56.9l4.5-7.3c0.3-0.5,0.6-0.8,1.1-1.1c0.3-0.3,0.8-0.3,1.2-0.1c0.6,0.4,0.6,1.6-0.1,2.7l-4.7,7.6"/><path class="st7" d="M580.6,58.7l-1.7,2.7c-0.3,0.5-0.6,0.8-1.1,1.1c-0.3,0.3-0.8,0.3-1.2,0.1c-0.6-0.4-0.6-1.6,0.1-2.7l1.8-3"/><path class="st8" d="M575.8,55.7c-0.3,0.5-0.9,1.1-1.1,1.6c-2,3.7,1.1,4.8,2,5.4c-0.2-0.1-0.4-0.4-0.4-0.6c-0.3-1,0.4-2,0.9-2.8 c0.4-0.7,1-1.7,1.4-2.4"/><polygon class="st10" points="572.2,52.7 579.2,45.4 582.2,46.7 575.8,55.4 579,48.6"/><g><path class="st11" d="M579.6,31.1c0,0.3,0.1,0.7,0.4,0.9c0.4,0.2,0.3,0.2,0.7,0.4l0.9,0.5l0,0c-0.3-0.2-0.4-0.5-0.4-0.9 L579.6,31.1z"/><path class="st12" d="M584,26.2v4.2c-0.1,1-0.6,1.8-1.4,2.4c-0.8,0.4-1.4,0.1-1.4-0.8v-4.2L584,26.2z"/><polygon class="st11" points="581.3,32 579.6,31.1 579.2,26.6 581.3,27.8"/><polygon class="st11" points="581.3,27.8 579.2,26.6 582,25 584,26.2"/></g><path class="st8" d="M581.3,27.8l-1.4-0.9c0,0-0.3-7.6-0.2-8.9c0.1-4.3,1.3-6.2,1.3-6.2l0.9,0.2L581.3,27.8z"/><path class="st7" d="M581.9,12l1.3,14.6l-1.9,1.2c0,0-0.4-6.1-0.4-8.2C580.7,12.1,581.9,12,581.9,12z"/><g><path class="st11" d="M586.4,30.1c-1.2-0.7-2.2-1.6-3.5-0.8l1.7,1c0.3-0.2,0.7-0.3,1-0.3C585.8,29.9,586.1,29.9,586.4,30.1z"/><polygon class="st11" points="577.7,44.9 576,44 580.6,32 582.3,33"/><path class="st13" d="M585.9,29.9c1.2,0.1,1.6,1.7,0.9,3.5l-4.6,11.9l-4.5-0.4l4.6-11.9c0.4-1.1,1.2-2.1,2.2-2.8 C584.9,30,585.4,29.9,585.9,29.9z"/><path class="st11" d="M584.6,30.2l-1.7-1c-1,0.6-1.8,1.6-2.2,2.8l1.7,1c0.4-1,1.1-1.9,1.9-2.6C584.3,30.4,584.4,30.3,584.6,30.2z"/></g><path class="st9" d="M585.5,48.1c0,0.7-2.9,2.2-2.9,2.2c1.5-2.2,0.4-3.4,0.4-3.4S585.5,47.4,585.5,48.1z"/><g><polygon class="st14" points="581.1,46.9 577.7,44.9 582.3,33 585.7,35"/><path class="st15" d="M589.3,31.9c1.2,0.1,1.7,1.7,0.9,3.5l-4.6,12l-4.5-0.4l4.7-11.9c0.4-1.1,1.2-2.1,2.2-2.8 C588.3,32,588.8,31.9,589.3,31.9z"/><path class="st15" d="M582.3,33l3.4,2c0.4-1,1.1-1.9,1.9-2.5c0.1-0.1,0.2-0.1,0.3-0.2c0.3-0.2,0.7-0.3,1-0.3c0.3,0,0.6,0,0.8,0.2 l-0.6-0.4l-2.3-1.3l-0.6-0.3c-0.6-0.3-1.3-0.2-1.8,0.2C583.5,30.9,582.7,31.9,582.3,33z"/></g><g><path class="st11" d="M591.5,33c-1.2-0.7-2.2-1.6-3.5-0.8l1.7,1c0.3-0.2,0.7-0.3,1-0.3C591,32.8,591.3,32.9,591.5,33z"/><polygon class="st11" points="582.8,47.9 581.1,46.9 585.8,35 587.5,35.9"/><path class="st12" d="M591,32.8c1.2,0.1,1.7,1.7,0.9,3.5l-4.6,12l-4.5-0.4l4.7-11.9c0.4-1.1,1.2-2.1,2.2-2.8 C590.1,32.9,590.5,32.8,591,32.8z"/><path class="st11" d="M589.7,33.2l-1.7-1c-1,0.6-1.8,1.6-2.2,2.8l1.7,1c0.4-1,1.1-1.9,1.9-2.6C589.5,33.3,589.6,33.3,589.7,33.2z"/></g><path class="st16" d="M590.7,32.5c-3,0-3.2,5.8-3.2,5.8v8.2"/><path class="st8" d="M586.6,40.1c-0.1,0.7,0.6,1.1,0.6,0.9c0.2-1.4,7.7-2.1,8.6-2.2l2.5-0.4l0.7-0.1c0.3-0.1,0.5,0,0.7,0.1 l-0.1-0.1c-0.4-0.4-2.9-0.9-3.5-0.8C595,37.7,586.9,38,586.6,40.1z"/><path class="st7" d="M599.1,38.3c0.6-0.1,0.9,0.4,0.7,1c-0.3,0.6-0.8,1.1-1.4,1.3l-0.2,0l-10.8,0.6c-0.6,0.1-1-0.4-0.6-1 C587.8,38.8,599.1,38.3,599.1,38.3z"/><g><defs><path id="SVGID_53_" d="M599.5,37.8l-1.9-1.2c0,0,0.1,0,0.1,0L599.5,37.8L599.5,37.8z"/></defs><clipPath id="SVGID_54_"><use xlink:href="#SVGID_53_" style="overflow:visible"/></clipPath><path class="st18" d="M599.6,37.9L599.6,37.9l-2-1.2c0,0,0.1,0,0.1,0L599.6,37.9"/></g><polygon class="st7" points="593,35 591.2,33.8 597.6,36.6 599.5,37.8"/><g><defs><path id="SVGID_55_" d="M592.2,35.1l-1.9-1.2c0.2-0.1,0.5-0.2,0.8-0.1L593,35C592.8,34.9,592.5,34.9,592.2,35.1z"/></defs><clipPath id="SVGID_56_"><use xlink:href="#SVGID_55_" style="overflow:visible"/></clipPath><g style="clip-path:url(#SVGID_56_)"><path class="st18" d="M593,35L593,35l-1.9-1.2l0,0L593,35"/><path class="st20" d="M593,35L593,35l-2-1.2c0,0,0.1,0,0.1,0L593,35"/><path class="st21" d="M592.9,34.9L592.9,34.9l-1.9-1.2h0.1L592.9,34.9"/><path class="st22" d="M592.9,34.9L592.9,34.9l-1.9-1.2h0.1L592.9,34.9"/><path class="st23" d="M592.8,34.9L592.8,34.9l-1.9-1.2c0,0,0,0,0.1,0L592.8,34.9"/><path class="st24" d="M592.7,34.9L592.7,34.9l-1.9-1.2h0L592.7,34.9"/><path class="st25" d="M592.7,34.9L592.7,34.9l-1.9-1.2h0.1L592.7,34.9"/><path class="st26" d="M592.6,34.9L592.6,34.9l-1.9-1.2h0.1L592.6,34.9"/><path class="st27" d="M592.6,34.9L592.6,34.9l-1.9-1.2h0.1L592.6,34.9"/><path class="st28" d="M592.5,34.9L592.5,34.9l-1.9-1.2h0L592.5,34.9"/><path class="st29" d="M592.5,35L592.5,35l-1.9-1.2h0L592.5,35"/><path class="st30" d="M592.4,35L592.4,35l-1.9-1.2h0L592.4,35"/><path class="st31" d="M592.4,35L592.4,35l-1.9-1.2h0L592.4,35"/><path class="st32" d="M592.3,35L592.3,35l-1.9-1.2h0L592.3,35"/><path class="st33" d="M592.3,35.1L592.3,35.1l-1.9-1.2h0L592.3,35.1"/></g></g><g><defs><path id="SVGID_57_" d="M589.6,34.7c0.2-0.3,0.5-0.6,0.8-0.8l1.9,1.2c-0.3,0.2-0.6,0.5-0.8,0.8c-0.4,0.7-0.3,1.4,0.1,1.6 l-1.9-1.2C589.2,36,589.2,35.3,589.6,34.7z"/></defs><clipPath id="SVGID_58_"><use xlink:href="#SVGID_57_" style="overflow:visible"/></clipPath><g style="clip-path:url(#SVGID_58_)"><path class="st33" d="M592.2,35.1L592.2,35.1l-1.9-1.2l0,0L592.2,35.1"/><path class="st35" d="M592.2,35L592.2,35l-1.9-1.2h0L592.2,35"/><path class="st36" d="M592.2,35.1L592.2,35.1l-1.9-1.2l0,0L592.2,35.1"/><path class="st37" d="M592.1,35.1L592.1,35.1l-1.9-1.2l0,0L592.1,35.1"/><path class="st38" d="M592.1,35.1L592.1,35.1l-1.9-1.2l0,0L592.1,35.1"/><path class="st39" d="M592,35.2L592,35.2l-1.9-1.2l0,0L592,35.2"/><path class="st40" d="M592,35.2L592,35.2l-1.9-1.2c0,0,0,0,0,0L592,35.2"/><path class="st41" d="M591.9,35.3L591.9,35.3l-1.9-1.2c0,0,0,0,0,0L591.9,35.3"/><path class="st42" d="M591.9,35.3L591.9,35.3l-1.9-1.2l0,0L591.9,35.3"/><path class="st43" d="M591.8,35.3L591.8,35.3l-1.9-1.2l0,0L591.8,35.3"/><path class="st44" d="M591.8,35.4L591.8,35.4l-1.9-1.2c0,0,0,0,0,0L591.8,35.4"/><path class="st45" d="M591.8,35.4C591.7,35.4,591.7,35.4,591.8,35.4l-1.9-1.2l0,0L591.8,35.4"/><path class="st46" d="M591.7,35.5L591.7,35.5l-1.9-1.2l0,0L591.7,35.5"/><path class="st47" d="M591.7,35.5L591.7,35.5l-1.9-1.1l0,0L591.7,35.5"/><path class="st48" d="M591.6,35.6L591.6,35.6l-1.9-1.1l0.1-0.1L591.6,35.6"/><path class="st49" d="M591.6,35.6l-0.1,0.1l-1.9-1.2c0,0,0.1-0.1,0.1-0.1L591.6,35.6"/><path class="st48" d="M591.5,35.7L591.5,35.7l-1.9-1.1c0,0,0-0.1,0-0.1L591.5,35.7"/><path class="st47" d="M591.4,35.9L591.4,35.9L591.4,35.9l-1.8-1.2l0,0v0L591.4,35.9"/><path class="st46" d="M591.4,35.9C591.4,35.9,591.4,35.9,591.4,35.9l-1.9-1.1c0,0,0,0,0,0L591.4,35.9"/><path class="st45" d="M591.4,35.9L591.4,35.9l-1.9-1.2c0,0,0,0,0,0L591.4,35.9"/><path class="st44" d="M591.4,36C591.4,36,591.4,36,591.4,36l-1.9-1.2l0,0L591.4,36"/><path class="st43" d="M591.4,36C591.4,36,591.4,36,591.4,36l-1.9-1.2v0L591.4,36"/><path class="st42" d="M591.3,36.1C591.3,36.1,591.3,36.1,591.3,36.1l-1.9-1.2c0,0,0,0,0,0L591.3,36.1"/><path class="st41" d="M591.3,36.1C591.3,36.1,591.3,36.1,591.3,36.1l-1.8-1.1v0L591.3,36.1"/><path class="st40" d="M591.3,36.2L591.3,36.2l-1.9-1.1c0,0,0,0,0,0L591.3,36.2"/><path class="st39" d="M591.3,36.2L591.3,36.2l-1.9-1.1v0L591.3,36.2"/><path class="st38" d="M591.3,36.2C591.3,36.3,591.3,36.3,591.3,36.2l-1.9-1.1v-0.1L591.3,36.2"/><path class="st37" d="M591.2,36.3L591.2,36.3l-1.9-1.2v0L591.2,36.3"/><path class="st36" d="M591.2,36.3C591.2,36.4,591.2,36.4,591.2,36.3l-1.9-1.1v-0.1L591.2,36.3"/><path class="st35" d="M591.2,36.4C591.2,36.4,591.2,36.4,591.2,36.4l-1.9-1.1c0,0,0,0,0,0L591.2,36.4"/><path class="st33" d="M591.2,36.4C591.2,36.5,591.2,36.5,591.2,36.4l-1.9-1.1c0,0,0-0.1,0-0.1L591.2,36.4"/><path class="st32" d="M591.2,36.5C591.2,36.5,591.2,36.5,591.2,36.5l-1.9-1.1c0,0,0,0,0,0L591.2,36.5"/><path class="st31" d="M591.2,36.5C591.2,36.6,591.2,36.6,591.2,36.5l-1.9-1.1c0,0,0,0,0,0L591.2,36.5"/><path class="st30" d="M591.2,36.6C591.2,36.6,591.2,36.6,591.2,36.6l-1.9-1.1c0,0,0-0.1,0-0.1L591.2,36.6"/><path class="st29" d="M591.2,36.6C591.2,36.7,591.2,36.7,591.2,36.6l-1.9-1.1v0L591.2,36.6"/><path class="st28" d="M591.2,36.7L591.2,36.7l-1.9-1.1c0,0,0-0.1,0-0.1L591.2,36.7"/><path class="st27" d="M591.2,36.8L591.2,36.8l-1.9-1.1c0,0,0,0,0,0L591.2,36.8"/><path class="st26" d="M591.2,36.8C591.2,36.8,591.2,36.9,591.2,36.8l-1.9-1.1v-0.1L591.2,36.8"/><path class="st25" d="M591.2,36.9C591.2,36.9,591.2,36.9,591.2,36.9l-1.9-1.1c0,0,0-0.1,0-0.1L591.2,36.9"/><path class="st24" d="M591.2,36.9C591.2,36.9,591.2,37,591.2,36.9l-1.9-1.1c0,0,0-0.1,0-0.1L591.2,36.9"/><path class="st23" d="M591.2,37L591.2,37l-1.9-1.1v-0.1L591.2,37"/><path class="st22" d="M591.2,37C591.2,37,591.2,37.1,591.2,37l-1.9-1.1c0,0,0,0,0-0.1L591.2,37"/><path class="st21" d="M591.2,37.1C591.2,37.1,591.2,37.1,591.2,37.1l-1.8-1.1c0,0,0-0.1,0-0.1L591.2,37.1"/><path class="st20" d="M591.3,37.2C591.3,37.2,591.3,37.2,591.3,37.2l-1.8-1.1l0-0.1L591.3,37.2"/><path class="st18" d="M591.3,37.2c0.1,0.1,0.1,0.2,0.2,0.2l-1.9-1.2c-0.1-0.1-0.2-0.1-0.2-0.2L591.3,37.2"/></g></g><path class="st7" d="M593,35l6.5,2.9c0.5,0.2,0.6,1,0.2,1.7c-0.2,0.3-0.5,0.6-0.8,0.8c-0.2,0.1-0.5,0.2-0.8,0.1l-6.5-2.9 c-0.5-0.2-0.6-1-0.2-1.7c0.2-0.3,0.5-0.6,0.8-0.8C592.5,34.9,592.8,34.9,593,35z"/><polygon class="st12" points="593.3,34.2 591,32.7 594.3,33.9 596.5,35.4"/><path class="st12" d="M593.3,34.2l3.2,1.2l-2.1,3.8l-3.2-1.2c-0.7-0.3-0.7-1.3-0.2-2.4c0.3-0.6,0.7-1,1.3-1.3 C592.6,34.1,593,34.1,593.3,34.2z"/><path class="st11" d="M588.8,36.5c0.7,0.5,1.5,1,2.3,1.4c-0.3-0.3-0.5-0.7-0.4-1.1c0.1-0.7,0.4-1.4,0.8-1.9 c0.4-0.5,1.1-1.1,1.8-0.8l-0.8-0.5l-1.1-0.7c-0.1-0.1-0.2-0.1-0.3-0.2c-0.2-0.1-0.4-0.1-0.6,0c-0.6,0.2-1.1,0.5-1.4,1 c-0.4,0.5-0.6,1.1-0.7,1.7C588.3,35.8,588.5,36.2,588.8,36.5z"/><circle class="st8" cx="586" cy="40.4" r="1.7"/><path class="st7" d="M586.1,40.7c0.9-0.1,1-0.7,1.3-0.7c0.4,0,0.2,0.8,0.1,1c-0.2,0.6-0.8,1-1.4,1c-0.9,0.1-1.7-0.6-1.7-1.6 C584.3,40.2,585,40.9,586.1,40.7z"/><circle class="st12" cx="590.9" cy="27.1" r="3.3"/><ellipse transform="matrix(0.9605 -0.2782 0.2782 0.9605 15.7928 165.3336)" class="st11" cx="590.6" cy="27" rx="2.2" ry="5.2"/><polygon class="st7" points="586.8,28.1 589.2,30.4 588,31.7 585.6,29.4"/><circle class="st7" cx="586.8" cy="30.4" r="1.7"/><path class="st8" d="M587,25.3c-0.2,0.3-0.4,0.6-0.6,1c-0.6,1.7,0.3,3.6,2.1,4.2c0.4,0.1,0.8,0.2,1.3,0.2c0.1,0,0.1,0,0.2,0 c1.8-0.2,3.1-1.9,2.9-3.7c0-0.4-0.1-0.7-0.3-1l0-0.1c-0.7-1.3-2.1-2-3.5-1.8c-0.3,0.1-0.6,0.1-0.9,0.3 C587.6,24.6,587.3,25,587,25.3z"/><path class="st9" d="M589.7,30.7c0.1,0,0.1,0,0.2,0c1.8-0.2,3.1-1.9,2.9-3.7c-0.5,0.1-1,0-1.5-0.2h0 C590.2,27.9,589.7,29.3,589.7,30.7z"/><path class="st9" d="M588.9,24.2c-0.2,0.4-0.6,1.2,0,1.9c0.5,0.6,1.2,1,1.9,1.2c0.5-0.5,1.1-1,1.7-1.4 C591.8,24.6,590.3,23.9,588.9,24.2z"/><path class="st9" d="M592.5,25.9c-0.4,0.3-0.9,0.6-1.2,0.9c0.5,0.2,1,0.2,1.5,0.2C592.7,26.7,592.6,26.3,592.5,25.9L592.5,25.9z"/><circle class="st8" cx="590" cy="29.2" r="0.5"/><rect x="588.8" y="28.1" transform="matrix(0.6928 -0.7212 0.7212 0.6928 160.8925 434.3218)" class="st9" width="2.9" height="0.5"/><path class="st9" d="M589.4,29.5c0,0-2.1,1.5-3.3-0.2c-1.2-1.7,0.7-3.8,0.7-3.8c-0.2,0.2-0.3,0.5-0.1,0.8c0.1,0.2,0.4,0.1,0.7,0.7 c0.3,0.5,0.1,1.3,0.7,1.8c0.3,0.2,0.8,0.3,1.1,0.1L589.4,29.5z"/><path class="st11" d="M591.4,30.3c1-0.7,1.6-2,1.4-3.2c0-0.4-0.1-0.7-0.3-1l0-0.1c-0.6-1.1-1.7-1.8-3-1.8c1,0.7,1.6,1.7,1.9,2.8 C591.8,28,591.8,29.2,591.4,30.3z"/><polygon class="st11" points="582.1,32.4 581.1,35.1 581.1,31.1"/><polygon class="st50" points="592.2,44.7 592.2,47.6 588.2,49.9 588.2,47"/><polygon class="st51" points="588.2,49.9 587.3,49.4 587.3,46.5 588.2,47"/><polygon class="st7" points="588.2,47 587.3,46.5 591.3,44.2 592.2,44.7"/><ellipse transform="matrix(0.5024 -0.8646 0.8646 0.5024 252.0906 535.0495)" class="st50" cx="590.9" cy="48.5" rx="1.2" ry="0.7"/><linearGradient id="SVGID_59_" gradientUnits="userSpaceOnUse" x1="419.23" y1="29.6334" x2="421.6637" y2="28.227" gradientTransform="matrix(-1 0 0 -1 1010.7168 77)"><stop offset="0.37" style="stop-color:#344755"/><stop offset="1" style="stop-color:#1e2931"/></linearGradient><path d="M589.1,48.9c0.1,0.1,0.2,0.1,0.3,0.2l0.9,0.5l0,0c-0.2-0.1-0.2-0.4-0.2-0.7c0-0.3,0.1-0.6,0.3-0.8 c0.2-0.3,0.7-0.9,1.2-0.7c-0.4-0.2-0.7-0.4-1.1-0.6s-0.9,0.1-1.1,0.5l0,0c-0.2,0.3-0.4,0.6-0.4,1C588.9,48.5,589,48.7,589.1,48.9z" style="fill:url(#SVGID_59_)"/><polygon class="st51" points="591.7,45.6 591.7,46.1 591,46.5 591,46"/></svg>