<svg width="152" height="18" viewBox="0 0 152 18" fill="none" xmlns="http://www.w3.org/2000/svg">
<g clip-path="url(#clip0_1_1165)">
<g clip-path="url(#clip1_1_1165)">
<path d="M11.0193 3.35752C10.5868 3.11752 9.34726 3.26602 7.85826 3.72652C5.25226 5.50752 3.05326 8.13202 2.89976 12.3455C2.87176 12.4465 2.61476 12.332 2.56376 12.3005C1.86026 10.952 1.58126 9.53152 2.16876 7.48302C2.27826 7.30052 1.92026 7.07602 1.85576 7.14052C1.72676 7.26952 1.18926 7.84252 0.832265 8.46152C-0.937735 11.532 0.219765 15.466 3.31626 17.188C6.41226 18.9125 10.3218 17.8 12.0458 14.703C14.0403 11.129 12.1883 4.01052 11.0193 3.35752Z" fill="#81B441"/>
<path d="M22.1011 5.07249C18.4301 5.07249 15.7656 7.80149 15.7656 11.5615C15.7656 15.3525 18.4231 18 22.2291 18C24.1516 18 25.6731 17.399 26.8836 16.1615C27.2451 15.771 27.2841 15.395 27.2841 15.251C27.2841 14.638 26.8281 14.1925 26.2001 14.1925C25.8836 14.1925 25.6186 14.312 25.3151 14.593C24.6296 15.2315 23.7271 15.884 22.2291 15.884C20.1461 15.884 18.4521 14.32 18.3451 12.3115H26.6356C27.5371 12.3115 27.9751 11.89 27.9751 11.0235C27.9751 10.7685 27.9751 10.584 27.9236 10.221C27.4771 6.99749 25.3006 5.07249 22.1011 5.07249ZM22.1011 7.08549C24.0916 7.08549 25.3691 8.35399 25.4476 10.4015H18.3476C18.5341 8.50699 20.1361 7.08549 22.1011 7.08549ZM35.8926 5.07249C34.2251 5.07249 32.5741 6.03149 31.9291 7.36299V6.53999C31.9291 5.26499 30.9411 5.20049 30.7431 5.20049C30.1576 5.20049 29.5316 5.55249 29.5316 6.53999V16.4805C29.5316 17.8045 30.5836 17.8715 30.7941 17.8715C31.0046 17.8715 32.0571 17.8045 32.0571 16.4805V11.152C32.0571 8.83349 33.3711 7.21399 35.2521 7.21399C37.0741 7.21399 37.9601 8.40949 37.9601 10.87V16.481C37.9601 17.805 39.0126 17.872 39.2231 17.872C39.4336 17.872 40.4856 17.805 40.4856 16.481V10.076C40.4856 7.65699 39.2786 5.07249 35.8926 5.07249ZM51.9126 5.20099C51.3291 5.20099 50.9056 5.54149 50.6536 6.21099L47.1981 14.9L43.7691 6.21099C43.5006 5.53099 43.0806 5.20099 42.4846 5.20099C41.7881 5.20099 41.2216 5.74449 41.2216 6.41249C41.2216 6.57799 41.2406 6.79199 41.3801 7.12699L45.3511 16.5035C45.8241 17.6345 46.6026 17.872 47.1726 17.872C47.7421 17.872 48.5206 17.6345 48.9951 16.504L52.9921 7.07549C53.1286 6.74449 53.1496 6.50199 53.1496 6.38699C53.1496 5.71099 52.6171 5.20099 51.9126 5.20099ZM59.2566 5.07249C57.6411 5.07249 56.1366 5.52249 55.0206 6.33849C54.6421 6.59949 54.4581 6.92549 54.4581 7.33499C54.4581 7.89899 54.8886 8.34099 55.4396 8.34099C55.6776 8.34099 55.9446 8.24599 56.1891 8.07499C57.1486 7.43549 58.0501 7.13699 59.0256 7.13699C60.8931 7.13699 61.9651 8.08649 61.9651 9.74299V10.0175C57.7731 10.022 53.5101 10.5285 53.5101 14.175C53.5101 16.7995 55.7531 17.9745 57.9761 17.9745C59.7461 17.9745 61.1601 17.273 62.0671 15.945V16.5835C62.0671 17.5345 62.7056 17.8715 63.2536 17.8715C63.3691 17.8715 64.3881 17.8355 64.3881 16.5835V9.89699C64.3871 6.87599 62.4686 5.07249 59.2566 5.07249ZM61.4336 11.877H61.9651V12.459C61.9651 14.587 60.6101 15.962 58.5136 15.962C57.9446 15.962 56.0876 15.8295 56.0876 14.124C56.0871 12.1095 59.1381 11.877 61.4336 11.877ZM70.9641 7.49549C72.0691 7.49549 72.1251 6.63549 72.1251 6.46349C72.1251 5.95199 71.8201 5.40549 70.9641 5.40549H68.6916V3.10749C68.6916 2.08099 68.0256 1.71649 67.4546 1.71649C67.2441 1.71649 66.1921 1.78349 66.1921 3.10749V14.022C66.1921 16.5405 67.4346 17.872 69.7856 17.872C70.3941 17.872 70.9866 17.7645 71.3746 17.584C71.8191 17.362 72.0736 16.9975 72.0736 16.584C72.0736 16.0005 71.6501 15.577 71.0666 15.577C70.9541 15.577 70.7936 15.605 70.6166 15.656C70.4001 15.71 70.2536 15.731 70.0936 15.731C69.1371 15.731 68.6916 15.1065 68.6916 13.7655V7.49549H70.9641ZM79.3156 5.07249C75.4956 5.07249 72.7241 7.77999 72.7241 11.51C72.7241 13.326 73.3956 14.981 74.6141 16.1705C75.8236 17.35 77.4931 18 79.3151 18C83.0871 18 85.9321 15.21 85.9321 11.5105C85.9326 7.77999 83.1491 5.07249 79.3156 5.07249ZM79.3156 15.859C76.6961 15.859 75.3261 13.6715 75.3261 11.5105C75.3261 8.54099 77.3941 7.18849 79.3156 7.18849C81.2371 7.18849 83.3051 8.54099 83.3051 11.5105C83.3051 14.498 81.2371 15.859 79.3156 15.859Z" fill="white"/>
<path d="M105.776 5.9685C105.407 5.566 104.949 5.267 104.414 5.08C103.438 4.74 102.104 4.7125 101.044 5.0495C100.547 5.2075 100.09 5.4265 99.6833 5.7005C99.2758 5.9765 98.9183 6.304 98.6203 6.674C98.5268 6.7895 98.4388 6.909 98.3568 7.0315C98.0968 6.3895 97.7143 5.89 97.2128 5.5425C96.5123 5.0565 95.6103 4.81 94.5313 4.81C93.9803 4.81 93.4583 4.898 92.9788 5.071C92.5053 5.242 92.0673 5.4785 91.6768 5.773C91.2933 6.0625 90.9528 6.4095 90.6653 6.8035V5.41C90.6653 5.201 90.4958 5.0315 90.2868 5.0315H89.6773C89.4683 5.0315 89.2988 5.201 89.2988 5.41V17.4C89.2988 17.609 89.4683 17.7785 89.6773 17.7785H90.2868C90.4958 17.7785 90.6653 17.609 90.6653 17.4V9.8565C90.7353 9.502 90.8628 9.1055 91.0448 8.677C91.2288 8.2445 91.4818 7.8315 91.7968 7.4515C92.1053 7.0795 92.4903 6.765 92.9408 6.516C93.3768 6.2755 93.9008 6.1535 94.4978 6.1535C94.9343 6.1535 95.3428 6.2045 95.7108 6.306C96.0553 6.401 96.3438 6.5615 96.5923 6.797C96.8388 7.0315 97.0353 7.358 97.1768 7.767C97.3248 8.194 97.3998 8.7505 97.3998 9.4215V17.4C97.3998 17.609 97.5693 17.7785 97.7783 17.7785H98.3768C98.5858 17.7785 98.7553 17.609 98.7553 17.4L98.7543 9.447C98.7668 9.2665 98.8128 9.058 98.8903 8.828C98.9703 8.5915 99.0838 8.3495 99.2278 8.108C99.3738 7.863 99.5548 7.6205 99.7663 7.3855C99.9713 7.157 100.217 6.9495 100.498 6.769C100.778 6.589 101.1 6.4415 101.454 6.3295C101.806 6.219 102.205 6.16 102.638 6.153L102.715 6.1525C103.118 6.1525 103.496 6.203 103.839 6.304C104.183 6.405 104.471 6.5745 104.719 6.824C104.967 7.0715 105.165 7.422 105.308 7.864C105.458 8.3265 105.534 8.9245 105.534 9.6425V17.4C105.534 17.609 105.703 17.7785 105.912 17.7785H106.511C106.72 17.7785 106.889 17.609 106.889 17.4V9.6425C106.889 8.8105 106.796 8.087 106.612 7.4915C106.423 6.8795 106.142 6.367 105.776 5.9685ZM117.909 16.78C117.874 16.6115 117.845 16.4315 117.82 16.2385C117.795 16.0425 117.776 15.8365 117.762 15.619C117.747 15.402 117.74 15.1905 117.74 14.984V8.978C117.74 8.3005 117.623 7.6915 117.392 7.168C117.158 6.6405 116.827 6.1955 116.407 5.845C115.993 5.5005 115.496 5.2375 114.929 5.0645C113.796 4.72 112.338 4.7195 111.204 5.1135C110.623 5.314 110.111 5.5925 109.681 5.9415C109.247 6.2955 108.904 6.7125 108.664 7.182C108.419 7.6585 108.295 8.166 108.295 8.6895C108.295 8.893 108.456 9.06 108.66 9.0675L109.258 9.0895C109.359 9.0975 109.46 9.055 109.535 8.984C109.609 8.913 109.651 8.8145 109.651 8.7115C109.651 8.359 109.731 8.0395 109.898 7.735C110.067 7.425 110.305 7.152 110.604 6.9235C110.912 6.6885 111.281 6.502 111.703 6.368C112.129 6.233 112.601 6.1645 113.106 6.1645C114.181 6.1645 115.009 6.4125 115.566 6.9015C116.117 7.385 116.385 8.0565 116.385 8.9555V10.328H113.893C113.001 10.328 112.186 10.4235 111.469 10.612C110.744 10.8035 110.119 11.0745 109.609 11.418C109.084 11.772 108.677 12.2055 108.398 12.7055C108.116 13.211 107.973 13.769 107.973 14.3635C107.973 14.894 108.072 15.3885 108.265 15.833C108.46 16.2805 108.742 16.671 109.102 16.9945C109.46 17.3155 109.895 17.566 110.394 17.74C110.887 17.912 111.441 17.9995 112.042 17.9995C112.67 17.9995 113.251 17.93 113.768 17.7925C114.283 17.6565 114.757 17.467 115.176 17.23C115.596 16.9925 115.969 16.7135 116.286 16.4L116.424 16.2595L116.436 16.417C116.471 16.8355 116.533 17.201 116.621 17.5045C116.668 17.6665 116.816 17.778 116.985 17.778H117.672C117.881 17.778 118.05 17.6085 118.05 17.3995V17.3C118.05 17.248 118.039 17.196 118.018 17.1485C117.978 17.055 117.941 16.931 117.909 16.78ZM112.042 16.656C111.63 16.656 111.252 16.595 110.919 16.4735C110.589 16.354 110.301 16.188 110.065 15.98C109.832 15.7755 109.648 15.5345 109.519 15.265C109.393 14.9995 109.329 14.7115 109.329 14.408C109.329 14.024 109.424 13.6805 109.618 13.357C109.816 13.028 110.107 12.74 110.484 12.4995C110.875 12.25 111.363 12.052 111.934 11.911C112.515 11.7675 113.185 11.6945 113.926 11.6945H116.385V14.0815C116.206 14.462 115.985 14.8075 115.727 15.1105C115.454 15.431 115.133 15.7095 114.771 15.9395C114.41 16.169 113.997 16.3475 113.545 16.47C113.088 16.593 112.583 16.656 112.042 16.656ZM125.299 4.9565C125.177 4.9095 125.035 4.8735 124.867 4.8475C124.708 4.822 124.524 4.8095 124.321 4.8095C123.259 4.8095 122.359 5.0815 121.645 5.617C121.323 5.858 121.037 6.14 120.787 6.461V5.41C120.787 5.201 120.618 5.0315 120.409 5.0315H119.81C119.601 5.0315 119.432 5.201 119.432 5.41V17.4C119.432 17.609 119.601 17.7785 119.81 17.7785H120.409C120.618 17.7785 120.787 17.609 120.787 17.4V9.577C120.877 9.084 121.02 8.623 121.213 8.205C121.404 7.7885 121.65 7.423 121.944 7.119C122.234 6.82 122.581 6.582 122.975 6.411C123.369 6.2405 123.821 6.154 124.321 6.154C124.446 6.154 124.567 6.1605 124.682 6.1735L125.05 6.2175C125.149 6.2295 125.25 6.202 125.329 6.141C125.408 6.0795 125.459 5.989 125.472 5.8895L125.539 5.3575C125.56 5.184 125.461 5.019 125.299 4.9565ZM130.32 10.5495L135.562 5.687C135.676 5.581 135.714 5.4165 135.657 5.271C135.6 5.1265 135.461 5.031 135.305 5.031H134.452C134.357 5.031 134.265 5.067 134.195 5.132L128.74 10.177L127.971 10.904V0.3785C127.971 0.1695 127.801 0 127.592 0H126.994C126.785 0 126.615 0.1695 126.615 0.3785V17.4C126.615 17.609 126.785 17.7785 126.994 17.7785H127.592C127.801 17.7785 127.971 17.609 127.971 17.4V12.609L129.314 11.454L134.585 17.6455C134.657 17.73 134.762 17.7785 134.873 17.7785H135.659C135.868 17.7785 136.038 17.609 136.038 17.4C136.038 17.278 135.98 17.1695 135.89 17.1005L130.32 10.5495ZM144.248 6.354C143.812 5.866 143.284 5.4815 142.679 5.2135C141.442 4.6645 139.857 4.667 138.571 5.2905C137.917 5.607 137.34 6.0545 136.853 6.6205C136.371 7.181 135.984 7.858 135.704 8.6325C135.424 9.406 135.282 10.2605 135.282 11.172V11.6595C135.282 12.573 135.428 13.425 135.717 14.1915C136.005 14.961 136.409 15.6355 136.915 16.1955C137.423 16.759 138.025 17.205 138.704 17.521C139.387 17.8385 140.13 17.9995 140.914 17.9995C141.421 17.9995 141.895 17.9475 142.321 17.845C142.748 17.742 143.144 17.5975 143.498 17.4145C143.854 17.23 144.178 17.0055 144.46 16.748C144.739 16.4935 144.988 16.2075 145.203 15.8975C145.321 15.727 145.28 15.494 145.111 15.374L144.69 15.075C144.525 14.957 144.296 14.9905 144.172 15.152C143.941 15.4505 143.7 15.6975 143.454 15.887C143.208 16.0765 142.949 16.23 142.684 16.3425C142.418 16.456 142.136 16.5365 141.846 16.583C140.984 16.722 140.03 16.663 139.242 16.274C138.722 16.017 138.264 15.6625 137.882 15.2195C137.497 14.773 137.19 14.239 136.971 13.631C136.75 13.0215 136.639 12.3575 136.639 11.6595V11.384H145.248C145.457 11.384 145.626 11.2145 145.626 11.0055V10.3075C145.626 9.5065 145.505 8.7625 145.266 8.0965C145.023 7.4255 144.681 6.8395 144.248 6.354ZM142.153 6.4855C142.591 6.7015 142.969 6.9975 143.277 7.364C143.59 7.7375 143.836 8.179 144.008 8.6755C144.157 9.1045 144.243 9.559 144.264 10.029H136.724C136.802 9.5735 136.927 9.1415 137.099 8.739C137.321 8.2205 137.613 7.762 137.966 7.378C138.316 6.9985 138.725 6.698 139.184 6.4835C140.081 6.0645 141.278 6.056 142.153 6.4855ZM151.837 16.8575C151.801 16.657 151.614 16.527 151.411 16.549C151.209 16.578 151.022 16.602 150.849 16.6195C150.522 16.654 150.061 16.673 149.691 16.5655C149.539 16.522 149.408 16.438 149.288 16.3065C149.162 16.1705 149.058 15.965 148.979 15.697C148.894 15.4085 148.851 15.0155 148.851 14.5295V6.3975H151.199C151.408 6.3975 151.577 6.228 151.577 6.019V5.4095C151.577 5.2005 151.408 5.031 151.199 5.031H148.851V2.1735C148.851 1.9645 148.681 1.795 148.472 1.795H147.863C147.654 1.795 147.484 1.9645 147.484 2.1735V5.031H145.646C145.437 5.031 145.268 5.2005 145.268 5.4095V6.019C145.268 6.228 145.437 6.3975 145.646 6.3975H147.484V14.53C147.484 15.16 147.545 15.6975 147.664 16.1275C147.79 16.581 147.98 16.952 148.228 17.231C148.484 17.5175 148.799 17.7225 149.167 17.8385C149.505 17.946 149.891 18.0005 150.312 18.0005L150.603 17.9945C150.72 17.9905 150.841 17.9825 150.969 17.971L151.326 17.931C151.463 17.9125 151.587 17.8835 151.693 17.845C151.866 17.782 151.968 17.6045 151.937 17.4235L151.837 16.8575Z" fill="#81B441"/>
</g>
</g>
<defs>
<clipPath id="clip0_1_1165">
<rect width="152" height="18" fill="white"/>
</clipPath>
<clipPath id="clip1_1_1165">
<rect width="152" height="18" fill="white"/>
</clipPath>
</defs>
</svg>
