<svg width="25" height="22" viewBox="0 0 25 22" fill="none" xmlns="http://www.w3.org/2000/svg">
<path d="M21.9219 11C23.1406 11 24.1719 12.0312 24.1719 13.25V19.25C24.1719 20.5156 23.1406 21.5 21.9219 21.5H15.9219C14.6562 21.5 13.6719 20.5156 13.6719 19.25V8C13.6719 3.875 17 0.5 21.1719 0.5H21.5469C22.1562 0.5 22.6719 1.01562 22.6719 1.625V3.875C22.6719 4.53125 22.1562 5 21.5469 5H21.1719C19.4844 5 18.1719 6.35938 18.1719 8V11H21.9219ZM8.42188 11C9.64062 11 10.6719 12.0312 10.6719 13.25V19.25C10.6719 20.5156 9.64062 21.5 8.42188 21.5H2.42188C1.15625 21.5 0.171875 20.5156 0.171875 19.25V8C0.171875 3.875 3.5 0.5 7.67188 0.5H8.04688C8.65625 0.5 9.17188 1.01562 9.17188 1.625V3.875C9.17188 4.53125 8.65625 5 8.04688 5H7.67188C5.98438 5 4.67188 6.35938 4.67188 8V11H8.42188Z" fill="#252525"/>
</svg>
