<svg width="118" height="14" viewBox="0 0 118 14" fill="none" xmlns="http://www.w3.org/2000/svg">
<g clip-path="url(#clip0_1_1271)">
<g clip-path="url(#clip1_1_1271)">
<path d="M8.55443 2.60647C8.21867 2.42015 7.25643 2.53544 6.10049 2.89293C4.07742 4.27555 2.3703 6.31299 2.25113 9.584C2.2294 9.6624 2.02988 9.57352 1.99029 9.54906C1.44415 8.5022 1.22756 7.39944 1.68365 5.80916C1.76865 5.66748 1.49073 5.4932 1.44066 5.54327C1.34051 5.64342 0.923245 6.08825 0.6461 6.56879C-0.727979 8.95246 0.170607 12.0065 2.57447 13.3433C4.97794 14.6821 8.01295 13.8184 9.35132 11.4142C10.8997 8.63961 9.46194 3.1134 8.55443 2.60647Z" fill="#81B441"/>
<path d="M17.1576 3.93784C14.3078 3.93784 12.2393 6.0564 12.2393 8.97535C12.2393 11.9184 14.3023 13.9737 17.257 13.9737C18.7494 13.9737 19.9306 13.5071 20.8703 12.5464C21.151 12.2433 21.1813 11.9514 21.1813 11.8396C21.1813 11.3637 20.8273 11.0178 20.3397 11.0178C20.094 11.0178 19.8883 11.1106 19.6527 11.3288C19.1205 11.8244 18.4199 12.331 17.257 12.331C15.6399 12.331 14.3248 11.1168 14.2418 9.55758H20.6778C21.3777 9.55758 21.7177 9.23037 21.7177 8.55769C21.7177 8.35973 21.7177 8.2165 21.6777 7.9347C21.3311 5.43224 19.6414 3.93784 17.1576 3.93784ZM17.1576 5.50056C18.7029 5.50056 19.6946 6.48532 19.7555 8.07482H14.2437C14.3885 6.60409 15.6321 5.50056 17.1576 5.50056ZM27.8642 3.93784C26.5697 3.93784 25.288 4.68232 24.7872 5.71599V5.07708C24.7872 4.08728 24.0202 4.0372 23.8665 4.0372C23.412 4.0372 22.926 4.31047 22.926 5.07708V12.794C22.926 13.8219 23.7427 13.8739 23.9061 13.8739C24.0695 13.8739 24.8866 13.8219 24.8866 12.794V8.65745C24.8866 6.85756 25.9067 5.60032 27.3669 5.60032C28.7814 5.60032 29.4692 6.5284 29.4692 8.43853V12.7944C29.4692 13.8223 30.2863 13.8743 30.4497 13.8743C30.6131 13.8743 31.4298 13.8223 31.4298 12.7944V7.82213C31.4298 5.94422 30.4928 3.93784 27.8642 3.93784ZM40.3007 4.03759C39.8478 4.03759 39.519 4.30193 39.3234 4.82167L36.6408 11.5671L33.9788 4.82167C33.7704 4.29378 33.4443 4.03759 32.9816 4.03759C32.4409 4.03759 32.0012 4.45952 32.0012 4.9781C32.0012 5.10658 32.0159 5.27271 32.1242 5.53278L35.207 12.8119C35.5741 13.6899 36.1785 13.8743 36.621 13.8743C37.0631 13.8743 37.6675 13.6899 38.0358 12.8123L41.1388 5.4928C41.2447 5.23584 41.2611 5.04758 41.2611 4.9583C41.2611 4.43351 40.8477 4.03759 40.3007 4.03759ZM46.002 3.93784C44.7479 3.93784 43.5799 4.28718 42.7135 4.92065C42.4197 5.12327 42.2769 5.37635 42.2769 5.69425C42.2769 6.13209 42.6111 6.47522 43.0388 6.47522C43.2236 6.47522 43.4309 6.40147 43.6207 6.26872C44.3655 5.77227 45.0654 5.54054 45.8227 5.54054C47.2725 5.54054 48.1047 6.27765 48.1047 7.56362V7.77672C44.8503 7.78021 41.5409 8.17341 41.5409 11.0042C41.5409 13.0417 43.2822 13.9539 45.0079 13.9539C46.382 13.9539 47.4797 13.4093 48.1838 12.3783V12.874C48.1838 13.6123 48.6795 13.8739 49.1049 13.8739C49.1946 13.8739 49.9857 13.846 49.9857 12.874V7.68317C49.9849 5.33792 48.4955 3.93784 46.002 3.93784ZM47.692 9.22028H48.1047V9.67209C48.1047 11.3241 47.0528 12.3915 45.4252 12.3915C44.9835 12.3915 43.5419 12.2887 43.5419 10.9647C43.5415 9.40077 45.91 9.22028 47.692 9.22028ZM55.0907 5.81885C55.9486 5.81885 55.992 5.15122 55.992 5.01769C55.992 4.6206 55.7553 4.19635 55.0907 4.19635H53.3265V2.41237C53.3265 1.61549 52.8095 1.33252 52.3662 1.33252C52.2028 1.33252 51.3861 1.38453 51.3861 2.41237V10.8855C51.3861 12.8406 52.3507 13.8743 54.1758 13.8743C54.6482 13.8743 55.1082 13.7908 55.4094 13.6507C55.7545 13.4784 55.9521 13.1954 55.9521 12.8744C55.9521 12.4214 55.6233 12.0926 55.1703 12.0926C55.083 12.0926 54.9584 12.1144 54.821 12.154C54.6529 12.1959 54.5392 12.2122 54.4149 12.2122C53.6724 12.2122 53.3265 11.7274 53.3265 10.6863V5.81885H55.0907ZM61.5741 3.93784C58.6086 3.93784 56.457 6.03971 56.457 8.93537C56.457 10.3452 56.9783 11.63 57.9243 12.5534C58.8632 13.4691 60.1593 13.9737 61.5737 13.9737C64.502 13.9737 66.7106 11.8077 66.7106 8.93576C66.711 6.03971 64.5501 3.93784 61.5741 3.93784ZM61.5741 12.3116C59.5406 12.3116 58.477 10.6134 58.477 8.93576C58.477 6.63049 60.0824 5.58052 61.5741 5.58052C63.0658 5.58052 64.6712 6.63049 64.6712 8.93576C64.6712 11.255 63.0658 12.3116 61.5741 12.3116Z" fill="white"/>
<path d="M82.116 4.63344C81.8291 4.32097 81.4736 4.08886 81.0582 3.94368C80.3009 3.67974 79.2653 3.65839 78.4424 3.92001C78.0566 4.04266 77.7014 4.21268 77.3859 4.42539C77.0695 4.63965 76.792 4.89389 76.5606 5.18113C76.4881 5.2708 76.4197 5.36357 76.3561 5.45866C76.1542 4.96027 75.8573 4.5725 75.468 4.30273C74.9242 3.92544 74.2239 3.73408 73.3863 3.73408C72.9585 3.73408 72.5533 3.80239 72.1811 3.9367C71.8135 4.06945 71.4734 4.25305 71.1703 4.48167C70.8726 4.70641 70.6082 4.9758 70.3851 5.28166V4.19987C70.3851 4.03762 70.2535 3.90603 70.0912 3.90603H69.6181C69.4558 3.90603 69.3242 4.03762 69.3242 4.19987V13.5079C69.3242 13.6701 69.4558 13.8017 69.6181 13.8017H70.0912C70.2535 13.8017 70.3851 13.6701 70.3851 13.5079V7.65176C70.4394 7.37655 70.5384 7.06874 70.6797 6.73609C70.8225 6.40034 71.0189 6.07972 71.2635 5.78472C71.5029 5.49593 71.8018 5.25178 72.1516 5.05847C72.49 4.87177 72.8968 4.77706 73.3603 4.77706C73.6991 4.77706 74.0163 4.81665 74.302 4.89545C74.5694 4.9692 74.7934 5.0938 74.9863 5.27662C75.1776 5.45866 75.3302 5.71213 75.44 6.02965C75.5549 6.36113 75.6132 6.79315 75.6132 7.31406V13.5079C75.6132 13.6701 75.7447 13.8017 75.907 13.8017H76.3716C76.5339 13.8017 76.6654 13.6701 76.6654 13.5079L76.6647 7.33386C76.6744 7.19373 76.7101 7.03187 76.7703 6.85332C76.8324 6.66972 76.9205 6.48185 77.0323 6.29437C77.1456 6.10417 77.2861 5.91591 77.4503 5.73348C77.6094 5.55609 77.8004 5.39501 78.0186 5.25488C78.2355 5.11514 78.4855 5.00064 78.7603 4.91369C79.034 4.82791 79.3433 4.78211 79.6795 4.77667L79.7397 4.77628C80.0525 4.77628 80.346 4.81549 80.6119 4.89389C80.8789 4.9723 81.1025 5.10389 81.2954 5.29758C81.4879 5.48972 81.6416 5.76182 81.7526 6.10495C81.8687 6.46399 81.9277 6.92823 81.9277 7.48563V13.5079C81.9277 13.6701 82.0593 13.8017 82.2215 13.8017H82.6862C82.8484 13.8017 82.98 13.6701 82.98 13.5079V7.48563C82.98 6.83973 82.9074 6.27807 82.7646 5.81577C82.6182 5.34066 82.3997 4.9428 82.116 4.63344ZM91.535 13.0266C91.5078 12.8958 91.4849 12.756 91.4659 12.6062C91.4465 12.454 91.4314 12.2941 91.4205 12.1253C91.4092 11.9568 91.4038 11.7926 91.4038 11.6323V6.96976C91.4038 6.44381 91.313 5.97103 91.1333 5.56463C90.952 5.15513 90.695 4.80966 90.369 4.53757C90.0476 4.27012 89.6614 4.06595 89.2212 3.93165C88.3416 3.66421 87.2101 3.66382 86.3294 3.96969C85.8788 4.12534 85.4809 4.34155 85.1475 4.61248C84.8102 4.8873 84.5443 5.21102 84.3576 5.5755C84.1678 5.94541 84.0715 6.33939 84.0715 6.7458C84.0715 6.90378 84.1965 7.03342 84.3545 7.03924L84.8191 7.05632C84.8975 7.06253 84.9759 7.02954 85.0337 6.97442C85.0912 6.9193 85.1238 6.84284 85.1238 6.76288C85.1238 6.48922 85.1863 6.24119 85.3155 6.0048C85.4471 5.76414 85.6315 5.55221 85.864 5.37482C86.1027 5.19239 86.3896 5.04761 86.7168 4.94358C87.0475 4.83878 87.4143 4.7856 87.8064 4.7856C88.6405 4.7856 89.2833 4.97813 89.7161 5.35774C90.1435 5.73309 90.3515 6.25439 90.3515 6.9523V8.01779H88.4169C87.7248 8.01779 87.0921 8.09193 86.5355 8.23826C85.9727 8.38693 85.4871 8.59731 85.0912 8.86397C84.684 9.13879 84.3681 9.47532 84.1515 9.86348C83.9325 10.2559 83.8215 10.6891 83.8215 11.1506C83.8215 11.5624 83.898 11.9463 84.0482 12.2914C84.1992 12.6388 84.4181 12.942 84.698 13.1931C84.9759 13.4423 85.3132 13.6368 85.7006 13.7718C86.0833 13.9054 86.5138 13.9733 86.9804 13.9733C87.4675 13.9733 87.9185 13.9193 88.3199 13.8126C88.7201 13.707 89.0881 13.5599 89.4133 13.3759C89.739 13.1915 90.0286 12.975 90.275 12.7316L90.3818 12.6225L90.3911 12.7448C90.4187 13.0697 90.4668 13.3534 90.5351 13.589C90.5712 13.7148 90.6865 13.8013 90.8173 13.8013H91.3506C91.5129 13.8013 91.6445 13.6698 91.6445 13.5075V13.4303C91.6445 13.3899 91.6359 13.3495 91.6196 13.3127C91.5882 13.2401 91.5595 13.1438 91.535 13.0266ZM86.9804 12.9303C86.6601 12.9303 86.3671 12.883 86.1082 12.7886C85.852 12.6959 85.6288 12.567 85.4452 12.4055C85.2643 12.2468 85.1219 12.0597 85.0217 11.8505C84.9235 11.6443 84.8742 11.4208 84.8742 11.1852C84.8742 10.8871 84.9476 10.6204 85.0986 10.3693C85.2523 10.1138 85.4782 9.89026 85.7705 9.70356C86.0744 9.50987 86.4529 9.35616 86.8961 9.2467C87.3476 9.1353 87.8677 9.07863 88.4429 9.07863H90.3515V10.9317C90.2129 11.2271 90.0414 11.4953 89.8411 11.7305C89.6291 11.9793 89.3796 12.1955 89.0985 12.3741C88.8183 12.5523 88.4981 12.6908 88.1468 12.7859C87.7924 12.8814 87.4 12.9303 86.9804 12.9303ZM97.2716 3.84781C97.1769 3.81132 97.067 3.78337 96.9366 3.76319C96.8128 3.74339 96.6699 3.73369 96.5124 3.73369C95.6883 3.73369 94.9892 3.94485 94.4349 4.36057C94.185 4.54766 93.9629 4.76658 93.7692 5.01578V4.19987C93.7692 4.03762 93.6377 3.90603 93.4754 3.90603H93.0108C92.8485 3.90603 92.7169 4.03762 92.7169 4.19987V13.5079C92.7169 13.6701 92.8485 13.8017 93.0108 13.8017H93.4754C93.6377 13.8017 93.7692 13.6701 93.7692 13.5079V7.43478C93.8391 7.05205 93.9501 6.69417 94.0996 6.36967C94.2482 6.04634 94.4392 5.76259 94.6674 5.52659C94.8922 5.29447 95.1616 5.10971 95.4678 4.97696C95.7733 4.8446 96.1246 4.77745 96.5124 4.77745C96.6098 4.77745 96.7033 4.78249 96.793 4.79259L97.0783 4.82674C97.1551 4.83606 97.2335 4.81471 97.2949 4.76736C97.3562 4.71961 97.3962 4.64936 97.4063 4.57211L97.4579 4.15911C97.4742 4.02442 97.3977 3.89633 97.2716 3.84781ZM101.17 8.18974L105.239 4.41491C105.328 4.33262 105.357 4.20491 105.313 4.09196C105.269 3.97978 105.161 3.90564 105.04 3.90564H104.377C104.303 3.90564 104.232 3.93359 104.178 3.98405L99.9429 7.90057L99.3459 8.46495V0.293836C99.3459 0.131586 99.2143 0 99.0521 0H98.5874C98.4252 0 98.2936 0.131586 98.2936 0.293836V13.5079C98.2936 13.6701 98.4252 13.8017 98.5874 13.8017H99.0521C99.2143 13.8017 99.3459 13.6701 99.3459 13.5079V9.78857L100.389 8.89192L104.48 13.6985C104.536 13.7641 104.618 13.8017 104.704 13.8017H105.315C105.477 13.8017 105.608 13.6701 105.608 13.5079C105.608 13.4132 105.563 13.329 105.494 13.2754L101.17 8.18974ZM111.982 4.93271C111.644 4.55387 111.234 4.25538 110.764 4.04732C109.804 3.62113 108.574 3.62307 107.575 4.1071C107.068 4.3528 106.619 4.7002 106.242 5.1396C105.867 5.57472 105.567 6.10029 105.349 6.70155C105.132 7.30203 105.022 7.96539 105.022 8.673V9.05145C105.022 9.76062 105.135 10.422 105.359 11.0171C105.583 11.6145 105.896 12.1381 106.289 12.5728C106.684 13.0103 107.151 13.3565 107.678 13.6018C108.208 13.8483 108.786 13.9733 109.394 13.9733C109.788 13.9733 110.156 13.9329 110.486 13.8534C110.818 13.7734 111.125 13.6612 111.4 13.5192C111.677 13.3759 111.928 13.2016 112.147 13.0017C112.363 12.8042 112.557 12.5821 112.724 12.3415C112.815 12.2091 112.784 12.0282 112.652 11.9351L112.326 11.703C112.197 11.6114 112.02 11.6374 111.923 11.7627C111.744 11.9945 111.557 12.1862 111.366 12.3333C111.175 12.4804 110.974 12.5996 110.768 12.6869C110.561 12.7751 110.342 12.8375 110.118 12.8736C109.448 12.9816 108.708 12.9358 108.096 12.6338C107.692 12.4343 107.337 12.159 107.04 11.8151C106.741 11.4685 106.503 11.054 106.333 10.582C106.162 10.1088 106.075 9.59332 106.075 9.05145V8.83758H112.758C112.921 8.83758 113.052 8.70599 113.052 8.54374V8.00188C113.052 7.38005 112.958 6.80247 112.772 6.28544C112.584 5.76453 112.319 5.30961 111.982 4.93271ZM110.356 5.0348C110.696 5.20248 110.989 5.43227 111.229 5.71679C111.471 6.00674 111.662 6.34949 111.796 6.73493C111.911 7.06797 111.978 7.4208 111.994 7.78567H106.141C106.202 7.43206 106.299 7.09669 106.433 6.78422C106.605 6.3817 106.831 6.02576 107.106 5.72766C107.377 5.43305 107.695 5.19976 108.051 5.03324C108.747 4.70797 109.676 4.70137 110.356 5.0348ZM117.873 13.0867C117.846 12.9311 117.7 12.8302 117.543 12.8473C117.386 12.8698 117.241 12.8884 117.106 12.902C116.853 12.9288 116.495 12.9435 116.207 12.8601C116.09 12.8263 115.988 12.7611 115.895 12.659C115.797 12.5534 115.716 12.3939 115.655 12.1858C115.589 11.9619 115.555 11.6568 115.555 11.2795V4.96648H117.378C117.54 4.96648 117.672 4.83489 117.672 4.67264V4.19948C117.672 4.03723 117.54 3.90564 117.378 3.90564H115.555V1.68732C115.555 1.52507 115.424 1.39349 115.262 1.39349H114.788C114.626 1.39349 114.495 1.52507 114.495 1.68732V3.90564H113.068C112.905 3.90564 112.774 4.03723 112.774 4.19948V4.67264C112.774 4.83489 112.905 4.96648 113.068 4.96648H114.495V11.2799C114.495 11.7689 114.542 12.1862 114.634 12.52C114.732 12.8721 114.879 13.1601 115.072 13.3767C115.27 13.5991 115.515 13.7583 115.801 13.8483C116.063 13.9318 116.363 13.9741 116.69 13.9741L116.916 13.9694C117.007 13.9663 117.1 13.9601 117.2 13.9512L117.477 13.9201C117.584 13.9058 117.679 13.8832 117.762 13.8534C117.896 13.8044 117.976 13.6667 117.951 13.5261L117.873 13.0867Z" fill="#81B441"/>
</g>
</g>
<defs>
<clipPath id="clip0_1_1271">
<rect width="118" height="14" fill="white"/>
</clipPath>
<clipPath id="clip1_1_1271">
<rect width="118" height="13.9737" fill="white"/>
</clipPath>
</defs>
</svg>
