<svg width="13" height="13" viewBox="0 0 13 13" fill="none" xmlns="http://www.w3.org/2000/svg">
<path d="M6.75566 3.35547C8.47832 3.35547 9.9002 4.77734 9.9002 6.5C9.9002 8.25 8.47832 9.64453 6.75566 9.64453C5.00566 9.64453 3.61113 8.25 3.61113 6.5C3.61113 4.77734 5.00566 3.35547 6.75566 3.35547ZM6.75566 8.55078C7.87676 8.55078 8.7791 7.64844 8.7791 6.5C8.7791 5.37891 7.87676 4.47656 6.75566 4.47656C5.60723 4.47656 4.70488 5.37891 4.70488 6.5C4.70488 7.64844 5.63457 8.55078 6.75566 8.55078ZM10.7479 3.24609C10.7479 3.65625 10.4197 3.98438 10.0096 3.98438C9.59941 3.98438 9.27129 3.65625 9.27129 3.24609C9.27129 2.83594 9.59941 2.50781 10.0096 2.50781C10.4197 2.50781 10.7479 2.83594 10.7479 3.24609ZM12.826 3.98438C12.8807 4.99609 12.8807 8.03125 12.826 9.04297C12.7713 10.0273 12.5525 10.875 11.8416 11.6133C11.1307 12.3242 10.2557 12.543 9.27129 12.5977C8.25957 12.6523 5.22441 12.6523 4.2127 12.5977C3.22832 12.543 2.38066 12.3242 1.64238 11.6133C0.931445 10.875 0.712695 10.0273 0.658008 9.04297C0.60332 8.03125 0.60332 4.99609 0.658008 3.98438C0.712695 3 0.931445 2.125 1.64238 1.41406C2.38066 0.703125 3.22832 0.484375 4.2127 0.429688C5.22441 0.375 8.25957 0.375 9.27129 0.429688C10.2557 0.484375 11.1307 0.703125 11.8416 1.41406C12.5525 2.125 12.7713 3 12.826 3.98438ZM11.5135 10.1094C11.8416 9.31641 11.7596 7.40234 11.7596 6.5C11.7596 5.625 11.8416 3.71094 11.5135 2.89062C11.2947 2.37109 10.8846 1.93359 10.365 1.74219C9.54473 1.41406 7.63066 1.49609 6.75566 1.49609C5.85332 1.49609 3.93926 1.41406 3.14629 1.74219C2.59941 1.96094 2.18926 2.37109 1.97051 2.89062C1.64238 3.71094 1.72441 5.625 1.72441 6.5C1.72441 7.40234 1.64238 9.31641 1.97051 10.1094C2.18926 10.6562 2.59941 11.0664 3.14629 11.2852C3.93926 11.6133 5.85332 11.5312 6.75566 11.5312C7.63066 11.5312 9.54473 11.6133 10.365 11.2852C10.8846 11.0664 11.3221 10.6562 11.5135 10.1094Z" fill="white"/>
</svg>
