<svg width="15" height="15" viewBox="0 0 15 15" fill="none" xmlns="http://www.w3.org/2000/svg">
<path d="M14.3569 7.5C14.3569 11.2461 11.3218 14.2812 7.57569 14.2812C6.86475 14.2812 6.18116 14.1992 5.55225 13.9805C5.82569 13.543 6.23585 12.8047 6.39991 12.2031C6.48194 11.9023 6.81007 10.5898 6.81007 10.5898C7.02882 11.0273 7.68507 11.3828 8.36866 11.3828C10.4194 11.3828 11.896 9.49609 11.896 7.17188C11.896 4.92969 10.064 3.23438 7.71241 3.23438C4.78663 3.23438 3.22803 5.20312 3.22803 7.33594C3.22803 8.34766 3.74757 9.57812 4.59522 9.98828C4.73194 10.043 4.81397 10.0156 4.84132 9.87891C4.84132 9.79688 4.97803 9.33203 5.03272 9.11328C5.03272 9.05859 5.03272 8.97656 4.97803 8.92188C4.7046 8.59375 4.48585 7.96484 4.48585 7.36328C4.48585 5.88672 5.60694 4.4375 7.54835 4.4375C9.18897 4.4375 10.3648 5.55859 10.3648 7.19922C10.3648 9.03125 9.43507 10.2891 8.23194 10.2891C7.57569 10.2891 7.0835 9.74219 7.22022 9.08594C7.41163 8.26562 7.79444 7.39062 7.79444 6.81641C7.79444 6.29688 7.521 5.85938 6.94678 5.85938C6.26319 5.85938 5.71632 6.57031 5.71632 7.5C5.71632 8.10156 5.90772 8.51172 5.90772 8.51172C5.90772 8.51172 5.25147 11.3555 5.11475 11.875C4.97803 12.4766 5.03272 13.2969 5.08741 13.8164C2.57178 12.832 0.794441 10.3984 0.794441 7.5C0.794441 3.75391 3.8296 0.71875 7.57569 0.71875C11.3218 0.71875 14.3569 3.75391 14.3569 7.5Z" fill="#999999"/>
</svg>
