<svg width="15" height="13" viewBox="0 0 15 13" fill="none" xmlns="http://www.w3.org/2000/svg">
<path d="M13.4533 3.65625C13.4533 3.79297 13.4533 3.90234 13.4533 4.03906C13.4533 7.83984 10.5822 12.1875 5.30488 12.1875C3.66426 12.1875 2.16035 11.7227 0.902539 10.9023C1.12129 10.9297 1.34004 10.957 1.58613 10.957C2.92598 10.957 4.15645 10.4922 5.14082 9.72656C3.88301 9.69922 2.8166 8.87891 2.46113 7.73047C2.65254 7.75781 2.8166 7.78516 3.00801 7.78516C3.2541 7.78516 3.52754 7.73047 3.74629 7.67578C2.43379 7.40234 1.44941 6.25391 1.44941 4.85938V4.83203C1.83223 5.05078 2.29707 5.16016 2.76191 5.1875C1.96895 4.66797 1.47676 3.79297 1.47676 2.80859C1.47676 2.26172 1.61348 1.76953 1.85957 1.35938C3.28145 3.08203 5.41426 4.23047 7.79316 4.36719C7.73848 4.14844 7.71113 3.92969 7.71113 3.71094C7.71113 2.125 8.99629 0.839844 10.5822 0.839844C11.4025 0.839844 12.1408 1.16797 12.6877 1.74219C13.3166 1.60547 13.9455 1.35938 14.4924 1.03125C14.2736 1.71484 13.8361 2.26172 13.2346 2.61719C13.8088 2.5625 14.383 2.39844 14.8752 2.17969C14.4924 2.75391 14.0002 3.24609 13.4533 3.65625Z" fill="white"/>
</svg>
