<?xml version="1.0" encoding="utf-8"?>
<!-- Generator: Adobe Illustrator 24.3.0, SVG Export Plug-In . SVG Version: 6.00 Build 0)  -->
<svg version="1.1" id="Capa_1" xmlns="http://www.w3.org/2000/svg" xmlns:xlink="http://www.w3.org/1999/xlink" x="0px" y="0px"
	 viewBox="0 0 368.2 368.2" style="enable-background:new 0 0 368.2 368.2;" xml:space="preserve">
<style type="text/css">
	.st0{fill:#FFFFFF;}
</style>
<g>
	<g id="XMLID_1_">
		<g>
			<path class="st0" d="M304.1,136c0,21.4-10.2,45.9-10.3,46.1c-3.2,7.6-9.8,19.9-14.3,26.8l-93.2,141.3c-1.8,2.8-2.4,2.8-4.3,0
				L88.7,208.9c-4.6-6.9-11.1-19.2-14.3-26.8c-0.1-0.3-10.3-24.8-10.3-46.1c0-66.2,53.8-120,120-120S304.1,69.8,304.1,136z
				 M256.1,136c0-39.7-32.3-72-72-72s-72,32.3-72,72c0,39.7,32.3,72,72,72S256.1,175.7,256.1,136z"/>
			<path class="st0" d="M320.1,136c0,24.7-11.1,51.2-11.5,52.4c-3.6,8.5-10.6,21.7-15.7,29.4l-93.2,141.3c-3.8,5.8-9.5,9.1-15.5,9.1
				s-11.7-3.3-15.5-9.1L75.3,217.8c-5.1-7.7-12.1-20.9-15.7-29.4c-0.5-1.1-11.5-27.7-11.5-52.4c0-75,61-136,136-136
				S320.1,61,320.1,136z M293.8,182.1c0.1-0.2,10.3-24.7,10.3-46.1c0-66.2-53.8-120-120-120s-120,53.8-120,120
				c0,21.4,10.2,45.8,10.3,46.1c3.2,7.6,9.8,19.9,14.3,26.8l93.2,141.3c1.8,2.8,2.4,2.8,4.3,0l93.2-141.3
				C284,202,290.6,189.8,293.8,182.1z"/>
			<path class="st0" d="M184.1,64c39.7,0,72,32.3,72,72c0,39.7-32.3,72-72,72s-72-32.3-72-72C112.1,96.3,144.4,64,184.1,64z
				 M240.1,136c0-30.9-25.1-56-56-56s-56,25.1-56,56s25.1,56,56,56S240.1,166.9,240.1,136z"/>
		</g>
		<g>
		</g>
	</g>
</g>
</svg>
