<svg xmlns="http://www.w3.org/2000/svg" viewBox="0 0 287 264"><defs><style>.cls-5{fill:#b6cede;isolation:isolate;opacity:.8}.cls-6{fill:#fff}</style></defs><g id="character"><g id="pixel_left" data-name="pixel left" opacity=".27"><path style="isolation:isolate" opacity=".33" fill="#b6cede" d="M103.56 211.91h51.49v51.57h-51.49z"/><path id="Rectangle_2_copy_7" data-name="Rectangle 2 copy 7" style="isolation:isolate" opacity=".63" fill="#b6cede" d="M.8.19h73.98v74.06H.8z"/><path id="Rectangle_2_copy" data-name="Rectangle 2 copy" style="isolation:isolate" opacity=".24" fill="#8daabd" d="M52.01 160.31h51.55v51.6H52.01z"/><path id="Rectangle_2_copy_2" data-name="Rectangle 2 copy 2" class="cls-5" d="M103.56 108.79h51.49v51.52h-51.49z"/><path id="Rectangle_2_copy_16" data-name="Rectangle 2 copy 16" class="cls-5" d="M229.18 150.03h24.96v24.93h-24.96z"/><path id="Rectangle_2_copy_3" data-name="Rectangle 2 copy 3" class="cls-6" d="M.49 108.79h51.52v51.52H.49z"/><path id="Rectangle_2_copy_4" data-name="Rectangle 2 copy 4" style="isolation:isolate" opacity=".29" fill="#b6cede" d="M155.05 57.22h51.52v51.58h-51.52z"/><path id="Rectangle_2_copy_13" data-name="Rectangle 2 copy 13" class="cls-6" d="M103.53 57.22h51.52v51.58h-51.52z"/><path id="Rectangle_2_copy_5" data-name="Rectangle 2 copy 5" class="cls-6" d="M155.05 160.31h51.52v51.6h-51.52z"/><path id="Rectangle_2_copy_10" data-name="Rectangle 2 copy 10" fill="#e4ebf1" d="M253.98 231.04h32.37v32.39h-32.37z"/><path id="Rectangle_2_copy_11" data-name="Rectangle 2 copy 11" class="cls-6" d="M233.97.19h32.39v32.42h-32.39z"/><path id="Rectangle_2_copy_14" data-name="Rectangle 2 copy 14" fill="#d3e1ea" d="M204.38.8h32.37v32.37h-32.37z"/><path id="Rectangle_2_copy_12" data-name="Rectangle 2 copy 12" style="isolation:isolate" opacity=".13" fill="#8daabd" d="M254.09 117.85h32.37v32.45h-32.37z"/></g></g></svg>