<svg xmlns="http://www.w3.org/2000/svg" viewBox="0 0 296 264"><defs><style>.cls-5{fill:#b6cede;isolation:isolate;opacity:.8}.cls-6{fill:#fff}</style></defs><g id="character"><g id="pixel_right" data-name="pixel right" opacity=".4"><path style="isolation:isolate" opacity=".33" fill="#b6cede" d="M126.58.05h48.1v48.22h-48.1z"/><path id="Rectangle_2_copy_7" data-name="Rectangle 2 copy 7" style="isolation:isolate" opacity=".63" fill="#b6cede" d="M198.76 193.59h69.1v69.26h-69.1z"/><path id="Rectangle_2_copy" data-name="Rectangle 2 copy" style="isolation:isolate" opacity=".24" fill="#8daabd" d="M174.69 48.27h48.1v48.22h-48.1z"/><path id="Rectangle_2_copy_2" data-name="Rectangle 2 copy 2" class="cls-5" d="M126.58 96.48h48.1v48.22h-48.1z"/><path id="Rectangle_2_copy_16" data-name="Rectangle 2 copy 16" class="cls-5" d="M271.28 72.5h23.27v23.35h-23.27z"/><path id="Rectangle_2_copy_3" data-name="Rectangle 2 copy 3" class="cls-6" d="M222.79 96.48h48.17v48.22h-48.17z"/><path id="Rectangle_2_copy_4" data-name="Rectangle 2 copy 4" style="isolation:isolate" opacity=".29" fill="#b6cede" d="M78.48 144.7h48.1v48.22h-48.1z"/><path id="Rectangle_2_copy_13" data-name="Rectangle 2 copy 13" class="cls-6" d="M126.58 144.7h48.1v48.22h-48.1z"/><path id="Rectangle_2_copy_5" data-name="Rectangle 2 copy 5" class="cls-6" d="M78.48 48.27h48.1v48.22h-48.1z"/><path id="Rectangle_2_copy_10" data-name="Rectangle 2 copy 10" fill="#e4ebf1" d="M265.14 1.32h30.22v30.32h-30.22z"/><path id="Rectangle_2_copy_11" data-name="Rectangle 2 copy 11" class="cls-6" d="M19.83 233.56h30.24v30.3H19.83z"/><path id="Rectangle_2_copy_14" data-name="Rectangle 2 copy 14" fill="#d3e1ea" d="M50.29 203.07l30.22 2v30.3l-30.22-2v-30.3z"/><path id="Rectangle_2_copy_12" data-name="Rectangle 2 copy 12" style="isolation:isolate" opacity=".13" fill="#8daabd" d="M.1 125.51h30.24v30.32H.1z"/></g></g></svg>