<svg xmlns="http://www.w3.org/2000/svg" width="24" height="24" viewBox="0 0 24 24">
  <g fill="none" fill-rule="evenodd">
    <path fill="#003680" d="M4,0 L20,0 C22.209139,-4.05812251e-16 24,1.790861 24,4 L24,20 C24,22.209139 22.209139,24 20,24 L0,24 L0,24 L0,4 C-2.705415e-16,1.790861 1.790861,4.05812251e-16 4,0 Z"/>
    <g fill-rule="nonzero" transform="translate(5.906 5.578)">
      <path fill="#FFF" d="M6.9609375,5.990625 C7.171875,6.1171875 7.3828125,6.2296875 7.575,6.3609375 C8.25,6.8390625 8.634375,7.5046875 8.775,8.30625 C8.925,9.1453125 8.8265625,9.965625 8.4140625,10.725 C8.034375,11.4234375 7.453125,11.90625 6.73125,12.2296875 C6.1125,12.50625 5.4609375,12.65625 4.790625,12.6609375 C3.2296875,12.6796875 1.66875,12.675 0.1078125,12.6796875 C0.0796875,12.6796875 0.046875,12.675 0.0046875,12.6703125 C0.0046875,12.6234375 0.0046875,12.5859375 0.0046875,12.54375 C0.0046875,8.8078125 0.0046875,5.071875 0.0046875,1.33125 C0.0046875,0.6375 0.6046875,0.0328125 1.2984375,0.0328125 C2.3859375,0.028125 3.478125,0.01875 4.565625,0.0375 C5.4796875,0.0515625 6.3515625,0.2578125 7.10625,0.8109375 C7.865625,1.36875 8.2640625,2.128125 8.3296875,3.065625 C8.3859375,3.8390625 8.2265625,4.5609375 7.7625,5.19375 C7.6078125,5.4046875 7.40625,5.5828125 7.21875,5.775 C7.1390625,5.85 7.05,5.915625 6.9609375,5.990625 Z M2.4609375,10.509375 C2.4890625,10.5140625 2.5078125,10.51875 2.521875,10.51875 C3.290625,10.51875 4.0546875,10.5375 4.8234375,10.509375 C5.3765625,10.4859375 5.840625,10.2375 6.0984375,9.721875 C6.39375,9.1265625 6.403125,8.5078125 6.0984375,7.9125 C5.8078125,7.3453125 5.2875,7.125 4.678125,7.10625 C4.1765625,7.0921875 3.675,7.1015625 3.1734375,7.10625 C2.821875,7.1109375 2.559375,7.3359375 2.49375,7.678125 C2.475,7.7859375 2.465625,7.8984375 2.465625,8.00625 C2.465625,8.7984375 2.465625,9.590625 2.465625,10.3875 C2.4609375,10.425 2.4609375,10.4671875 2.4609375,10.509375 Z M2.465625,5.1375 C3.0796875,5.1375 3.675,5.1375 4.2703125,5.1375 C4.3546875,5.1375 4.4390625,5.1421875 4.5234375,5.1328125 C4.96875,5.0953125 5.334375,4.921875 5.5828125,4.5375 C5.8078125,4.1859375 5.8640625,3.796875 5.8359375,3.3890625 C5.7796875,2.6859375 5.315625,2.184375 4.6125,2.1328125 C4.1484375,2.0953125 3.6796875,2.1046875 3.2109375,2.1140625 C2.9015625,2.1234375 2.634375,2.2453125 2.53125,2.56875 C2.484375,2.709375 2.4703125,2.8640625 2.4703125,3.0140625 C2.465625,3.6796875 2.465625,4.3453125 2.4703125,5.00625 C2.4609375,5.053125 2.465625,5.090625 2.465625,5.1375 Z"/>
      <path fill="#169EDA" d="M10.0828125,11.2921875 C10.0828125,10.4625 10.7578125,9.7921875 11.5921875,9.7875 C12.45,9.7875 13.1296875,10.4625 13.1296875,11.3109375 C13.1296875,12.1125 12.4359375,12.8109375 11.634375,12.815625 C10.7625,12.815625 10.0828125,12.1453125 10.0828125,11.2921875 Z"/>
    </g>
  </g>
</svg>
