<svg id="Layer_1" data-name="Layer 1" xmlns="http://www.w3.org/2000/svg" viewBox="0 0 63.87 90.56"><defs><style>.cls-1,.cls-3{fill:#ee4a00;}.cls-2{fill:#982300;}.cls-2,.cls-3,.cls-4,.cls-6,.cls-7,.cls-8,.cls-9{opacity:0.9;}.cls-5{fill:#ed6200;}.cls-6{fill:#ffbf61;}.cls-7{fill:#ffaa64;}.cls-8{fill:#fc6e27;}.cls-9{fill:#ffc578;}.cls-10{opacity:0.82;}.cls-11{fill:#f98728;}.cls-12{fill:#cf3000;}</style></defs><title>Artboard 2</title><path class="cls-1" d="M53.24,51.38,53.14,2.55a3.89,3.89,0,0,0-.07-.74v0a2.77,2.77,0,0,0-.2-.61h0a2,2,0,0,0-.26-.4l-.1-.12a1.69,1.69,0,0,0-.38-.31L62.75,6.51a1.68,1.68,0,0,1,.38.31l.1.12a1.77,1.77,0,0,1,.13.16,2.19,2.19,0,0,1,.13.24h0l.08.18.06.18,0,.18V8l0,.07,0,.16q0,.08,0,.16c0,.05,0,.11,0,.16s0,.11,0,.17h0l.11,48.83Z"/><path class="cls-2" d="M31.16,80.15,13.94,90.09l-.11.06-.14.07-.14.07-.14.06-.14.05h0l-.1,0-.14,0-.14,0-.15,0h-.49l-.2,0h0l-.23-.06a1.63,1.63,0,0,1-.28-.13L.88,84.16a1.7,1.7,0,0,0,.51.19h0a2,2,0,0,0,.58,0H2a2.78,2.78,0,0,0,.64-.14h0a3.9,3.9,0,0,0,.69-.32l17.42-9.73"/><polyline class="cls-2" points="33.27 66.9 49.93 57.23 60.55 63.4 43.43 73.21"/><polygon class="cls-3" points="43.26 73.21 37.24 85.75 26.76 79.57 33.29 66.85 43.26 73.21"/><line class="cls-2" x1="43.32" y1="73.13" x2="31.16" y2="80.15"/><g class="cls-4"><polygon class="cls-5" points="31.22 80.25 20.6 74.09 26.71 79.5 37.33 85.67 31.22 80.25"/></g><path class="cls-6" d="M51.15,56.32h0a8.08,8.08,0,0,0,1.08-1.46l0,0a8.37,8.37,0,0,0,.41-.8h0a7.62,7.62,0,0,0,.31-.85h0a6.56,6.56,0,0,0,.2-.85h0a5.22,5.22,0,0,0,.07-.84l10.61,6.17c0,.05,0,.1,0,.16s0,.11,0,.17v.17l0,.17,0,.17h0l0,.17,0,.18,0,.18,0,.18,0,.14h0v0l-.06.18-.06.18-.06.17-.07.17-.06.13h0v0l-.08.17-.09.18-.11.21-.12.22,0,0,0,0-.26.41-.22.31-.15.2-.13.16-.13.16-.13.15,0,0h0l-.1.11-.15.14-.15.14-.15.13-.08.06h0l-.06,0-.15.12-.15.11-.15.1-.15.09,0,0L49.82,57.4a5.34,5.34,0,0,0,.69-.48h0A6.68,6.68,0,0,0,51.15,56.32Z"/><path class="cls-7" d="M49.68.47l.11-.06.14-.07.14-.07.14-.06.14-.05h0l.1,0,.14,0,.14,0,.15,0h.49l.2,0h0l.23.06a1.63,1.63,0,0,1,.28.13L62.74,6.4a1.7,1.7,0,0,0-.51-.19h0a2,2,0,0,0-.58,0h0a2.78,2.78,0,0,0-.64.14h0a3.89,3.89,0,0,0-.69.32L14.05,33.34,3.44,27.17Z"/><path class="cls-8" d="M10.61,39.29l.11,48.83a3.88,3.88,0,0,0,.07.74v0a2.77,2.77,0,0,0,.2.61h0a2,2,0,0,0,.26.4l.1.12a1.69,1.69,0,0,0,.38.31L1.11,84.16a1.68,1.68,0,0,1-.38-.31l-.1-.12a1.76,1.76,0,0,1-.13-.16,2.2,2.2,0,0,1-.13-.24h0L.3,83.15.24,83l0-.18,0-.07v0l0-.07,0-.16q0-.08,0-.16c0-.05,0-.11,0-.16s0-.11,0-.17h0L0,33.13Z"/><path class="cls-9" d="M12.72,34.42h0a8.08,8.08,0,0,0-1.08,1.46l0,0a8.38,8.38,0,0,0-.41.8h0a7.62,7.62,0,0,0-.31.85h0a6.57,6.57,0,0,0-.2.85h0a5.22,5.22,0,0,0-.07.84L0,33.13c0-.05,0-.1,0-.16s0-.11,0-.17v-.17l0-.17,0-.17h0l0-.17,0-.18,0-.18,0-.18,0-.14h0v0l.06-.18L.4,31l.06-.17.07-.17.06-.13h0v0l.08-.17.09-.18L.87,30,1,29.76l0,0,0,0,.26-.41L1.51,29l.15-.2.13-.16.13-.16.13-.15,0,0h0l.1-.11L2.35,28l.15-.14.15-.13.08-.06h0l.06,0L3,27.48l.15-.11.15-.1.15-.09,0,0,10.61,6.17a5.34,5.34,0,0,0-.69.48h0A6.7,6.7,0,0,0,12.72,34.42Z"/><g class="cls-10"><path class="cls-11" d="M14.05,33.34a7.58,7.58,0,0,0-3.44,6l.11,48.83c0,2.18,1.56,3.06,3.46,2l17-9.84,6.11,5.41,6.06-12.44,17-9.84a7.57,7.57,0,0,0,3.43-5.94L63.75,8.62c0-2.19-1.56-3.07-3.45-2Z"/></g><polygon class="cls-12" points="41.27 37.26 46.6 34.18 46.66 53.21 41.32 56.29 41.27 37.26"/><polygon class="cls-12" points="33.31 60.91 33.23 33.23 38.58 30.14 38.66 57.83 33.31 60.91"/><polygon class="cls-12" points="25.31 65.54 25.27 51.7 30.61 48.61 30.65 62.45 25.31 65.54"/></svg>