<?xml version="1.0" encoding="utf-8"?>
<!-- Generator: Adobe Illustrator 21.0.2, SVG Export Plug-In . SVG Version: 6.00 Build 0)  -->
<svg version="1.1" id="Layer_1" xmlns="http://www.w3.org/2000/svg" xmlns:xlink="http://www.w3.org/1999/xlink" x="0px" y="0px"
	 viewBox="0 0 102.5 128" style="enable-background:new 0 0 102.5 128;" xml:space="preserve">
<style type="text/css">
	.st0{fill:url(#SVGID_1_);}
	.st1{fill:#B8DDFD;}
	.st2{fill:#2A3945;}
	.st3{fill:#BACEDC;}
	.st4{fill:none;stroke:#2F4554;stroke-width:0.5;stroke-linecap:round;stroke-linejoin:round;}
	.st5{fill:url(#SVGID_2_);}
	.st6{opacity:0.21;fill:url(#SVGID_3_);enable-background:new    ;}
	.st7{fill:#6D8494;}
	.st8{clip-path:url(#SVGID_5_);}
	.st9{fill:#51697A;}
	.st10{fill:#A8BECC;}
	.st11{fill:#2F4554;}
	.st12{clip-path:url(#SVGID_7_);}
	.st13{fill:#92AABB;}
	.st14{fill:url(#SVGID_8_);}
	.st15{fill:#DAE6EE;}
	.st16{fill:url(#SVGID_9_);}
	.st17{fill:url(#SVGID_10_);}
	.st18{fill:url(#SVGID_11_);}
	.st19{fill:none;stroke:#6D8494;stroke-width:0.35;stroke-miterlimit:10;}
	.st20{fill:url(#SVGID_12_);}
	.st21{fill:url(#SVGID_13_);}
</style>
<title>Asset 1</title>
<g id="_refined">
	<g>
		
			<linearGradient id="SVGID_1_" gradientUnits="userSpaceOnUse" x1="79.3284" y1="1560.9871" x2="82.6893" y2="1566.7985" gradientTransform="matrix(1 0 0 1 0 -1558)">
			<stop  offset="0" style="stop-color:#51697A"/>
			<stop  offset="0.9" style="stop-color:#2A3945"/>
		</linearGradient>
		<path class="st0" d="M88,2.9c-0.3-0.8-0.8-1.6-1.5-2.1C86,0.3,85.3,0,84.6,0c-0.3,0-0.5,0.2-0.7,0.3L83,0.9l-9.7,6.9
			c0.4-0.3,1.1,0,1.4,0.3c0.8,0.6,1.2,1.5,1.3,2.4c0,0.1,0,0.1,0,0.2l0,0c0,0.4-0.2,0.7-0.5,0.9l11.3-5.3c0.4-0.1,0.8-0.4,1.1-0.7
			c0.2-0.3,0.3-0.6,0.3-0.9l0,0V4.6c0,0,0-0.1,0-0.2C88.3,3.8,88.2,3.3,88,2.9z"/>
		<path class="st1" d="M76.1,10.5c0,1-0.7,1.4-1.5,0.9c-0.9-0.6-1.5-1.6-1.6-2.7c0-1,0.7-1.4,1.5-0.9C75.5,8.4,76.1,9.4,76.1,10.5z"
			/>
	</g>
	<path class="st2" d="M88.1,2.9c-0.3-0.8-0.8-1.6-1.5-2.1C86.1,0.3,85.4,0,84.7,0c-0.3,0-0.5,0.2-0.7,0.3L83,1
		c0.1-0.1,0.3-0.1,0.4-0.1c0.7,0,1.3,0.2,1.8,0.7c0.7,0.6,1.2,1.3,1.5,2.2c0.4,0.8,0.4,1.8-0.1,2.6c0,0.1-0.1,0.1-0.2,0.2
		c0.3-0.1,1.4-0.5,1.6-1c0.2-0.3,0.3-0.6,0.3-0.9l0,0V4.6c0,0,0-0.1,0-0.2C88.3,3.8,88.2,3.3,88.1,2.9z"/>
	<path class="st3" d="M84.2,16.3c-0.9-0.7-2.2-2.8-1.8-3.3l0,0c0.4-0.5,1.1-0.6,1.6-0.2l2.8,1.3c0.6,0.8,0.8,1.8,0.5,2.8
		C86.2,17.2,85.1,17,84.2,16.3z"/>
	<path class="st4" d="M82.5,13.9c0.1,6.6-0.6,14.9-5.2,16.1s-9.6-4.5-11.8-6.1"/>
	<g>
		
			<linearGradient id="SVGID_2_" gradientUnits="userSpaceOnUse" x1="84.6584" y1="1563.9409" x2="88.0078" y2="1569.7598" gradientTransform="matrix(1 0 0 1 0 -1558)">
			<stop  offset="0" style="stop-color:#51697A"/>
			<stop  offset="0.9" style="stop-color:#2A3945"/>
		</linearGradient>
		<path class="st5" d="M93.3,5.9c-0.3-0.8-0.8-1.6-1.5-2.2C91.3,3.2,90.7,3,90,3c-0.3,0-0.5,0.2-0.7,0.3l-0.9,0.6l-9.7,6.9
			c0.4-0.3,1.1,0,1.4,0.3c0.8,0.6,1.2,1.5,1.3,2.4c0,0.1,0,0.1,0,0.2l0,0c0,0.4-0.2,0.7-0.5,0.9l11.3-5.3c0.4-0.1,0.8-0.4,1.1-0.7
			c0.2-0.3,0.3-0.6,0.3-0.9l0,0V7.6c0,0,0-0.1,0-0.2C93.6,6.9,93.5,6.4,93.3,5.9z"/>
		<path class="st2" d="M81.5,13.5c0,1-0.7,1.4-1.5,0.9c-0.9-0.6-1.5-1.6-1.6-2.7c0-1,0.7-1.4,1.5-0.9C80.8,11.4,81.4,12.4,81.5,13.5
			z"/>
		<path class="st2" d="M93.3,5.9c-0.3-0.8-0.8-1.6-1.5-2.2C91.3,3.2,90.7,3,90,3c-0.3,0-0.5,0.2-0.7,0.3l-1,0.8
			C88.4,4,88.6,4,88.7,4c0.7,0,1.3,0.2,1.8,0.7C91.2,5.3,91.7,6,92,6.9c0.4,0.8,0.4,1.5-0.1,2.3c0,0.1-0.1,0.2-0.2,0.3
			c0.3-0.1,1.4-0.6,1.6-0.8c0.2-0.3,0.3-0.6,0.3-0.9l0,0V7.7c0,0,0-0.1,0-0.2C93.6,6.8,93.5,6.3,93.3,5.9z"/>
	</g>
	
		<linearGradient id="SVGID_3_" gradientUnits="userSpaceOnUse" x1="23.8168" y1="1686.8522" x2="51.7995" y2="1638.39" gradientTransform="matrix(1 0 0 1 0 -1558)">
		<stop  offset="0.25" style="stop-color:#51697A;stop-opacity:0"/>
		<stop  offset="0.94" style="stop-color:#2A3945"/>
	</linearGradient>
	<polygon class="st6" points="55.8,82.7 0,115.1 22.4,128 73.1,98.5 	"/>
	<g>
		<path class="st7" d="M81.4,77.2l4,2.2c-0.9-0.4-2-0.3-2.9,0.3l-4-2.2C79.3,76.8,80.4,76.7,81.4,77.2z"/>
		<g>
			<g>
				<g>
					<g>
						<defs>
							<path id="SVGID_4_" d="M81.4,77.2l4,2.2c-0.9-0.4-2-0.3-2.9,0.3l-4-2.2C79.3,76.8,80.4,76.7,81.4,77.2z"/>
						</defs>
						<clipPath id="SVGID_5_">
							<use xlink:href="#SVGID_4_"  style="overflow:visible;"/>
						</clipPath>
						<g class="st8">
							<g>
								<path class="st7" d="M82.5,79.7l-4-2.2c0.2-0.1,0.4-0.2,0.6-0.3l4,2.2C82.9,79.5,82.7,79.6,82.5,79.7"/>
								<path class="st7" d="M83.1,79.4l-4-2.2c0.2-0.1,0.3-0.1,0.5-0.2l4,2.2C83.4,79.3,83.2,79.3,83.1,79.4"/>
								<path class="st7" d="M83.6,79.2l-4-2.2l0.4-0.1l4,2.2L83.6,79.2"/>
								<path class="st7" d="M83.9,79.2l-4-2.2h0.3l4,2.2H83.9"/>
								<path class="st7" d="M84.2,79.1l-4-2.2h0.3l4,2.2H84.2"/>
								<path class="st7" d="M84.5,79.2l-4-2.2h0.2l4,2.2H84.5"/>
								<path class="st7" d="M84.7,79.2l-4-2.2l0.2,0.1l4,2.2L84.7,79.2"/>
								<path class="st7" d="M84.9,79.2l-4-2.2l0.2,0.1l4,2.2L84.9,79.2"/>
								<path class="st7" d="M85.2,79.3l-4-2.2l0.2,0.1l4,2.2L85.2,79.3"/>
								<path class="st7" d="M85.4,79.4l-4-2.2l0,0L85.4,79.4L85.4,79.4"/>
							</g>
						</g>
					</g>
				</g>
			</g>
		</g>
		<path class="st9" d="M82.5,79.7c2.2-1.2,4.1-0.2,4.1,2.2l-12.2,6.8v-4.5L82.5,79.7z"/>
		<polygon class="st9" points="74.4,88.7 70.4,86.4 70.4,81.9 74.4,84.2 		"/>
		<polygon class="st7" points="74.4,84.2 70.4,81.9 78.5,77.4 82.5,79.7 		"/>
	</g>
	<g>
		<path class="st3" d="M75.8,49.8c1.4-0.8,2.6,0.1,2.5,2L77,82.5c-1.4,0.8-5.1-0.8-4.4-16l0.5-11.8C73.1,52.8,74.2,51,75.8,49.8z"/>
		<path class="st10" d="M72.4,46.3L72.4,46.3L72.4,46.3l-0.2-0.1L72,46.1l0,0h-0.1h-0.2h-0.1h-0.1h-0.2h-0.1h-0.1H71
			c-0.1,0-0.2,0.1-0.3,0.2c-0.2,0.1-0.3,0.2-0.5,0.3l-0.1,0.1l-0.2,0.2l-0.2,0.2l-0.1,0.1l0,0l-0.2,0.2l-0.2,0.2l0,0l-0.1,0.2
			L68.9,48l-0.1,0.2l0,0l0,0l-0.1,0.2l-0.1,0.2l-0.1,0.1l0,0v0.1c0,0.1-0.1,0.2-0.1,0.3s-0.1,0.2-0.1,0.3s-0.1,0.2-0.1,0.4
			s-0.1,0.2-0.1,0.3v0.1c0,0,0,0,0,0.1c0,0.2-0.1,0.4-0.1,0.6l0.5,11.7c-1.5,20.7,8,19.8,8,19.8c-1-0.7-3.4-3.9-3.3-5.9v-22
			c0-0.2,0-0.5,0.1-0.7v-0.1c0-0.2,0.1-0.4,0.2-0.7l0,0c0.1-0.2,0.2-0.5,0.3-0.7l0,0c0.1-0.2,0.2-0.4,0.3-0.7l0,0
			c0.1-0.2,0.2-0.4,0.4-0.6l0,0c0.1-0.2,0.3-0.4,0.4-0.5l0.1-0.1c0.1-0.1,0.2-0.2,0.4-0.3l0.1-0.1c0.2-0.1,0.3-0.2,0.5-0.3
			c0.1-0.1,0.3-0.1,0.4-0.2h0.1c0.1,0,0.3-0.1,0.4-0.1l0,0c0.1,0,0.3,0,0.4,0l0,0c0.1,0,0.2,0.1,0.3,0.2L72.4,46.3z"/>
	</g>
	<polygon class="st10" points="74.3,84 71.1,82.2 69.2,75.3 73.1,77.2 	"/>
	<polygon class="st3" points="77.2,82.5 74.3,84 73.1,77.2 77.3,74.7 	"/>
	<rect x="66" y="19" transform="matrix(0.3738 -0.9275 0.9275 0.3738 21.4222 77.6679)" class="st3" width="4.4" height="7.9"/>
	<ellipse transform="matrix(0.3738 -0.9275 0.9275 0.3738 19.4018 78.043)" class="st3" cx="67.5" cy="24.7" rx="4" ry="4"/>
	<path class="st3" d="M78,18.1c-1.6,4.2-5.8,6.3-9.8,4.6c-4.1-1.9-6-6.6-4.3-10.8c1.4-4,5.8-6.1,9.8-4.7c0.1,0,0.2,0.1,0.4,0.1
		C78.1,9,79.6,13.8,78,18.1z"/>
	<path class="st2" d="M78.9,11.5c0-3-2.6-5.4-5.9-5.6l0,0h-2.3c-4.2,0-7.7,3.1-8.3,7.2h-0.1V16c0,3.7,3.6,6.7,7.3,7l4-8.9L78.9,11.5
		z"/>
	<path class="st11" d="M78.3,50.9c-0.2-0.5-0.5-1-1-1.3l0,0l-4.9-2.9c-0.6-0.3-1.2-0.7-1.8-1c-1.2-0.4-2.5-0.2-3.4,0.6
		c-0.8,0.6-1.6,1.3-2.3,2.1l-4.3,4L49.9,62.5c-2.1,2-4.8,3.9-6,6.5c-0.8,1.4-1,2.9-0.8,4.4c0.3,1.2,1.2,1.6,2.1,2.2l5.6,3.3
		c-0.1-0.1-0.2-0.2-0.3-0.3c1.9,1.8,4.4-0.9,5.9-2.3l5.8-5.5L74.8,59C76.9,57.1,79.4,54,78.3,50.9z M75.3,49.5L75.3,49.5L75.3,49.5
		L75.3,49.5z M76,49.3L76,49.3L76,49.3L76,49.3z M76.7,49.3L76.7,49.3L76.7,49.3L76.7,49.3z M50.2,78.3c0.1,0.1,0.1,0.2,0.2,0.3
		C50.4,78.5,50.3,78.4,50.2,78.3z M49.9,77.6c0.1,0.2,0.1,0.3,0.2,0.5C50,78,50,77.8,49.9,77.6z"/>
	<path class="st2" d="M63.9,69.5c0,7.4-4.3,16.9-10.6,13.2C45.5,78,40,72.8,40,66.9c0-7.4,7.3-11.4,14.7-11.4S63.9,62.2,63.9,69.5z"
		/>
	<path class="st3" d="M72.7,92.6c1.6-0.9,3-0.3,3,1.4c-0.2,2-1.3,3.8-3,4.8L46,114.2c0-3.4,2.6-7.8,5.9-9.6L72.7,92.6z"/>
	<path class="st10" d="M73,92.4c0.6-0.3,1.3-0.3,1.8-0.1c-1.7-1.1-3.5-2.2-5.3-3.1c-0.4-0.3-0.9-0.4-1.4-0.3c-0.7,0.1,1,2.8,0.4,3.1
		c-1.7,1-3,0.7-5.4,1.4c-11.5,3.2-21.8,14.9-22.8,17.6l5.6,3.3c-0.3-6.7,15.7-15.3,19.6-17.5C67.9,95.2,70.4,93.7,73,92.4z"/>
	<path class="st2" d="M69.7,97.7L63,90l-4.1-4.7c-1-1.1-1.4-2.1-1.4-3.7c0.1-2,0.3-3.8,1.6-5.3c1-1.2,3.1-2.9,4.8-1.9l-3.7-2.2
		c-1.1-0.6-2.4-1.7-3.6-2c-2.2-0.4-4.2,1.9-5.1,3.5s-1.8,4.4-0.5,6.2c1.7,2.2,3.7,4.3,5.5,6.4c2.1,2.4,4.1,4.9,6.3,7.2
		c0.9,0.8,1.9,1.5,3,2l4.4,2.5C69.9,98,69.8,97.9,69.7,97.7z"/>
	<path class="st11" d="M73.7,86.9L73.7,86.9c0,0-4.5-16.2-7-16.2c-3.6,0-9.4-1.2-11.4-0.4c-6.3,2.3,1.9,12.8,1.9,12.8l0,0
		c0.1,0.2,0.2,0.5,0.4,0.7l12,13.9c0.8,0.9,2.1,0.9,3.4,0.1c0.9-0.5,1.7-1.2,2.2-2.1C76.5,93.5,75.5,90.2,73.7,86.9z"/>
	<path class="st3" d="M21.4,37.6L21.4,37.6L21.4,37.6z"/>
	<path class="st3" d="M48.4,21.1c-6.4,1.5-17.1,9.8-20.7,12.5c-3.2,2.4-4.2,4.9-4.1,6.7c0,0.1,0,0.1,0,0.2s0,0.2,0.1,0.3
		c0,0.1,0,0.2,0,0.2c0,0.1,0.1,0.2,0.1,0.3c0,0.1,0,0.1,0.1,0.2s0.2,0.2,0.3,0.3c0.2,0.2,0.4,0.4,0.6,0.5L37,52.4l0.2,0.1l4.8,2.8
		l-0.2-0.1c0.7,0.5,1.5,0.4,2.2-0.1c0.7-0.4,1.3-1,1.7-1.7c1.1-1.6-10.3-13-12.2-14.9l15.3-9.3c2.7-1.7,5.5-3.2,8.2-5
		c0.4-0.2,0.8-0.5,1.2-0.8C58.4,23.2,49.8,20.7,48.4,21.1z"/>
	<path class="st7" d="M57,24.1c-1.3,0.8-3.1,1.9-4.7,3l-11,7.4l3.7-1.9l11-7.4c2.5-1.6,3.7-2.5,2.7-2C58.3,23.3,57.7,23.7,57,24.1z"
		/>
	<path class="st7" d="M47.7,19.8l-10.9,7l4.8,7.5L52.3,27c1.7-1.1,9-5.8,9.1-5.8C57.6,18.1,52.2,17.5,47.7,19.8z"/>
	<path class="st10" d="M98.3,38.7c0,0-4.1-7.8-5.3-10.1s-3.4-5.4-4-8c-0.5-2,0.2-8.4-2.7-5.1C82.4,19.8,98.4,38.9,98.3,38.7z"/>
	<path class="st10" d="M96.6,29.8c-0.5-0.2-1.1-0.3-1.6-0.2h-3h-9.3c-2.2,0-4.5,0-6.7,0s-4.2,2.2-4.4,4.5c-0.2,1.8,1,2.4,2.3,3.1
		l3.5,2c-1.4-0.8-0.6-3,0-4.2c0.6-1.3,1.8-2.2,3.3-2.4c1-0.1,1.9-0.2,2.9-0.2l13.7,0.3c1.1,0,3-0.4,4,0.2L96.6,29.8z"/>
	<path class="st3" d="M79.2,33c0.4-0.3,1-0.4,1.5-0.5h20c1.5,0,2.2,1.5,1.5,3.5c-0.4,1.2-1.3,2.3-2.4,3c-0.4,0.3-1,0.4-1.5,0.4h-20
		c-1.5,0-2.2-1.6-1.5-3.5C77.2,34.7,78,33.7,79.2,33z"/>
	<path class="st3" d="M102,32.4c0.6,1.2,0.7,5.2-1.3,4.9c-3-0.4-16.2-19.4-13.4-22.5C89.7,12.3,102,32.4,102,32.4z"/>
	<path class="st10" d="M46,114.3l-5.7-3.2c0,0,0.3-2,3.2-5c1.5-1.5,4.7-4.2,4.7-4.2l4.8,2.8c-1.8,1.5-3.5,3.1-5.1,4.9
		C46.8,110.8,46.1,112.5,46,114.3z"/>
	<path class="st3" d="M53,110.2l-7,4.1c0.1-1.7,0.8-3.4,1.9-4.8c1.6-1.7,3.3-3.4,5.1-4.9V110.2z"/>
	<g>
		<path class="st7" d="M46.9,104.9l2.6,2l-6.2,9.6c-0.7,1.1-1.6,2-2.6,2.6c-0.9,0.7-2.1,0.7-3.1,0.1L46.9,104.9z"/>
		<g>
			<path class="st9" d="M37.9,119.5l-4-2.3l-0.2-0.1l4,2.3L37.9,119.5z"/>
			<g>
				<g>
					<g>
						<g>
							<defs>
								<polygon id="SVGID_6_" points="37.9,119.5 33.9,117.1 33.7,117 37.7,119.3 								"/>
							</defs>
							<clipPath id="SVGID_7_">
								<use xlink:href="#SVGID_6_"  style="overflow:visible;"/>
							</clipPath>
							<g class="st12">
								<g>
									<path class="st9" d="M37.9,119.5l-4-2.3l-0.2-0.1l4,2.3L37.9,119.5"/>
								</g>
							</g>
						</g>
					</g>
				</g>
			</g>
		</g>
		<polygon class="st9" points="37.7,119.3 33.7,117 42.9,102.6 46.9,104.9 		"/>
	</g>
	<polygon class="st7" points="57.8,73.6 40.6,63.6 49.8,28.2 66.9,38.2 	"/>
	<path class="st13" d="M72.5,30.2c0.6-0.3,1.2-0.6,1.8-0.7c3-0.5,4.5,2.6,3.4,6.8l-9.2,35.3l-10.8,1.8l9.2-35.3
		C67.8,34.9,69.7,32.1,72.5,30.2z"/>
	
		<linearGradient id="SVGID_8_" gradientUnits="userSpaceOnUse" x1="59.8343" y1="1592.0981" x2="65.8343" y2="1581.6982" gradientTransform="matrix(1 0 0 1 0 -1558)">
		<stop  offset="0" style="stop-color:#6D8494"/>
		<stop  offset="1" style="stop-color:#92AABB"/>
	</linearGradient>
	<path class="st14" d="M73.3,29.8c1-0.5,2.1-0.5,3.1,0l-11.1-6.5l-5.6-3.2c-1.2-0.8-2.7-0.8-3.9-0.1c-3.1,1.5-5.2,5-6,8.2l17.2,10
		C67.8,34.9,70,31.2,73.3,29.8z"/>
	<path class="st15" d="M73.1,27.9c-1-0.5-2.1-0.5-3.1,0c-3.3,1.4-4.7,5.4-5.6,8.6l3.5,2c2.1-7.3,7.8-9.1,7.8-9.1
		C74.6,28.8,74.3,28.6,73.1,27.9z"/>
	<path class="st15" d="M59.3,19.8c-1-0.5-2.1-0.5-3.1,0c-3.3,1.4-5.5,5.1-6.3,8.4l3.5,2c0.8-3.3,3.1-7,6.3-8.4c1-0.5,2.1-0.5,3.1,0
		L59.3,19.8z"/>
	<g>
		<polygon class="st15" points="51,65.8 32.5,55.7 39.4,35.2 57.9,45.3 		"/>
		<path class="st15" d="M71.1,32.9L60.7,63.8l-9.7,2l6.9-20.5c1.9-5.7,6.3-11,9.8-11.7L71.1,32.9z"/>
		
			<linearGradient id="SVGID_9_" gradientUnits="userSpaceOnUse" x1="52.494" y1="1598.9774" x2="43.352" y2="1614.8109" gradientTransform="matrix(0.9998 1.797592e-02 -1.797592e-02 0.9998 36.0017 -1573.5168)">
			<stop  offset="0" style="stop-color:#FFFFFF"/>
			<stop  offset="1" style="stop-color:#DAE6EE"/>
		</linearGradient>
		<path class="st16" d="M58.4,44.1c1.2-3.1,3.1-6,5.6-8.3c2.2-2,4.4-2.3,7.2-2.9L52.5,22.8c-3.3,0.7-5.5,1.2-7.9,3.7
			s-4.2,5.5-5.2,8.7l18.5,10.1C58.1,44.9,58.2,44.5,58.4,44.1z"/>
	</g>
	<g>
		<polygon class="st13" points="80.7,32.5 75.5,29.5 83.9,29.5 89.1,32.5 		"/>
		<path class="st13" d="M79.1,33c0.5-0.3,1-0.5,1.6-0.5h8.4L86,41.6h-8.4c-1.7,0-2.4-2-1.6-4.5C76.5,35.4,77.7,34,79.1,33z"/>
		
			<linearGradient id="SVGID_10_" gradientUnits="userSpaceOnUse" x1="72.6573" y1="1597.1638" x2="77.5573" y2="1588.6838" gradientTransform="matrix(1 0 0 1 0 -1558)">
			<stop  offset="0" style="stop-color:#6D8494"/>
			<stop  offset="1" style="stop-color:#92AABB"/>
		</linearGradient>
		<path class="st17" d="M75.9,40.5c-1.2-2.8,1.9-7.9,4.8-8l-5.3-3.1c-2,0-3.7,2.1-4.4,3.8c-2.1,4.8,1.7,5.8,5.6,8.1
			C76.3,41.2,76,40.8,75.9,40.5z"/>
	</g>
	<path class="st3" d="M88,10c1.3,2.6,0.8,5.5-1.8,6.9c-1.4,0.7-1.3-1.5-2.4-4.2c-0.6-1.5-2.2-1.7-1.7-2.5S86.4,6.7,88,10z"/>
	<g>
		<path class="st15" d="M47.1,42.6c3.6,2.5,5.1,7.1,3.7,11.2l-2.9,7.6l-14.6-7.6c-1.6-0.8-2.3-2.7-1.7-4.4l1.8-4.6
			c1.5-4.4,5.8-6.3,9.7-4.3l3.6,1.8L47.1,42.6z"/>
		
			<linearGradient id="SVGID_11_" gradientUnits="userSpaceOnUse" x1="56.8139" y1="1620.4432" x2="42.5315" y2="1595.7063" gradientTransform="matrix(1 0 0 1 0 -1558)">
			<stop  offset="0" style="stop-color:#DAE6EE"/>
			<stop  offset="0.898" style="stop-color:#FFFFFF"/>
		</linearGradient>
		<path class="st18" d="M56.1,50.2c0.2-3.5-1.7-6.9-4.8-8.6c-1.3-0.7-2.6-1.4-3.9-2C46.3,39,45,38.8,43.8,39
			c-1.6,0.2-3.2,0.5-4.8,0.7c2.3-0.3,4.2,0.8,6.1,1.8s3.9,2.2,5,4.3c1.3,2.5,1.6,5.4,0.7,8c-0.6,1.8-1.4,3.6-2.1,5.4
			c-1,2.7,0.9,4.6,2.3,6.6l3-8.2C54.8,55.2,56.1,52.7,56.1,50.2z"/>
	</g>
	<circle class="st15" cx="35.8" cy="52" r="4.8"/>
	<line class="st19" x1="85.2" y1="11.4" x2="82.6" y2="9.6"/>
	<line class="st19" x1="86.2" y1="10.8" x2="83.6" y2="9"/>
	<line class="st19" x1="87.2" y1="10.3" x2="84.6" y2="8.5"/>
	<polygon class="st15" points="63.9,54.2 62.2,59.4 73.4,53 74.6,48.2 	"/>
	
		<linearGradient id="SVGID_12_" gradientUnits="userSpaceOnUse" x1="56.4553" y1="1568.7933" x2="81.6028" y2="1568.7933" gradientTransform="matrix(1 0 0 1 -8.232467e-03 -1557.9933)">
		<stop  offset="0" style="stop-color:#51697A"/>
		<stop  offset="1" style="stop-color:#7E96A5"/>
	</linearGradient>
	<path class="st20" d="M66.7,4.7c6.8-2.6,13.4-1.9,14.7,1.4c1.3,3.3-3.2,8.2-10,10.8S58,18.8,56.7,15.5C55.4,12.1,59.9,7.3,66.7,4.7
		z"/>
	
		<linearGradient id="SVGID_13_" gradientUnits="userSpaceOnUse" x1="69.4353" y1="1572.9312" x2="67.3653" y2="1561.1611" gradientTransform="matrix(1 0 0 1 0 -1558)">
		<stop  offset="0" style="stop-color:#51697A"/>
		<stop  offset="1" style="stop-color:#7E96A5"/>
	</linearGradient>
	<path class="st21" d="M76,6.8c1.2,3.1-1.6,6.2-5.7,7.8s-8.2,1-9.3-2.1s1-7.3,5.1-8.9S74.8,3.7,76,6.8z"/>
</g>
</svg>
