<svg width="64" height="63" viewBox="0 0 64 63" fill="none" xmlns="http://www.w3.org/2000/svg">
<path d="M56.2297 7.45312C59.1828 10.5117 60.0266 14.625 58.2336 17.6836C55.8078 21.9023 63.507 34.9805 49.4797 48.9023C35.5578 62.9297 22.4797 55.2305 18.2609 57.6562C15.2023 59.4492 11.0891 58.6055 8.03047 55.6523C5.07734 52.5938 4.23359 48.4805 6.02656 45.4219C8.45234 41.2031 0.753126 28.125 14.7805 14.2031C28.7023 0.175781 41.7805 7.875 45.9992 5.44922C49.0578 3.65625 53.1711 4.5 56.2297 7.45312ZM53.8039 15.1523C55.2805 12.7266 50.8508 8.50781 48.5305 9.87891C41.4641 13.9922 31.0227 5.02734 18.3664 17.7891C5.60469 30.4453 14.5695 40.8867 10.4563 47.9531C8.97969 50.3789 13.4094 54.5977 15.7297 53.2266C22.7961 49.1133 33.2375 58.0781 45.8938 45.3164C58.6555 32.6602 49.6906 22.2188 53.8039 15.1523ZM35.8742 16.1016C36.0852 17.2617 35.2414 18.3164 34.0813 18.4219C28.2805 19.1602 19.7375 27.7031 18.9992 33.5039C18.8938 34.6641 17.8391 35.5078 16.6789 35.2969C15.5188 35.1914 14.675 34.1367 14.8859 32.9766C15.8352 25.2773 25.8547 15.2578 33.5539 14.3086C34.7141 14.0977 35.7688 14.9414 35.8742 16.1016Z" fill="#9FC4CE"/>
</svg>
