<svg width="60" height="57" viewBox="0 0 60 57" fill="none" xmlns="http://www.w3.org/2000/svg">
<path d="M55.5107 19.6406C58.2529 20.0625 59.3076 23.4375 57.3037 25.4414L46.2295 36.3047L48.8662 51.5977C49.2881 54.3398 46.335 56.4492 43.9092 55.1836L30.1982 47.9062L16.3818 55.1836C13.9561 56.4492 11.0029 54.3398 11.4248 51.5977L14.0615 36.3047L2.9873 25.4414C0.983398 23.4375 2.03809 20.0625 4.78027 19.6406L20.2842 17.4258L27.1396 3.39844C28.4053 0.867188 31.9912 0.972656 33.1514 3.39844L40.1123 17.4258L55.5107 19.6406ZM40.7451 34.5117L51.3975 24.1758L36.7373 22.0664L30.1982 8.77734L23.5537 22.0664L8.89355 24.1758L19.5459 34.5117L17.0146 49.0664L30.1982 42.2109L43.2764 49.0664L40.7451 34.5117Z" fill="#9FC4CE"/>
</svg>
