<svg width="15" height="13" viewBox="0 0 15 13" fill="none" xmlns="http://www.w3.org/2000/svg">
<path d="M12.8008 3.65625C12.8008 3.79297 12.8008 3.90234 12.8008 4.03906C12.8008 7.83984 9.92969 12.1875 4.65234 12.1875C3.01172 12.1875 1.50781 11.7227 0.25 10.9023C0.46875 10.9297 0.6875 10.957 0.933594 10.957C2.27344 10.957 3.50391 10.4922 4.48828 9.72656C3.23047 9.69922 2.16406 8.87891 1.80859 7.73047C2 7.75781 2.16406 7.78516 2.35547 7.78516C2.60156 7.78516 2.875 7.73047 3.09375 7.67578C1.78125 7.40234 0.796875 6.25391 0.796875 4.85938V4.83203C1.17969 5.05078 1.64453 5.16016 2.10938 5.1875C1.31641 4.66797 0.824219 3.79297 0.824219 2.80859C0.824219 2.26172 0.960938 1.76953 1.20703 1.35938C2.62891 3.08203 4.76172 4.23047 7.14062 4.36719C7.08594 4.14844 7.05859 3.92969 7.05859 3.71094C7.05859 2.125 8.34375 0.839844 9.92969 0.839844C10.75 0.839844 11.4883 1.16797 12.0352 1.74219C12.6641 1.60547 13.293 1.35938 13.8398 1.03125C13.6211 1.71484 13.1836 2.26172 12.582 2.61719C13.1562 2.5625 13.7305 2.39844 14.2227 2.17969C13.8398 2.75391 13.3477 3.24609 12.8008 3.65625Z" fill="#252525"/>
</svg>
