<svg width="15" height="14" viewBox="0 0 15 14" fill="none" xmlns="http://www.w3.org/2000/svg">
<path d="M14.3565 6.78003C14.3565 10.5261 11.3213 13.5613 7.5752 13.5613C6.86427 13.5613 6.18067 13.4792 5.55177 13.2605C5.8252 12.823 6.23536 12.0847 6.39942 11.4832C6.48145 11.1824 6.80958 9.86987 6.80958 9.86987C7.02833 10.3074 7.68458 10.6628 8.36817 10.6628C10.419 10.6628 11.8955 8.77612 11.8955 6.4519C11.8955 4.20972 10.0635 2.5144 7.71192 2.5144C4.78614 2.5144 3.22755 4.48315 3.22755 6.61597C3.22755 7.62769 3.74708 8.85815 4.59473 9.26831C4.73145 9.323 4.81348 9.29565 4.84083 9.15894C4.84083 9.0769 4.97755 8.61206 5.03223 8.39331C5.03223 8.33862 5.03223 8.25659 4.97755 8.2019C4.70411 7.87378 4.48536 7.24487 4.48536 6.64331C4.48536 5.16675 5.60645 3.71753 7.54786 3.71753C9.18848 3.71753 10.3643 4.83862 10.3643 6.47925C10.3643 8.31128 9.43458 9.56909 8.23145 9.56909C7.5752 9.56909 7.08302 9.02222 7.21973 8.36597C7.41114 7.54565 7.79395 6.67065 7.79395 6.09644C7.79395 5.5769 7.52052 5.1394 6.9463 5.1394C6.2627 5.1394 5.71583 5.85034 5.71583 6.78003C5.71583 7.38159 5.90723 7.79175 5.90723 7.79175C5.90723 7.79175 5.25098 10.6355 5.11427 11.155C4.97755 11.7566 5.03223 12.5769 5.08692 13.0964C2.5713 12.1121 0.793953 9.67847 0.793953 6.78003C0.793953 3.03394 3.82911 -0.0012207 7.5752 -0.0012207C11.3213 -0.0012207 14.3565 3.03394 14.3565 6.78003Z" fill="#999999"/>
</svg>
