<svg width="14" height="13" viewBox="0 0 14 13" fill="none" xmlns="http://www.w3.org/2000/svg">
<path d="M7.125 3.35547C8.84766 3.35547 10.2695 4.77734 10.2695 6.5C10.2695 8.25 8.84766 9.64453 7.125 9.64453C5.375 9.64453 3.98047 8.25 3.98047 6.5C3.98047 4.77734 5.375 3.35547 7.125 3.35547ZM7.125 8.55078C8.24609 8.55078 9.14844 7.64844 9.14844 6.5C9.14844 5.37891 8.24609 4.47656 7.125 4.47656C5.97656 4.47656 5.07422 5.37891 5.07422 6.5C5.07422 7.64844 6.00391 8.55078 7.125 8.55078ZM11.1172 3.24609C11.1172 3.65625 10.7891 3.98438 10.3789 3.98438C9.96875 3.98438 9.64062 3.65625 9.64062 3.24609C9.64062 2.83594 9.96875 2.50781 10.3789 2.50781C10.7891 2.50781 11.1172 2.83594 11.1172 3.24609ZM13.1953 3.98438C13.25 4.99609 13.25 8.03125 13.1953 9.04297C13.1406 10.0273 12.9219 10.875 12.2109 11.6133C11.5 12.3242 10.625 12.543 9.64062 12.5977C8.62891 12.6523 5.59375 12.6523 4.58203 12.5977C3.59766 12.543 2.75 12.3242 2.01172 11.6133C1.30078 10.875 1.08203 10.0273 1.02734 9.04297C0.972656 8.03125 0.972656 4.99609 1.02734 3.98438C1.08203 3 1.30078 2.125 2.01172 1.41406C2.75 0.703125 3.59766 0.484375 4.58203 0.429688C5.59375 0.375 8.62891 0.375 9.64062 0.429688C10.625 0.484375 11.5 0.703125 12.2109 1.41406C12.9219 2.125 13.1406 3 13.1953 3.98438ZM11.8828 10.1094C12.2109 9.31641 12.1289 7.40234 12.1289 6.5C12.1289 5.625 12.2109 3.71094 11.8828 2.89062C11.6641 2.37109 11.2539 1.93359 10.7344 1.74219C9.91406 1.41406 8 1.49609 7.125 1.49609C6.22266 1.49609 4.30859 1.41406 3.51562 1.74219C2.96875 1.96094 2.55859 2.37109 2.33984 2.89062C2.01172 3.71094 2.09375 5.625 2.09375 6.5C2.09375 7.40234 2.01172 9.31641 2.33984 10.1094C2.55859 10.6562 2.96875 11.0664 3.51562 11.2852C4.30859 11.6133 6.22266 11.5312 7.125 11.5312C8 11.5312 9.91406 11.6133 10.7344 11.2852C11.2539 11.0664 11.6914 10.6562 11.8828 10.1094Z" fill="#252525"/>
</svg>
